<?xml version="1.0" standalone="no"?>
<!DOCTYPE svg PUBLIC "-//W3C//DTD SVG 1.1//EN" "http://www.w3.org/Graphics/SVG/1.1/DTD/svg11.dtd" >
<svg xmlns="http://www.w3.org/2000/svg" xmlns:xlink="http://www.w3.org/1999/xlink" version="1.1">
<metadata>
Created by FontForge 20170731 at Thu Dec  7 02:21:13 2017
 By Aleksey,,,
Copyright (c) 2015 by Apple Inc. and Michael Everson. All rights reserved.
</metadata>
<defs>
<font id="Galvji" horiz-adv-x="0" >
  <font-face 
    font-family="Galvji"
    font-weight="400"
    font-stretch="normal"
    units-per-em="2048"
    panose-1="2 11 5 4 2 2 2 2 2 4"
    ascent="1638"
    descent="-410"
    x-height="1143"
    cap-height="1486"
    bbox="-976 -531.64 2229 1902"
    underline-thickness="120"
    underline-position="-610"
    unicode-range="U+0002-FB02"
  />
<missing-glyph horiz-adv-x="1407" 
d="M131 0v1486h1147v-1486h-1147zM545 341q0 -35 17 -61t46 -40.5t68 -14.5q61 0 97.5 32t36.5 84q0 25 -9.5 47t-27 37.5t-42.5 24t-55 8.5q-58 0 -94.5 -32.5t-36.5 -84.5zM368 966h186q0 66 36 103.5t99 37.5q39 0 68.5 -14.5t46 -41.5t16.5 -62q0 -42 -22 -72t-90 -78
q-75 -54 -104.5 -110.5t-24.5 -131.5l2 -18h181v16q0 52 20.5 82.5t95.5 84.5q79 56 111.5 110t32.5 127q0 123 -87.5 197t-235.5 74q-102 0 -178 -36.5t-115.5 -105.5t-37.5 -162z" />
    <glyph glyph-name="uni13A0_dotbelowcomb" unicode="&#x13a0;&#x323;" horiz-adv-x="1486" 
d="M1328 743q0 -169 -34.5 -297t-107.5 -234q-73 -102 -201 -157t-309 -55h-466v1486h466q179 0 304 -55t202 -154t111.5 -235.5t34.5 -298.5zM1149 743q0 587 -479 587h-285v-1172h285q479 0 479 585zM614 -350q-31 29 -31 78t31 79.5t81 30.5t81 -30.5t31 -79.5t-31 -79
t-81 -30t-81 31z" />
    <glyph glyph-name="uni13A1_dotbelowcomb" unicode="&#x13a1;&#x323;" horiz-adv-x="1415" 
d="M1331 10q-26 -8 -53 -9t-53 -1q-56 0 -97.5 10.5t-73.5 33t-57 57.5t-47 83l-190 413h-375v-597h-175v1486h529q102 0 188 -29t148.5 -85t98 -137.5t35.5 -187.5q0 -145 -69 -253.5t-208 -160.5l174 -361q13 -28 25.5 -51.5t29 -40.5t39.5 -26.5t58 -9.5q18 0 36.5 1
t36.5 5v-140zM1030 1034q0 73 -22 128.5t-62.5 93t-98.5 56t-129 18.5h-333v-577h325q70 0 128.5 16t101 49.5t66.5 87t24 128.5zM585 -350q-31 29 -31 78t31 79.5t81 30.5t81 -30.5t31 -79.5t-31 -79t-81 -30t-81 31z" />
    <glyph glyph-name="uni13A2_dotbelowcomb" unicode="&#x13a2;&#x323;" horiz-adv-x="1201" 
d="M1136 1330h-455v-1330h-173v1330h-456v156h1084v-156zM510 -350q-31 29 -31 78t31 79.5t81 30.5t81 -30.5t31 -79.5t-31 -79t-81 -30t-81 31z" />
    <glyph glyph-name="uni13A3_dotbelowcomb" unicode="&#x13a3;&#x323;" horiz-adv-x="1546" 
d="M1378 458q0 -73 -16.5 -158.5t-54 -158t-99 -121.5t-151.5 -49q-87 0 -144.5 37.5t-92.5 96.5t-49.5 133t-14.5 147h162q0 -33 3 -78t17.5 -84.5t40.5 -66.5t74 -27q46 0 77 38.5t49 90.5t25 107t7 89q0 93 -22.5 180.5t-71.5 156.5t-125 110.5t-180 41.5
q-131 0 -205 -67.5t-122 -180.5q62 -66 86 -151.5t24 -175.5q0 -66 -16.5 -137t-52 -128t-90.5 -94.5t-134 -37.5t-134.5 37.5t-89.5 94.5t-51 128t-17 137q0 65 17 137t52 132t90.5 99.5t132.5 39.5q10 0 18.5 1t18.5 -3q48 117 127 200t204 112v244h-173v158h519v-158
h-173v-231q129 -8 229 -63.5t167.5 -144t103 -200.5t35.5 -233zM429 368q0 25 -6.5 69t-21 85.5t-38.5 71.5t-61 30q-38 0 -62 -29t-38.5 -70.5t-19.5 -85.5t-5 -71t6 -68.5t19.5 -80t37.5 -66.5t62 -28q37 0 62 28t38.5 66.5t20 80t6.5 68.5zM674 -350q-31 29 -31 78
t31 79.5t81 30.5t81 -30.5t31 -79.5t-31 -79t-81 -30t-81 31z" />
    <glyph glyph-name="uni13A4_dotbelowcomb" unicode="&#x13a4;&#x323;" horiz-adv-x="1838" 
d="M1730 968q-7 -54 -27.5 -101t-54 -81.5t-78 -55t-96.5 -20.5h-146v-86q0 -312 -160 -485q-159 -170 -431 -170q-136 0 -244 43.5t-184 128t-116.5 206t-40.5 277.5v223q0 312 160 491t429 179q266 0 427 -179q152 -166 160 -451h129q46 0 76 35t28 83q-4 44 -32 76
t-72 32h-56v169h73q58 0 108 -27t84 -70.5t52 -101t12 -115.5zM1155 624v223q0 123 -30 217.5t-85.5 160t-131 100t-169.5 34.5q-92 0 -168 -33.5t-131 -99t-85 -160t-30 -219.5v-223q0 -129 32 -222.5t87.5 -154t131 -90.5t163.5 -30q87 0 163 30t132.5 90.5t88.5 154
t32 222.5zM664 -350q-31 29 -31 78t31 79.5t81 30.5t81 -30.5t31 -79.5t-31 -79t-81 -30t-81 31z" />
    <glyph glyph-name="uni13A5_dotbelowcomb" unicode="&#x13a5;&#x323;" horiz-adv-x="643" 
d="M431 1249q0 -48 -36.5 -85.5t-86.5 -37.5q-52 0 -87.5 36.5t-35.5 86.5q0 52 36.5 87.5t86.5 35.5q46 0 85 -36q38 -37 38 -87zM506 0h-396v156h113v816h172v-816h111v-156zM223 -350q-31 29 -31 78t31 79.5t81 30.5t81 -30.5t31 -79.5t-31 -79t-81 -30t-81 31z" />
    <glyph glyph-name="uni13A6_dotbelowcomb" unicode="&#x13a6;&#x323;" horiz-adv-x="1434" 
d="M1295 793l-304 -62q91 -55 137 -132t46 -189q0 -212 -156 -327q-152 -114 -394 -114q-137 0 -243 39.5t-165 103.5q-116 132 -120 286h175q12 -119 110 -195t266 -76q158 0 254 73t96 198q0 93 -59.5 151.5t-186.5 91.5l-89 23l-566 -115v154l266 55q-100 50 -160 132
t-60 207q0 102 42.5 181t114 134t162.5 83.5t188 25.5q92 0 181.5 -25t161.5 -76t117.5 -130t49.5 -189h-175q-12 119 -97.5 190.5t-241.5 71.5q-145 0 -236 -66.5t-91 -187.5q0 -170 211 -227l191 -52l575 117v-154zM562 -350q-31 29 -31 78t31 79.5t81 30.5t81 -30.5
t31 -79.5t-31 -79t-81 -30t-81 31z" />
    <glyph glyph-name="uni13A7_dotbelowcomb" unicode="&#x13a7;&#x323;" horiz-adv-x="1705" 
d="M1548 778q0 -149 -46.5 -294t-135 -259.5t-216.5 -185t-290 -70.5q-200 0 -336.5 82t-218.5 214.5t-117.5 301t-35.5 343.5q0 91 11.5 196t50 194.5t110 149t192.5 59.5q75 0 125 -43.5t80 -108.5t43.5 -138.5t13.5 -132.5q0 -108 -18.5 -204.5t-62 -177t-115.5 -141.5
t-180 -101q58 -152 174.5 -243.5t283.5 -91.5q47 0 95 12.5t90 33.5q87 43 149.5 107.5t102 144t58.5 170t19 183.5q0 88 -13.5 174.5t-47 163.5t-90.5 139t-143 102l81 152q107 -54 179.5 -132t119.5 -174t67.5 -204t20.5 -221zM608 1022q0 21 -3.5 77t-14.5 113.5t-33 102
t-57 44.5q-71 0 -106.5 -53t-51 -126t-16.5 -149t-1 -121q0 -73 5 -143t20 -138q131 52 194.5 154t63.5 239zM774 -350q-31 29 -31 78t31 79.5t81 30.5t81 -30.5t31 -79.5t-31 -79t-81 -30t-81 31z" />
    <glyph glyph-name="uni13A8_dotbelowcomb" unicode="&#x13a8;&#x323;" horiz-adv-x="1049" 
d="M957 1230q0 -54 -10 -113.5t-35 -111.5t-69 -85t-110 -33q-44 0 -85.5 13.5t-73.5 46.5q-16 -25 -39 -59.5t-48 -71t-50 -73.5t-46 -69v-674h-181v1486h181v-579l113 169q-7 33 -12 66.5t-3 68.5v19h125q0 -27 3 -63.5t13.5 -69.5t32.5 -56t59 -23q38 0 60.5 23t33 56
t14 69.5t3.5 63.5h124zM221 -350q-31 29 -31 78t31 79.5t81 30.5t81 -30.5t31 -79.5t-31 -79t-81 -30t-81 31z" />
    <glyph glyph-name="uni13A9_dotbelowcomb" unicode="&#x13a9;&#x323;" horiz-adv-x="1303" 
d="M1228 1488l-656 -1357q-79 -162 -251 -162q-50 0 -100 15.5t-88.5 45.5t-62.5 74t-24 100v54h173q0 -23 7 -46t19.5 -42.5t31.5 -32t44 -12.5q35 0 57 21t34 50l148 314l-479 978h198l379 -774l370 774h200zM577 -350q-31 29 -31 78t31 79.5t81 30.5t81 -30.5t31 -79.5
t-31 -79t-81 -30t-81 31z" />
    <glyph glyph-name="uni13AA_dotbelowcomb" unicode="&#x13aa;&#x323;" horiz-adv-x="1376" 
d="M1295 0h-188l-154 458h-562l-154 -458h-179l535 1486h169zM905 599l-229 673h-6l-229 -673h464zM591 -350q-31 29 -31 78t31 79.5t81 30.5t81 -30.5t31 -79.5t-31 -79t-81 -30t-81 31z" />
    <glyph glyph-name="uni13AB_dotbelowcomb" unicode="&#x13ab;&#x323;" horiz-adv-x="1084" 
d="M885 425q0 -227 -117 -341.5t-312 -114.5q-179 0 -289 98q-111 100 -111 260h169q4 -94 70.5 -147t160.5 -53q118 0 187 67.5t69 211.5v1080h173v-1061zM400 -350q-31 29 -31 78t31 79.5t81 30.5t81 -30.5t31 -79.5t-31 -79t-81 -30t-81 31z" />
    <glyph glyph-name="uni13AC_dotbelowcomb" unicode="&#x13ac;&#x323;" horiz-adv-x="1211" 
d="M1093 0h-883v1486h883v-158h-708v-489h668v-158h-668v-523h708v-158zM581 -350q-31 29 -31 78t31 79.5t81 30.5t81 -30.5t31 -79.5t-31 -79t-81 -30t-81 31z" />
    <glyph glyph-name="uni13AD_dotbelowcomb" unicode="&#x13ad;&#x323;" horiz-adv-x="1590" 
d="M1471 862l-464 -862h-258v864h-137q-13 -48 -41 -89.5t-67.5 -72t-87.5 -48t-100 -17.5q-127 0 -216 89q-90 90 -90 217t90 216q89 90 216 90t217 -90q62 -62 81 -141h135v468h167v-468h555v-156zM1292 851v13h-376v-708h8zM491 943q0 73 -51 124t-124 51
q-35 0 -66 -13.5t-54 -37.5t-37.5 -55.5t-14.5 -68.5q0 -36 14.5 -67t37.5 -54t54 -37.5t66 -14.5q38 0 69 14.5t55 37.5t37.5 54t13.5 67zM749 -350q-31 29 -31 78t31 79.5t81 30.5t81 -30.5t31 -79.5t-31 -79t-81 -30t-81 31z" />
    <glyph glyph-name="uni13AE_dotbelowcomb" unicode="&#x13ae;&#x323;" horiz-adv-x="1093" 
d="M937 947q0 -131 -44 -230t-122 -165.5t-183 -100t-230 -33.5v-418h-173v778h173v-195q89 0 164 20.5t128 65.5t83.5 113.5t30.5 164.5q0 71 -15.5 143.5t-52 132t-95 96t-141.5 36.5q-58 0 -103 -28t-75 -72t-45.5 -98t-15.5 -106h-171q0 96 27 180t79 145.5t129 97
t179 35.5q125 0 214.5 -45t146.5 -122t84.5 -179t27.5 -216zM194 -350q-31 29 -31 78t31 79.5t81 30.5t81 -30.5t31 -79.5t-31 -79t-81 -30t-81 31z" />
    <glyph glyph-name="uni13AF_dotbelowcomb" unicode="&#x13af;&#x323;" horiz-adv-x="1540" 
d="M1372 758q0 -211 -28.5 -360.5t-81.5 -244.5t-127 -139.5t-167 -44.5q-123 0 -191.5 54t-68.5 133q0 35 7 69.5t24 74.5h152q0 -4 -6.5 -32.5t-6.5 -51.5q0 -89 86 -89q197 0 222 472h-562q-12 -137 -31 -252.5t-57.5 -200t-102 -131t-160.5 -46.5q-119 0 -191 43.5
t-72 131.5q0 70 32 156h152q0 -4 -6.5 -32.5t-6.5 -51.5q0 -89 87 -89q69 0 105.5 60.5t55 160t26 225.5t17.5 257q11 132 35 255.5t76 219.5t136 154t216 58q231 0 334 -190.5t103 -568.5zM1191 741q0 310 -61.5 464t-222.5 154q-68 0 -115 -37.5t-76 -101t-44.5 -146.5
t-24.5 -173l-14 -160h558zM822 -350q-31 29 -31 78t31 79.5t81 30.5t81 -30.5t31 -79.5t-31 -79t-81 -30t-81 31z" />
    <glyph glyph-name="uni13B0_dotbelowcomb" unicode="&#x13b0;&#x323;" horiz-adv-x="1093" 
d="M1022 649h-637v-649h-175v1486h175v-678h637v-159zM219 -350q-31 29 -31 78t31 79.5t81 30.5t81 -30.5t31 -79.5t-31 -79t-81 -30t-81 31z" />
    <glyph glyph-name="uni13B1_dotbelowcomb" unicode="&#x13b1;&#x323;" horiz-adv-x="1101" 
d="M1078 1328h-693v-1328h-175v1486h868v-158zM217 -350q-31 29 -31 78t31 79.5t81 30.5t81 -30.5t31 -79.5t-31 -79t-81 -30t-81 31z" />
    <glyph glyph-name="uni13B2_dotbelowcomb" unicode="&#x13b2;&#x323;" horiz-adv-x="1694" 
d="M1603 443h-167q-8 -98 -35 -185t-77 -151.5t-125 -102t-177 -37.5q-79 0 -155 28t-151 78q-73 -50 -150 -78t-156 -28q-191 0 -295.5 104t-104.5 274q0 86 24 159t66 126t96 83t116 30l31 -187q-37 0 -67 -18t-52 -47t-34.5 -66.5t-12.5 -76.5q0 -119 66.5 -170
t166.5 -51q42 0 84.5 20t88.5 44q-229 267 -229 646q0 347 99 511.5t263 164.5t264 -164.5t100 -511.5q0 -385 -229 -646q44 -24 86.5 -44t84.5 -20q100 0 160.5 83t74.5 233h-173v131h519v-131zM914 837q0 156 -23 257t-55.5 159t-65.5 81t-54 23q-17 0 -50 -21t-65.5 -78
t-56.5 -158t-24 -263q0 -169 52 -302t144 -237q94 104 146 237t52 302zM633 -350q-31 29 -31 78t31 79.5t81 30.5t81 -30.5t31 -79.5t-31 -79t-81 -30t-81 31z" />
    <glyph glyph-name="uni13B3_dotbelowcomb" unicode="&#x13b3;&#x323;" horiz-adv-x="1931" 
d="M610 0h-152l-412 1486h204l285 -1211h8l298 1167h185l298 -1167h8l285 1211h204l-412 -1486h-154l-318 1155h-9zM860 -350q-31 29 -31 78t31 79.5t81 30.5t81 -30.5t31 -79.5t-31 -79t-81 -30t-81 31z" />
    <glyph glyph-name="uni13B4_dotbelowcomb" unicode="&#x13b4;&#x323;" horiz-adv-x="1442" 
d="M1288 1105h-172q0 38 -7.5 82.5t-26 83t-51 63.5t-80.5 25q-85 0 -143.5 -43.5t-58.5 -133.5q0 -62 30.5 -115t76 -104t99.5 -105.5t100 -115.5t76 -134t30 -165q0 -106 -32 -193.5t-91.5 -150t-144.5 -96.5t-192 -34q-120 0 -221 33t-174 97.5t-113.5 160.5t-40.5 221
q0 112 37.5 194.5t101 142.5t148.5 100.5t183 68.5q-23 45 -33 95t-10 102q0 75 27 136.5t73.5 105t110 67.5t136.5 24q100 0 170 -29t112.5 -83t61 -130t18.5 -170zM989 429q0 62 -26 117t-66 106t-85.5 97t-83.5 88q-77 -15 -149.5 -42t-129 -70.5t-90.5 -108t-34 -154.5
q0 -169 97.5 -253t260.5 -84q141 0 223.5 80t82.5 224zM572 -350q-31 29 -31 78t31 79.5t81 30.5t81 -30.5t31 -79.5t-31 -79t-81 -30t-81 31z" />
    <glyph glyph-name="uni13B5_dotbelowcomb" unicode="&#x13b5;&#x323;" horiz-adv-x="1118" 
d="M1039 1128q0 -179 -98 -289q-100 -111 -260 -111v169q94 4 145 70.5t45 160.5q-5 94 -71.5 147t-160.5 53q-119 0 -187.5 -67.5t-68.5 -211.5v-1049h-173v1030q0 227 116.5 341.5t312.5 114.5q179 0 289 -98q111 -100 111 -260zM221 -350q-31 29 -31 78t31 79.5t81 30.5
t81 -30.5t31 -79.5t-31 -79t-81 -30t-81 31z" />
    <glyph glyph-name="uni13B6_dotbelowcomb" unicode="&#x13b6;&#x323;" horiz-adv-x="1465" 
d="M1290 406q2 -104 -46.5 -185.5t-129 -137.5t-182.5 -85t-206 -29q-129 0 -234 42.5t-181 127t-117.5 206t-41.5 281.5v225q0 315 156 489q156 177 420 177q138 0 239 -44.5t168.5 -115.5t101 -159.5t33.5 -177.5h-171q0 131 -100 235t-271 104q-183 0 -293 -131
t-110 -381v-218q0 -252 110 -381t300 -121q68 2 135 21t120 53t85 85t30 120q-4 118 -70.5 187t-231.5 79v-164h-135v481h135v-148q248 -15 365.5 -129.5t121.5 -305.5zM635 -350q-31 29 -31 78t31 79.5t81 30.5t81 -30.5t31 -79.5t-31 -79t-81 -30t-81 31z" />
    <glyph glyph-name="uni13B7_dotbelowcomb" unicode="&#x13b7;&#x323;" horiz-adv-x="1763" 
d="M1553 0h-159v1107h-10l-425 -993h-156l-426 993h-9v-1107h-158v1486h167l501 -1190h7l499 1190h169v-1486zM797 -350q-31 29 -31 78t31 79.5t81 30.5t81 -30.5t31 -79.5t-31 -79t-81 -30t-81 31z" />
    <glyph glyph-name="uni13B8_dotbelowcomb" unicode="&#x13b8;&#x323;" horiz-adv-x="1086" 
d="M885 0h-173v343h-33q-71 0 -118 20t-81.5 50t-59.5 65.5t-50 65.5t-54 50t-70 20h-57v-185h-135v481h135v-167h119q65 0 116 -42.5t94.5 -92.5t83 -93t83.5 -43h27v577q0 129 -61.5 204t-194.5 75q-46 0 -86.5 -13.5t-72 -38.5t-51 -62.5t-21.5 -85.5h-171q0 87 32.5 154
t86.5 112.5t128 68.5t155 23q212 0 320.5 -125t108.5 -331v-1030zM720 -350q-31 29 -31 78t31 79.5t81 30.5t81 -30.5t31 -79.5t-31 -79t-81 -30t-81 31z" />
    <glyph glyph-name="uni13B9_dotbelowcomb" unicode="&#x13b9;&#x323;" horiz-adv-x="1746" 
d="M1671 1014h-156q0 72 -49 108.5t-117 36.5q-36 0 -64 -39.5t-62.5 -87.5t-79 -87.5t-113.5 -39.5q-173 0 -245 163q-21 -48 -45 -94t-51 -89q52 -32 99 -85t81 -115.5t55 -129t21 -126.5q0 -98 -16.5 -182.5t-59.5 -145.5t-113.5 -96.5t-178.5 -35.5q-75 0 -134.5 28
t-101 77t-64.5 112.5t-23 134.5q0 70 10.5 128.5t32 109.5t52 101t71.5 106q-189 -13 -293 -175l-117 117q42 62 98 104.5t120.5 70t135.5 38.5t144 11q10 0 18.5 1.5t16.5 -3.5q65 96 103.5 190.5t50.5 209.5h-175v158h519v-158h-171q4 -31 13.5 -77t27 -88.5t45.5 -73
t72 -30.5q27 0 47 20t39.5 50t39.5 65.5t47 65.5t61.5 50t82.5 20q68 0 128.5 -24t104 -65.5t68.5 -100t25 -128.5zM778 441q0 40 -16.5 84.5t-44.5 86.5t-62.5 75t-67.5 52q-38 -54 -69 -98t-53 -89.5t-33.5 -97.5t-11.5 -121q0 -40 8.5 -77t28.5 -66.5t51 -47t77 -17.5
q69 0 108.5 29t58 74t22.5 101t4 112zM706 -350q-31 29 -31 78t31 79.5t81 30.5t81 -30.5t31 -79.5t-31 -79t-81 -30t-81 31z" />
    <glyph glyph-name="uni13BA_dotbelowcomb" unicode="&#x13ba;&#x323;" horiz-adv-x="1961" 
d="M1752 0h-174v693h-250v-69q0 -141 -36.5 -260.5t-109.5 -207t-184 -137.5t-261 -50t-259.5 50t-182 138.5t-108 208t-35.5 258.5v223q0 140 35.5 261.5t109 212t184 143.5t260.5 53t260 -53t183 -143.5t108.5 -212t35.5 -261.5h250v639h174v-1486zM1155 624v223
q0 100 -24 191.5t-74 163.5t-129 114.5t-189 42.5t-189.5 -42.5t-129.5 -114.5t-72.5 -163.5t-22.5 -191.5v-223q0 -100 24 -190.5t73.5 -158t128 -108t188.5 -40.5t189 39.5t129 108t74 159t24 190.5zM660 -350q-31 29 -31 78t31 79.5t81 30.5t81 -30.5t31 -79.5t-31 -79
t-81 -30t-81 31z" />
    <glyph glyph-name="uni13BB_dotbelowcomb" unicode="&#x13bb;&#x323;" horiz-adv-x="1536" 
d="M1326 0h-173v693h-768v-693h-175v1486h175v-637h768v637h173v-1486zM693 -350q-31 29 -31 78t31 79.5t81 30.5t81 -30.5t31 -79.5t-31 -79t-81 -30t-81 31z" />
    <glyph glyph-name="uni13BC_dotbelowcomb" unicode="&#x13bc;&#x323;" horiz-adv-x="1049" 
d="M874 516q0 -260 -119.5 -403.5t-329.5 -143.5q-184 0 -291 100t-124 297h171q21 -129 78 -184t161 -55q136 0 211 98t75 291q0 202 -73 311.5t-208 109.5q-73 0 -126 -28.5t-83 -88.5l-139 90q77 145 241 179v243h-172v156h518v-156h-164v-239q85 -15 154.5 -63
t118.5 -122.5t75 -173.5t26 -218zM323 -350q-31 29 -31 78t31 79.5t81 30.5t81 -30.5t31 -79.5t-31 -79t-81 -30t-81 31z" />
    <glyph glyph-name="uni13BD_dotbelowcomb" unicode="&#x13bd;&#x323;" horiz-adv-x="1436" 
d="M1365 1488l-657 -1357q-77 -162 -252 -162q-54 0 -103 14.5t-86.5 44.5t-60.5 74t-23 102v150h-173v158h519v-158h-173v-113q0 -43 27 -78.5t73 -35.5q35 0 57 20t34 49l148 314l-479 978h198l379 -774l373 774h199zM710 -350q-31 29 -31 78t31 79.5t81 30.5t81 -30.5
t31 -79.5t-31 -79t-81 -30t-81 31z" />
    <glyph glyph-name="uni13BE_dotbelowcomb" unicode="&#x13be;&#x323;" horiz-adv-x="1494" 
d="M1328 624q0 -312 -160 -485q-159 -170 -431 -170q-136 0 -244 43.5t-184 128t-116.5 206t-40.5 277.5v223q0 312 160 491t429 179q266 0 427 -179q160 -179 160 -491v-223zM1155 820v27q0 123 -30 217.5t-85.5 160t-131 100t-169.5 34.5q-92 0 -168 -33.5t-131 -99
t-85 -160t-30 -219.5v-27h830zM1155 624v42h-830v-42q0 -129 32 -222.5t87.5 -154t131 -90.5t163.5 -30q87 0 163 30t132.5 90.5t88.5 154t32 222.5zM658 -350q-31 29 -31 78t31 79.5t81 30.5t81 -30.5t31 -79.5t-31 -79t-81 -30t-81 31z" />
    <glyph glyph-name="uni13BF_dotbelowcomb" unicode="&#x13bf;&#x323;" horiz-adv-x="1299" 
d="M1170 462q0 -100 -36.5 -187.5t-101 -154t-151 -107t-186.5 -44.5q-98 -4 -189.5 25t-163 85t-115.5 136.5t-44 177.5v502h-173v156h173v404h173v-404h173v-156h-173v-475q8 -64 35 -118t73 -93.5t105.5 -61.5t123.5 -20q67 2 123 30t97.5 74t64.5 105t23 126v150h-314
v158h483v-308zM595 -350q-31 29 -31 78t31 79.5t81 30.5t81 -30.5t31 -79.5t-31 -79t-81 -30t-81 31z" />
    <glyph glyph-name="uni13C0_dotbelowcomb" unicode="&#x13c0;&#x323;" horiz-adv-x="1447" 
d="M1286 462q0 -71 -27 -157t-91.5 -161t-170.5 -125t-262 -50q-288 0 -435.5 177t-147.5 497v208q0 312 160 489q158 177 429 177q243 0 385 -137q139 -137 156 -344h-171q-20 163 -124.5 243t-249.5 80q-92 0 -167 -31t-130 -94.5t-85 -159.5t-30 -223v-208
q0 -245 104 -380.5t304 -135.5q164 0 274 94q111 93 111 241v150h-398v158h566v-308zM643 -350q-31 29 -31 78t31 79.5t81 30.5t81 -30.5t31 -79.5t-31 -79t-81 -30t-81 31z" />
    <glyph glyph-name="uni13C1_dotbelowcomb" unicode="&#x13c1;&#x323;" horiz-adv-x="1553" 
d="M1469 0h-177l-322 945q-17 48 -32.5 93.5t-32.5 93.5q-10 27 -22.5 61.5t-30 65.5t-42.5 52t-63 21q-37 0 -60 -23q-21 -23 -37.5 -79t-30 -121.5t-23 -126t-15.5 -89.5q-27 -156 -54 -309t-57 -309q-10 -61 -31 -118t-54 -103t-83 -74t-119 -28q-89 0 -173 36l25 137
q52 -23 111 -23q41 0 69.5 20t45 49t26 65.5t15.5 69.5q29 162 56 321.5t56 321.5q17 87 35.5 173.5t35.5 174.5q23 102 99 158t178 56q89 0 153.5 -59.5t110.5 -144.5t76 -182t55 -172zM710 -350q-31 29 -31 78t31 79.5t81 30.5t81 -30.5t31 -79.5t-31 -79t-81 -30t-81 31z
" />
    <glyph glyph-name="uni13C2_dotbelowcomb" unicode="&#x13c2;&#x323;" horiz-adv-x="1290" 
d="M1153 0h-173v408q0 64 -22.5 121.5t-62.5 101t-95 69.5t-117 26q-65 0 -119 -26t-94.5 -69.5t-63.5 -101t-23 -121.5v-408h-173v1486h173v-737q67 69 134.5 100t165.5 36q97 4 182.5 -33.5t150 -103t101 -154t36.5 -186.5v-408zM618 -350q-31 29 -31 78t31 79.5t81 30.5
t81 -30.5t31 -79.5t-31 -79t-81 -30t-81 31z" />
    <glyph glyph-name="uni13C3_dotbelowcomb" unicode="&#x13c3;&#x323;" horiz-adv-x="1240" 
d="M1161 0h-1040v125l807 1192v13h-778v156h993v-123l-802 -1194v-11h820v-158zM566 -350q-31 29 -31 78t31 79.5t81 30.5t81 -30.5t31 -79.5t-31 -79t-81 -30t-81 31z" />
    <glyph glyph-name="uni13C4_dotbelowcomb" unicode="&#x13c4;&#x323;" horiz-adv-x="1136" 
d="M935 0h-173v453h-256q-183 0 -290 98q-85 79 -104 193h-102v133h375v-133h-96q25 -62 83.5 -97.5t133.5 -35.5h256v438q0 144 -69 211.5t-187 67.5q-77 0 -136.5 -36.5t-82.5 -103.5h98v-133h-375v133h100q19 119 106 200q111 98 290 98q195 0 312 -114.5t117 -341.5
v-1030zM762 -350q-31 29 -31 78t31 79.5t81 30.5t81 -30.5t31 -79.5t-31 -79t-81 -30t-81 31z" />
    <glyph glyph-name="uni13C5_dotbelowcomb" unicode="&#x13c5;&#x323;" horiz-adv-x="1969" 
d="M1879 1230q0 -54 -9 -113.5t-34 -111.5t-69 -85t-110 -33q-46 0 -87.5 13.5t-73.5 46.5q-41 -62 -82.5 -126.5t-85.5 -125.5v-71q0 -141 -36.5 -260.5t-109.5 -207t-184 -137.5t-261 -50t-259.5 50t-182 138.5t-108 208t-35.5 258.5v223q0 140 36.5 261.5t109 212
t183 143.5t260.5 53q133 0 238 -44.5t179 -124.5t116.5 -189.5t51.5 -236.5l102 154q-17 71 -17 135v19h127q0 -27 2 -63.5t12.5 -69.5t33.5 -56t60 -23q38 0 59.5 23t32 56t14 69.5t3.5 63.5h124zM1155 624v223q0 98 -24 190.5t-74 164.5t-129 114.5t-189 42.5
t-189.5 -42.5t-129.5 -114.5t-72.5 -164.5t-22.5 -190.5v-223q0 -100 22.5 -189.5t72.5 -158t129.5 -109t189.5 -40.5t189 40.5t129 108t74 158t24 190.5zM656 -350q-31 29 -31 78t31 79.5t81 30.5t81 -30.5t31 -79.5t-31 -79t-81 -30t-81 31z" />
    <glyph glyph-name="uni13C6_dotbelowcomb" unicode="&#x13c6;&#x323;" horiz-adv-x="1213" 
d="M1136 0h-1084v156h456v1174h-456v156h1084v-156h-455v-1174h455v-156zM504 -350q-31 29 -31 78t31 79.5t81 30.5t81 -30.5t31 -79.5t-31 -79t-81 -30t-81 31z" />
    <glyph glyph-name="uni13C7_dotbelowcomb" unicode="&#x13c7;&#x323;" horiz-adv-x="1675" 
d="M641 710h185v-414q0 -44 24 -76.5t61.5 -52t81 -30t81.5 -10.5q141 0 208 137.5t67 432.5q0 136 -39.5 256.5t-101 211t-137.5 142.5t-149 52q-144 0 -193.5 -64.5t-49.5 -203.5h-186q0 127 38.5 209t100 131t137.5 67.5t151 18.5q169 0 283 -83t184 -213t100 -287.5
t30 -304.5q0 -121 -18.5 -238.5t-67.5 -211.5t-135.5 -152t-221.5 -58q-192 0 -323 106q-125 -106 -289 -106q-225 0 -338.5 115.5t-113.5 367.5q0 79 21 140.5t54.5 110t75 86t80.5 68.5l69 -147q-19 -19 -41.5 -40t-41.5 -51t-32.5 -73.5t-13.5 -106.5q0 -146 70 -229
t213 -83q25 0 55 12.5t57.5 35.5t46 54t18.5 67v414zM677 -350q-31 29 -31 78t31 79.5t81 30.5t81 -30.5t31 -79.5t-31 -79t-81 -30t-81 31z" />
    <glyph glyph-name="uni13C8_dotbelowcomb" unicode="&#x13c8;&#x323;" horiz-adv-x="1463" 
d="M1342 1109q0 -185 -60 -262t-177 -77q-33 0 -62 4t-56.5 19t-53.5 44t-53 79l119 112q19 -35 31.5 -56t21.5 -31.5t17.5 -13.5t21.5 -3q18 0 31.5 8.5t24 29t16 56t5.5 89.5q0 50 -17 95t-52 80t-91.5 56t-133.5 21q-46 0 -90.5 -24t-90.5 -55q169 -254 169 -633
q0 -183 -17 -312t-53 -210t-92.5 -118.5t-133.5 -37.5q-79 0 -135 37.5t-91.5 118.5t-52 210t-16.5 312q0 396 189 643q-35 25 -65.5 47t-59.5 22q-58 0 -107 -105t-49 -301h-169q0 140 24 245t68 175.5t103 106t130 35.5q129 0 246 -104q68 50 141 77t152 27
q121 0 209.5 -30t146.5 -84t85 -129t27 -163zM689 647q0 152 -30 277t-85 225q-62 -96 -97.5 -221t-35.5 -281q0 -162 13.5 -263t32.5 -158t40.5 -78t38.5 -21t38.5 21t40.5 78t31.5 158t12.5 263zM500 -350q-31 29 -31 78t31 79.5t81 30.5t81 -30.5t31 -79.5t-31 -79
t-81 -30t-81 31z" />
    <glyph glyph-name="uni13C9_dotbelowcomb" unicode="&#x13c9;&#x323;" horiz-adv-x="2229" 
d="M2171 1299q0 -133 -60.5 -201t-176.5 -114l-50 142q66 21 92 60.5t26 108.5q0 41 -32 52.5t-66 11.5q-16 0 -46.5 -32t-68 -70.5t-79 -71t-78.5 -32.5q-61 0 -107.5 21t-82.5 71l-356 -1245h-168l-341 1207q-15 -48 -35 -91.5t-49 -77t-69.5 -53t-96.5 -19.5
q-67 0 -122 20.5t-96.5 60t-66.5 93t-32 119.5l125 73q4 -42 18 -80.5t37.5 -67.5t57 -47.5t79.5 -18.5q48 0 77 45.5t44.5 106t21 123t5.5 93.5h195l329 -1276h8l325 1276h198q0 -23 3 -54t12.5 -59t28 -48t51.5 -20q19 0 52.5 32t74 71t83 71t80.5 32q54 0 101 -10.5
t81 -35.5t54 -65.5t20 -100.5zM916 -350q-31 29 -31 78t31 79.5t81 30.5t81 -30.5t31 -79.5t-31 -79t-81 -30t-81 31z" />
    <glyph glyph-name="uni13CA_dotbelowcomb" unicode="&#x13ca;&#x323;" horiz-adv-x="1675" 
d="M641 462q0 68 19.5 131.5t58 112.5t95.5 78.5t131 29.5q49 0 90.5 -14t75.5 -39t62 -59.5t51 -75.5l-140 -91q-11 25 -26 47.5t-34.5 39.5t-43.5 26.5t-54 9.5q-45 0 -70 -31.5t-38 -76t-16 -92t-3 -79.5q0 -60 21.5 -107t58.5 -79.5t87 -49t108 -16.5q67 0 113 29t77 77
t48 108.5t25 124t10 124t2 107.5q0 136 -42 264q-13 39 -33 83.5t-47 89t-60.5 85t-72 72t-82 50t-90.5 18.5q-72 0 -119 -16.5t-74.5 -49.5t-38.5 -83.5t-11 -118.5h-186q0 103 28.5 182.5t83.5 133.5t134 82t181 28q115 0 204 -40t155.5 -107.5t111.5 -156.5t73 -187.5
t40.5 -201t12.5 -195.5q0 -75 -7 -153t-25 -151t-50 -138t-81 -113.5t-118 -76.5t-162 -28q-88 0 -171 24.5t-152 81.5q-62 -53 -135 -79.5t-154 -26.5q-121 0 -206.5 31.5t-140 93t-80 151.5t-25.5 207q0 70 16.5 126.5t47 104.5t73 90.5t94.5 83.5l69 -147
q-34 -33 -58.5 -60.5t-40 -57t-23 -66t-7.5 -87.5q0 -70 16.5 -127.5t51 -98.5t88 -63.5t127.5 -22.5q29 0 64.5 14.5t66 38.5t51 54t20.5 62q0 16 -4 35t-8.5 40t-8.5 44t-4 47zM664 -350q-31 29 -31 78t31 79.5t81 30.5t81 -30.5t31 -79.5t-31 -79t-81 -30t-81 31z" />
    <glyph glyph-name="uni13CB_dotbelowcomb" unicode="&#x13cb;&#x323;" horiz-adv-x="1286" 
d="M1149 298q0 -84 -49 -146.5t-123 -103t-157 -61t-152 -20.5q-98 0 -190.5 28t-164.5 82t-116.5 136.5t-44.5 188.5q0 139 75 230.5t202 137.5q-113 52 -170 144.5t-57 211.5q0 94 37.5 166.5t101 122.5t144.5 76t169 26q83 0 163 -21.5t143.5 -67.5t104 -113.5
t44.5 -161.5h-170q-7 52 -33 90.5t-64.5 64.5t-85 38.5t-94.5 12.5q-56 0 -109 -16.5t-93 -48t-63.5 -77t-23.5 -106.5q0 -60 22.5 -110t62 -85.5t91.5 -54t113 -18.5h106v-154h-117q-62 0 -121.5 -17.5t-105 -53t-72.5 -87.5t-27 -121q0 -73 28 -127t75 -88.5t108 -51
t128 -16.5q33 0 86 6t103 22t86.5 45t36.5 75q0 39 -23 58t-55 25t-68.5 5t-61.5 -1v171h69q52 0 107 -13.5t101 -43t75 -74t29 -104.5zM570 -350q-31 29 -31 78t31 79.5t81 30.5t81 -30.5t31 -79.5t-31 -79t-81 -30t-81 31z" />
    <glyph glyph-name="uni13CC_dotbelowcomb" unicode="&#x13cc;&#x323;" horiz-adv-x="1501" 
d="M1309 516q0 -243 -154 -397q-154 -150 -404 -150q-125 0 -226.5 39.5t-175.5 112.5t-114.5 175t-40.5 224v966h172v-666h770v666h173v-970zM1136 516v150h-770v-150q0 -177 104 -283t281 -106q88 0 158.5 28t121.5 79t78 123t27 159zM666 -350q-31 29 -31 78t31 79.5
t81 30.5t81 -30.5t31 -79.5t-31 -79t-81 -30t-81 31z" />
    <glyph glyph-name="uni13CD_dotbelowcomb" unicode="&#x13cd;&#x323;" horiz-adv-x="1859" 
d="M1696 629q0 -148 -37.5 -270t-110 -208t-179 -134t-241.5 -48q-200 0 -312.5 109t-134.5 326l-80 -42q-2 -89 -25.5 -162t-63.5 -124t-93 -79t-115 -28q-63 0 -116 28t-92.5 79t-62.5 125t-23 165q0 90 23 166t62.5 129t94 83t114.5 30q100 0 176 -70.5t105 -199.5l91 45
v275h173v-237q0 -81 8.5 -163.5t37.5 -148t85 -107t150 -41.5q85 0 158 34.5t126 105t82.5 178t29.5 252.5q0 144 -35.5 265.5t-102 209t-162.5 137.5t-214 50q-55 0 -116 -12.5t-118.5 -38.5t-107.5 -65.5t-83 -95.5l-137 102q47 64 114 114t141.5 84.5t154 52t149.5 17.5
q175 0 304 -61.5t214.5 -177t127 -279.5t41.5 -370zM431 366q0 52 -10.5 99t-27 81.5t-40.5 55t-49 20.5q-38 0 -61.5 -30t-38.5 -70.5t-20 -84.5t-5 -71q0 -104 36.5 -171.5t88.5 -67.5q54 0 90.5 67.5t36.5 171.5zM687 -350q-31 29 -31 78t31 79.5t81 30.5t81 -30.5
t31 -79.5t-31 -79t-81 -30t-81 31z" />
    <glyph glyph-name="uni13CE_dotbelowcomb" unicode="&#x13ce;&#x323;" horiz-adv-x="1342" 
d="M1228 468h-391v-468h-167v468h-556v156l465 862h258v-864h391v-154zM670 622v708h-8l-369 -695v-13h377zM672 -350q-31 29 -31 78t31 79.5t81 30.5t81 -30.5t31 -79.5t-31 -79t-81 -30t-81 31z" />
    <glyph glyph-name="uni13CF_dotbelowcomb" unicode="&#x13cf;&#x323;" horiz-adv-x="1342" 
d="M1211 458q0 -206 -129 -331q-127 -127 -339 -127h-533v1486h175v-572h358q210 0 339 -125t129 -331zM1032 458q0 94 -28 153t-81 91.5t-130 44t-175 11.5h-233v-602h352q143 0 219 79t76 223zM583 -350q-31 29 -31 78t31 79.5t81 30.5t81 -30.5t31 -79.5t-31 -79t-81 -30
t-81 31z" />
    <glyph glyph-name="uni13D0_dotbelowcomb" unicode="&#x13d0;&#x323;" horiz-adv-x="1051" 
d="M907 597h-141q0 159 -94 159q-39 0 -123 -55v-701h-181v577q-35 -23 -66 -33.5t-54 -10.5q-127 0 -182.5 76t-55.5 232h142q0 -158 94 -158q37 0 122 56v747h181v-624q73 45 119 45q129 0 184 -77t55 -233zM375 -350q-31 29 -31 78t31 79.5t81 30.5t81 -30.5t31 -79.5
t-31 -79t-81 -30t-81 31z" />
    <glyph glyph-name="uni13D1_dotbelowcomb" unicode="&#x13d1;&#x323;" horiz-adv-x="1411" 
d="M1290 995q0 -58 -23.5 -111.5t-66.5 -93t-101 -62t-127 -22.5v164q62 0 105 35.5t43 89.5q0 62 -35.5 112t-120.5 50q-23 0 -63.5 -36.5t-88.5 -81t-100 -86t-98 -54.5q-35 -48 -78 -85.5t-101 -80.5l-85 -65q81 -31 147.5 -70.5t114.5 -86.5t74 -99t26 -106
q0 -71 -21 -132.5t-60.5 -106t-97.5 -70.5t-133 -26t-142 29t-118 80t-80 121t-29 153q0 118 31.5 194t84.5 134.5t122.5 108.5t146.5 116q-54 15 -95.5 49.5t-71.5 80t-46 97.5t-16 104q0 59 21 110t56.5 88.5t83 59t102.5 21.5q64 0 114 -25t84.5 -68.5t52 -101
t17.5 -119.5q0 -8 -2 -25t-2 -23q25 25 51 55t55 57.5t63.5 45t80.5 17.5q72 0 132.5 -27t103.5 -73t66.5 -107.5t23.5 -127.5zM545 1230q0 62 -26 95.5t-65 33.5q-48 0 -73 -36.5t-25 -84.5q0 -77 40.5 -131t121.5 -58q15 35 21 87t6 94zM541 306q0 73 -80 133.5t-222 95.5
q-37 -88 -37 -181q0 -104 47 -165.5t146 -61.5q77 0 111.5 50t34.5 129zM327 -350q-31 29 -31 78t31 79.5t81 30.5t81 -30.5t31 -79.5t-31 -79t-81 -30t-81 31z" />
    <glyph glyph-name="uni13D2_dotbelowcomb" unicode="&#x13d2;&#x323;" horiz-adv-x="1407" 
d="M1030 1034q0 72 -21.5 127t-61.5 92.5t-98 57t-131 19.5h-333v-1330h-175v1486h529q124 0 213 -36.5t146 -97t84 -140t27 -165.5q0 -83 -21 -150t-58 -118.5t-87.5 -88t-110.5 -57.5l304 -633h-200l-347 751q79 0 142 18.5t107.5 54.5t68 88.5t23.5 121.5zM608 -350
q-31 29 -31 78t31 79.5t81 30.5t81 -30.5t31 -79.5t-31 -79t-81 -30t-81 31z" />
    <glyph glyph-name="uni13D3_dotbelowcomb" unicode="&#x13d3;&#x323;" horiz-adv-x="1143" 
d="M1039 327q0 -160 -111 -260q-110 -98 -289 -98q-196 0 -312.5 114.5t-116.5 341.5v1061h173v-1080q0 -144 68.5 -211.5t187.5 -67.5q94 0 160.5 53t70.5 147h169zM547 -350q-31 29 -31 78t31 79.5t81 30.5t81 -30.5t31 -79.5t-31 -79t-81 -30t-81 31z" />
    <glyph glyph-name="uni13D4_dotbelowcomb" unicode="&#x13d4;&#x323;" horiz-adv-x="1931" 
d="M1821 1486l-543 -1486h-169l-174 479l-175 -479h-169l-541 1486h196l426 -1276h9l168 506l-281 770h196l171 -512l170 512h198l-281 -770l169 -506h8l424 1276h198zM851 -350q-31 29 -31 78t31 79.5t81 30.5t81 -30.5t31 -79.5t-31 -79t-81 -30t-81 31z" />
    <glyph glyph-name="uni13D5_dotbelowcomb" unicode="&#x13d5;&#x323;" horiz-adv-x="1455" 
d="M1332 624h-221q63 -85 63 -214q0 -212 -156 -327q-152 -114 -394 -114q-137 0 -243 39.5t-165 103.5q-116 132 -120 286h175q12 -119 110 -195t266 -76q158 0 254 73t96 198q0 93 -59.5 151.5t-186.5 91.5l-266 71q-150 39 -246.5 133t-96.5 252q0 102 42.5 181t114 134
t162.5 83.5t188 25.5q73 0 146 -15.5t135.5 -47.5t113.5 -81t80 -118h208v-158h-518v158h104q-42 48 -110.5 76t-162.5 28q-145 0 -236 -66.5t-91 -187.5q0 -170 211 -227l260 -70q27 -9 52 -16t48 -18h443v-154zM541 -350q-31 29 -31 78t31 79.5t81 30.5t81 -30.5t31 -79.5
t-31 -79t-81 -30t-81 31z" />
    <glyph glyph-name="uni13D6_dotbelowcomb" unicode="&#x13d6;&#x323;" horiz-adv-x="1428" 
d="M1295 327q0 -160 -111 -260q-110 -98 -289 -98q-196 0 -312.5 114.5t-116.5 341.5v905h-456v156h629v-1080q0 -144 68.5 -211.5t187.5 -67.5q94 0 161.5 54t69.5 146q2 46 -11.5 87.5t-40.5 72.5t-64.5 50t-83.5 21v168q88 0 156.5 -31t115.5 -85t72 -127t25 -156z
M801 -350q-31 29 -31 78t31 79.5t81 30.5t81 -30.5t31 -79.5t-31 -79t-81 -30t-81 31z" />
    <glyph glyph-name="uni13D7_dotbelowcomb" unicode="&#x13d7;&#x323;" horiz-adv-x="1215" 
d="M1009 0h-185v670q-110 -195 -227 -345q-50 -65 -106 -125.5t-115.5 -107t-120.5 -73.5t-120 -23q-10 2 -21 2h-22.5t-22.5 2v158q6 -2 19.5 -2h30.5q16 0 37 -2q46 -2 99 32.5t109 91.5t112.5 131t106.5 151q118 181 241 414v512h185v-1486zM841 -350q-31 29 -31 78
t31 79.5t81 30.5t81 -30.5t31 -79.5t-31 -79t-81 -30t-81 31z" />
    <glyph glyph-name="uni13D8_dotbelowcomb" unicode="&#x13d8;&#x323;" horiz-adv-x="1205" 
d="M999 0h-175v670q-110 -193 -227 -343q-50 -65 -106 -126.5t-115.5 -108t-120.5 -73.5t-120 -23q-10 2 -21 2h-22.5t-22.5 2v158q6 -2 19.5 -2h30.5q16 0 37 -2q46 -2 99 32.5t109 91.5t112.5 131t106.5 151q118 181 241 414v354h-693v158h868v-1486zM826 -350
q-31 29 -31 78t31 79.5t81 30.5t81 -30.5t31 -79.5t-31 -79t-81 -30t-81 31z" />
    <glyph glyph-name="uni13D9_dotbelowcomb" unicode="&#x13d9;&#x323;" horiz-adv-x="1413" 
d="M1303 1486l-543 -1486h-169l-541 1486h196l426 -1276h9l424 1276h198zM597 -350q-31 29 -31 78t31 79.5t81 30.5t81 -30.5t31 -79.5t-31 -79t-81 -30t-81 31z" />
    <glyph glyph-name="uni13DA_dotbelowcomb" unicode="&#x13da;&#x323;" horiz-adv-x="1342" 
d="M1174 410q0 -212 -156 -327q-152 -114 -394 -114q-137 0 -243 39.5t-165 103.5q-116 132 -120 286h175q12 -119 110 -195t266 -76q158 0 254 73t96 198q0 93 -59.5 151.5t-186.5 91.5l-266 71q-150 39 -246.5 133t-96.5 252q0 102 42.5 181t114 134t162.5 83.5t188 25.5
q92 0 181.5 -25t161.5 -76t117.5 -130t49.5 -189h-175q-12 119 -97.5 190.5t-241.5 71.5q-145 0 -236 -66.5t-91 -187.5q0 -170 211 -227l260 -70q189 -52 287 -145t98 -257zM560 -350q-31 29 -31 78t31 79.5t81 30.5t81 -30.5t31 -79.5t-31 -79t-81 -30t-81 31z" />
    <glyph glyph-name="uni13DB_dotbelowcomb" unicode="&#x13db;&#x323;" horiz-adv-x="1798" 
d="M1700 1132q0 -73 -21.5 -141.5t-62 -124.5t-99 -94.5t-133.5 -53.5l-31 162q87 19 133 83.5t46 152.5q0 45 -13.5 88t-36.5 77t-57.5 55t-73.5 21q-46 0 -97 -30t-93.5 -87.5t-71 -139.5t-30.5 -184l-160 52q2 31 6 58q2 23 4.5 46t2.5 37q0 65 -21 112t-54.5 77
t-74 44.5t-79.5 14.5q-88 0 -152.5 -49t-112.5 -136q131 -15 224 -75.5t152 -147.5t87.5 -194.5t28.5 -215.5q0 -114 -28.5 -218.5t-80.5 -182.5t-123.5 -123.5t-161.5 -45.5q-87 0 -155 56t-114.5 151t-70.5 217.5t-24 255.5q0 161 28 316t91.5 277.5t164.5 198.5t247 76
q125 0 220.5 -55t143.5 -155q66 100 141 155t163 55q83 0 148.5 -31t110.5 -84t67.5 -123t22.5 -147zM741 552q0 89 -23 169t-70 140.5t-118.5 100t-171.5 47.5q-19 -74 -27 -165t-8 -199q0 -106 14.5 -200.5t41.5 -165.5t64.5 -112.5t83.5 -41.5q41 0 79.5 36.5t69 95.5
t48 136t17.5 159zM448 -350q-31 29 -31 78t31 79.5t81 30.5t81 -30.5t31 -79.5t-31 -79t-81 -30t-81 31z" />
    <glyph glyph-name="uni13DC_dotbelowcomb" unicode="&#x13dc;&#x323;" horiz-adv-x="1659" 
d="M1519 244q0 -75 -22.5 -127t-63.5 -84.5t-98 -47t-124 -14.5q-145 0 -223 96.5t-78 294.5q0 142 131 310l-204 161l-204 -161q131 -172 131 -310q0 -198 -78 -294.5t-224 -96.5q-73 0 -130 12.5t-97.5 42.5t-61.5 83t-21 135q0 93 47 182.5t107 161.5t116.5 121t77.5 65
l216 163q-158 149 -158 278q0 142 77 221t200 79q122 0 200 -79t78 -221q0 -129 -156 -278q34 -30 75.5 -61t84 -64.5t83 -64.5t72.5 -60q116 -102 181.5 -210.5t65.5 -232.5zM945 1218q0 64 -30 102.5t-80 38.5q-48 0 -77.5 -38.5t-29.5 -102.5q0 -38 30.5 -81.5
t78.5 -93.5q48 48 78 91.5t30 83.5zM1349 244q0 72 -46 149t-125 156q-46 -54 -72 -102.5t-26 -96.5q0 -111 44 -167t98 -56q58 0 92.5 27t34.5 90zM593 350q0 48 -27 96.5t-71 102.5q-81 -79 -126.5 -156t-45.5 -149q0 -63 34 -90t93 -27q54 0 98.5 56t44.5 167zM760 -350
q-31 29 -31 78t31 79.5t81 30.5t81 -30.5t31 -79.5t-31 -79t-81 -30t-81 31z" />
    <glyph glyph-name="uni13DD_dotbelowcomb" unicode="&#x13dd;&#x323;" horiz-adv-x="1168" 
d="M1078 0h-868v1020q0 227 117.5 341.5t313.5 114.5q179 0 289 -98q111 -100 111 -260h-169q-4 93 -70.5 146t-160.5 53q-119 0 -187.5 -67.5t-68.5 -210.5v-881h693v-158zM545 -350q-31 29 -31 78t31 79.5t81 30.5t81 -30.5t31 -79.5t-31 -79t-81 -30t-81 31z" />
    <glyph glyph-name="uni13DE_dotbelowcomb" unicode="&#x13de;&#x323;" horiz-adv-x="1101" 
d="M1078 0h-868v1486h175v-1328h693v-158zM545 -350q-31 29 -31 78t31 79.5t81 30.5t81 -30.5t31 -79.5t-31 -79t-81 -30t-81 31z" />
    <glyph glyph-name="uni13DF_dotbelowcomb" unicode="&#x13df;&#x323;" horiz-adv-x="1397" 
d="M1270 439q0 -75 -31.5 -158t-97 -153t-168.5 -114.5t-247 -44.5q-268 0 -421 168.5t-153 488.5v225q0 315 156 489q156 177 420 177q138 0 239 -45q72 -32 128 -77v122h175v-497h-171q0 131 -100 235t-271 104q-183 0 -293 -131t-110 -381v-218q0 -252 108 -377t302 -125
q87 0 154.5 24t114.5 66.5t71 99t24 122.5h171zM654 -350q-31 29 -31 78t31 79.5t81 30.5t81 -30.5t31 -79.5t-31 -79t-81 -30t-81 31z" />
    <glyph glyph-name="uni13E0_dotbelowcomb" unicode="&#x13e0;&#x323;" horiz-adv-x="1438" 
d="M1299 631h-213v-261q0 -189 -93.5 -295t-247.5 -106q-152 0 -246.5 99t-94.5 277v286q-394 8 -394 301q0 80 20 145.5t57.5 113t90.5 73.5t118 26q58 0 109 -25t88.5 -65.5t59 -94.5t21.5 -112v-206h342v701h170v-701h213v-156zM404 789v158q0 94 -28 142.5t-83 48.5
q-58 0 -85 -56t-27 -150q0 -66 52 -100.5t171 -42.5zM916 439v192h-342v-250q0 -135 42 -194.5t131 -59.5q88 0 128.5 82t40.5 230zM658 -350q-31 29 -31 78t31 79.5t81 30.5t81 -30.5t31 -79.5t-31 -79t-81 -30t-81 31z" />
    <glyph glyph-name="uni13E1_dotbelowcomb" unicode="&#x13e1;&#x323;" horiz-adv-x="1742" 
d="M1603 1138q0 -85 -24 -158t-66 -126t-96 -83t-116 -30l-31 187q37 0 67 18t52 47t34.5 66.5t12.5 76.5q0 117 -66.5 169t-164.5 52q-42 0 -85.5 -20t-89.5 -45q231 -268 231 -645q0 -347 -100 -512.5t-264 -165.5t-264 165.5t-100 512.5q0 385 231 645q-46 25 -88.5 45
t-84.5 20q-100 0 -160.5 -83t-74.5 -233h173v-131h-519v131h167q8 97 35 183.5t77 151t125 102t177 37.5q79 0 155 -27t151 -77q73 50 150 77t158 27q189 0 293.5 -103t104.5 -274zM1093 647q0 169 -52 302t-144 237q-94 -104 -146 -237t-52 -302q0 -156 23 -257t55.5 -159
t65.5 -81t54 -23q17 0 50 21t65.5 78t56.5 158t24 263zM816 -350q-31 29 -31 78t31 79.5t81 30.5t81 -30.5t31 -79.5t-31 -79t-81 -30t-81 31z" />
    <glyph glyph-name="uni13E2_dotbelowcomb" unicode="&#x13e2;&#x323;" horiz-adv-x="1320" 
d="M1211 1028q0 -206 -129 -331t-339 -125h-358v-572h-175v1486h533q212 0 339 -127q129 -125 129 -331zM1032 1028q0 144 -76 223t-219 79h-352v-602h233q98 0 175 11.5t130 44t81 92t28 152.5zM227 -350q-31 29 -31 78t31 79.5t81 30.5t81 -30.5t31 -79.5t-31 -79t-81 -30
t-81 31z" />
    <glyph glyph-name="uni13E3_dotbelowcomb" unicode="&#x13e3;&#x323;" horiz-adv-x="1424" 
d="M1324 916h-410v170h166q-35 142 -116.5 207.5t-235.5 65.5q-183 0 -293 -131t-110 -381v-218q0 -252 108 -377t302 -125q87 0 154.5 24t114.5 66.5t71 99t24 122.5h171q0 -75 -31.5 -158t-97 -153t-168.5 -114.5t-247 -44.5q-268 0 -421 168.5t-153 488.5v225
q0 315 156 489q156 177 420 177q221 2 356.5 -101t183.5 -330h56v-170zM654 -350q-31 29 -31 78t31 79.5t81 30.5t81 -30.5t31 -79.5t-31 -79t-81 -30t-81 31z" />
    <glyph glyph-name="uni13E4_dotbelowcomb" unicode="&#x13e4;&#x323;" horiz-adv-x="1413" 
d="M1303 1486l-543 -1486h-252v1330h-456v156h629v-1276l424 1276h198zM562 -350q-31 29 -31 78t31 79.5t81 30.5t81 -30.5t31 -79.5t-31 -79t-81 -30t-81 31z" />
    <glyph glyph-name="uni13E5_dotbelowcomb" unicode="&#x13e5;&#x323;" horiz-adv-x="1623" 
d="M1546 995l-120 -71q-9 25 -22.5 52t-32 48t-42.5 34.5t-53 13.5q-42 0 -84.5 -19t-78.5 -39l-60 -36v-978h-173v878l-497 -287v-591h-173v1486h173v-697l647 374q54 32 115.5 54.5t126.5 22.5q52 0 96.5 -20.5t80 -55t60.5 -78t37 -91.5zM560 -350q-31 29 -31 78t31 79.5
t81 30.5t81 -30.5t31 -79.5t-31 -79t-81 -30t-81 31z" />
    <glyph glyph-name="uni13E6_dotbelowcomb" unicode="&#x13e6;&#x323;" horiz-adv-x="1432" 
d="M1290 0h-222l-496 735l-187 -204v-531h-175v1486h175v-726h6l660 726h208l-558 -631zM520 -350q-31 29 -31 78t31 79.5t81 30.5t81 -30.5t31 -79.5t-31 -79t-81 -30t-81 31z" />
    <glyph glyph-name="uni13E7_dotbelowcomb" unicode="&#x13e7;&#x323;" horiz-adv-x="1039" 
d="M839 425q0 -227 -116.5 -341.5t-312.5 -114.5q-179 0 -289 98q-111 100 -111 260v214q0 160 111 260q110 98 289 98q152 0 256 -69v656h173v-1061zM666 406v56q0 144 -68.5 211.5t-187.5 67.5q-48 0 -89.5 -13.5t-73 -39.5t-50 -63.5t-18.5 -83.5v-214q0 -46 18.5 -83.5
t50 -63.5t73 -39.5t89.5 -13.5q119 0 187.5 67.5t68.5 211.5zM337 -350q-31 29 -31 78t31 79.5t81 30.5t81 -30.5t31 -79.5t-31 -79t-81 -30t-81 31z" />
    <glyph glyph-name="uni13E8_dotbelowcomb" unicode="&#x13e8;&#x323;" horiz-adv-x="1807" 
d="M1698 1330l-243 -381l-167 248l-143 -235q0 64 -32.5 135t-88.5 129t-132 95.5t-164 37.5q-183 0 -293 -131t-110 -381v-218q0 -252 108 -377t302 -125q89 0 164 38.5t129 97t84.5 128t30.5 133.5l143 -235l167 248l243 -381l-95 -52l-148 227l-167 -248l-104 171
q-131 -285 -456 -285q-268 0 -421 168.5t-153 488.5v225q0 315 156 489q156 177 420 177q325 0 456 -285l104 171l167 -248l148 227zM635 -350q-31 29 -31 78t31 79.5t81 30.5t81 -30.5t31 -79.5t-31 -79t-81 -30t-81 31z" />
    <glyph glyph-name="uni13E9_dotbelowcomb" unicode="&#x13e9;&#x323;" horiz-adv-x="1586" 
d="M1519 -21q-41 -10 -106 -10q-193 0 -262 158q-65 -69 -165.5 -113.5t-250.5 -44.5q-288 0 -435.5 177t-147.5 497v208q0 312 160 489q158 177 429 177q243 0 385 -137q139 -137 156 -344h-171q-20 163 -124.5 243t-249.5 80q-92 0 -167 -31t-130 -94.5t-85 -159.5
t-30 -223v-208q0 -245 104 -380.5t304 -135.5q164 0 274 94q109 93 109 241v150h-174v158h519v-158h-175v-269q0 -120 35.5 -175.5t125.5 -55.5q43 0 72 7v-140zM656 -350q-31 29 -31 78t31 79.5t81 30.5t81 -30.5t31 -79.5t-31 -79t-81 -30t-81 31z" />
    <glyph glyph-name="uni13EA_dotbelowcomb" unicode="&#x13ea;&#x323;" horiz-adv-x="1877" 
d="M1682 910q0 -261 -53 -440t-144 -290t-211.5 -161t-257.5 -50q-98 0 -183.5 17.5t-162.5 71.5q-60 -52 -118.5 -70.5t-116.5 -18.5q-94 0 -172 34t-134 96.5t-87.5 150t-31.5 193.5h169q0 -79 21 -137t55 -98.5t79 -60.5t93 -20q25 0 53 14.5t63 37.5q-193 233 -193 637
q0 364 69.5 532.5t225.5 168.5q165 0 259.5 -174.5t94.5 -526.5q0 -81 -14.5 -164.5t-42.5 -164.5t-67.5 -158t-87.5 -142q54 -33 111 -46.5t118 -13.5q64 0 137 23t139.5 83t119.5 166.5t76 272.5q-114 31 -189 75t-120 105.5t-63.5 143.5t-18.5 190q0 59 16.5 117t50 106
t82.5 78t113 30q96 0 158.5 -34t99 -108t51 -189.5t14.5 -275.5zM1511 910q0 241 -36.5 344t-98.5 103q-46 0 -77 -58.5t-31 -157.5q0 -117 50.5 -186.5t190.5 -111.5q0 10 1 32t1 35zM828 816q0 160 -21.5 264t-51 165.5t-60.5 86.5t-50 25q-16 0 -38 -24t-41 -85.5
t-32.5 -165.5t-13.5 -266q0 -158 37.5 -284t102.5 -220q35 50 65.5 113.5t53 130t36 134.5t13.5 126zM593 -350q-31 29 -31 78t31 79.5t81 30.5t81 -30.5t31 -79.5t-31 -79t-81 -30t-81 31z" />
    <glyph glyph-name="uni13EB_dotbelowcomb" unicode="&#x13eb;&#x323;" horiz-adv-x="1494" 
d="M1328 624q0 -312 -160 -485q-159 -170 -431 -170q-136 0 -244 43.5t-184 128t-116.5 206t-40.5 277.5v223q0 312 160 491t429 179q266 0 427 -179q160 -179 160 -491v-223zM1155 624v223q0 123 -30 217.5t-85.5 160t-131 100t-169.5 34.5q-144 0 -247 -81t-144 -237h233
q58 0 106 -37.5t71 -104.5l87 -262q37 -119 114 -119h190q6 50 6 106zM1118 389h-223q-67 0 -124 49t-86 149l-67 227q-4 10 -12.5 26.5t-20 33.5t-28 28.5t-39.5 11.5h-191q-2 -17 -2 -33.5v-33.5v-223q0 -129 32 -222.5t87.5 -154t131 -90.5t163.5 -30q131 0 231 63.5
t148 198.5zM662 -350q-31 29 -31 78t31 79.5t81 30.5t81 -30.5t31 -79.5t-31 -79t-81 -30t-81 31z" />
    <glyph glyph-name="uni13EC_dotbelowcomb" unicode="&#x13ec;&#x323;" horiz-adv-x="1744" 
d="M1561 826q0 -162 -39.5 -316t-124 -275t-217.5 -193.5t-320 -72.5q-132 0 -258.5 46.5t-226.5 156t-161.5 289.5t-61.5 449q0 605 364 605q65 0 115 -38.5t82 -100t48.5 -138.5t16.5 -152q0 -245 -90.5 -398t-285.5 -226q39 -106 97.5 -171.5t122 -102t126 -49
t112.5 -12.5q145 0 246 65.5t164.5 168.5t91.5 232t28 254q0 94 -15.5 185.5t-39.5 163.5t-53 116.5t-58 44.5q-69 0 -99 -64.5t-30 -222.5h-171q0 137 24 223.5t64.5 136.5t95.5 67.5t116 17.5q79 0 141.5 -56t106 -151t66.5 -219.5t23 -262.5zM608 1022q0 154 -31.5 245.5
t-76.5 91.5q-46 0 -80.5 -23t-56.5 -75t-32 -138.5t-10 -212.5q0 -80 11 -150.5t24 -130.5q123 47 187.5 146t64.5 247zM803 -350q-31 29 -31 78t31 79.5t81 30.5t81 -30.5t31 -79.5t-31 -79t-81 -30t-81 31z" />
    <glyph glyph-name="uni13ED_dotbelowcomb" unicode="&#x13ed;&#x323;" horiz-adv-x="1359" 
d="M1184 910q0 -169 -41.5 -337.5t-121.5 -303t-197.5 -217.5t-269.5 -83q-165 0 -310.5 93.5t-233.5 274.5l159 75q66 -144 162 -214.5t202 -70.5q131 0 227.5 99t157.5 274q-113 33 -195 89t-136 127t-80 154t-26 171q0 102 31 189t83 150.5t118.5 99t137.5 35.5
q69 0 130.5 -36.5t106 -111.5t70.5 -189t26 -268zM1016 928q0 104 -16 184.5t-42 135.5t-58 83t-65 28q-34 0 -67 -28t-59 -74t-42 -104t-16 -121q0 -60 23 -121.5t63.5 -112.5t99 -87.5t127.5 -48.5q33 73 42.5 135.5t9.5 130.5zM462 -350q-31 29 -31 78t31 79.5t81 30.5
t81 -30.5t31 -79.5t-31 -79t-81 -30t-81 31z" />
    <glyph glyph-name="uni13EE_dotbelowcomb" unicode="&#x13ee;&#x323;" horiz-adv-x="1322" 
d="M1151 447q0 -102 -35.5 -189t-99 -151.5t-151 -101t-189.5 -36.5q-137 0 -236 66.5t-163.5 170.5t-94.5 230t-30 243q0 135 22 282.5t83 270.5t168.5 203t277.5 80q80 0 158 -31t140.5 -84t102 -126t45.5 -154h-177q-10 48 -36 91.5t-62.5 77t-82.5 53t-96 19.5
q-121 0 -193.5 -60.5t-112 -152t-53 -198.5t-13.5 -201v-31t2 -31q62 93 161 144t211 51q90 0 172 -33t144.5 -92.5t100 -138.5t37.5 -171zM978 437q0 63 -23 115t-63.5 90.5t-94.5 59t-116 20.5q-61 0 -114 -29t-92.5 -75t-62.5 -103t-23 -115q0 -50 26 -100t67.5 -88.5
t94 -63.5t102.5 -25q68 0 123 24t94 65.5t60.5 99.5t21.5 125zM597 -350q-31 29 -31 78t31 79.5t81 30.5t81 -30.5t31 -79.5t-31 -79t-81 -30t-81 31z" />
    <glyph glyph-name="uni13EF_dotbelowcomb" unicode="&#x13ef;&#x323;" horiz-adv-x="1675" 
d="M601 724l-126 -162v160l126 204l100 -164l100 164l100 -164l100 164h123l-223 -368l-60 102l-15 -22v-342q0 -44 24.5 -76t61.5 -52.5t80.5 -30.5t81.5 -10q141 0 208 138t67 432q0 91 -18 175t-49.5 158t-73 134.5t-89 103.5t-98 67t-99.5 24q-73 0 -120 -16t-74.5 -49
t-38 -83.5t-10.5 -119.5h-186q0 127 38.5 209.5t100 130.5t137.5 67t151 19q114 0 202.5 -39t155 -106t112 -155t74 -187t41 -202t12.5 -199q0 -80 -7.5 -160t-27 -153.5t-51.5 -137t-81.5 -110t-117.5 -73t-158 -26.5q-193 0 -323 106q-124 -106 -289 -106
q-225 0 -338.5 115.5t-113.5 367.5q0 79 21 140.5t54.5 109.5t74.5 85.5t81 69.5l69 -147q-19 -19 -41.5 -40t-42 -51t-32.5 -73.5t-13 -106.5q0 -73 17.5 -131t52.5 -98t88 -61.5t125 -21.5q24 0 54.5 13t58 35.5t46 53.5t18.5 67v361zM664 -350q-31 29 -31 78t31 79.5
t81 30.5t81 -30.5t31 -79.5t-31 -79t-81 -30t-81 31z" />
    <glyph glyph-name="uni13F0_dotbelowcomb" unicode="&#x13f0;&#x323;" horiz-adv-x="1334" 
d="M1153 477q0 -129 -34.5 -225t-99 -159.5t-154 -94.5t-199.5 -31q-200 0 -362 127q-113 -94 -256 -94v179q75 0 131 44q-96 120 -146 258l123 77q13 -29 27 -61q13 -27 30.5 -57t40.5 -53q2 6 2 46v651q0 94 25 173t75 136.5t127 89.5t181 32t183 -29t133 -82t81.5 -126
t27.5 -160q0 -67 -16 -116t-38.5 -85.5t-52 -61.5t-54.5 -39q50 -15 91.5 -51.5t72 -83t46 -100.5t15.5 -104zM982 437q0 285 -333 285h-116v148q385 0 385 231q0 110 -60.5 184t-195.5 74q-77 0 -124 -23t-72 -64.5t-32 -101t-7 -131.5v-673q0 -70 -27 -141
q120 -98 249 -98q333 0 333 310zM581 -350q-31 29 -31 78t31 79.5t81 30.5t81 -30.5t31 -79.5t-31 -79t-81 -30t-81 31z" />
    <glyph glyph-name="uni13F1_dotbelowcomb" unicode="&#x13f1;&#x323;" horiz-adv-x="1542" 
d="M1372 439q0 -75 -17 -157t-55.5 -152t-100 -115.5t-150.5 -45.5q-87 0 -144.5 37.5t-93 96.5t-50 133t-14.5 147h163q0 -33 3 -78t17.5 -84.5t40.5 -66.5t74 -27t79 35.5t49 84.5t24 101t6 87q0 92 -23 182.5t-71 162t-123.5 116.5t-182.5 45q-52 0 -104 -57.5t-102 -147
t-93.5 -198.5t-77 -214t-55 -192.5t-26.5 -131.5h-164l-171 385l134 65l95 -211q25 86 70 212t105.5 250.5t136 227.5t161.5 147v254h-173v156h518v-156h-172v-237q118 -17 208.5 -79.5t153 -153t94 -201t31.5 -220.5zM710 -350q-31 29 -31 78t31 79.5t81 30.5t81 -30.5
t31 -79.5t-31 -79t-81 -30t-81 31z" />
    <glyph glyph-name="uni13F2_dotbelowcomb" unicode="&#x13f2;&#x323;" horiz-adv-x="1324" 
d="M1153 0h-173v408q0 64 -22.5 121.5t-62.5 101t-95 69.5t-117 26q-65 0 -119 -26t-94.5 -69.5t-63.5 -101t-23 -121.5v-408h-173v1061q0 227 116.5 341.5t312.5 114.5q83 0 156 -23t127 -68.5t85.5 -112t31.5 -154.5h-169q-4 94 -70.5 147t-160.5 53q-119 0 -187.5 -67.5
t-68.5 -211.5v-331q67 69 134.5 100t165.5 36q97 4 182.5 -33.5t150 -103t101 -154t36.5 -186.5v-408zM597 -350q-31 29 -31 78t31 79.5t81 30.5t81 -30.5t31 -79.5t-31 -79t-81 -30t-81 31z" />
    <glyph glyph-name="uni13F3_dotbelowcomb" unicode="&#x13f3;&#x323;" horiz-adv-x="1773" 
d="M1730 1419l-244 -380l-169 247l-176 -235q-19 65 -54.5 121t-85.5 97.5t-115.5 65.5t-148.5 24q-92 0 -167 -31t-130 -94.5t-85 -159.5t-30 -223v-208q0 -245 104 -380.5t304 -135.5q164 0 274 94q111 93 111 241v150h-398v158h566v-308q0 -71 -27 -157t-91.5 -161
t-170.5 -125t-262 -50q-288 0 -435.5 177t-147.5 497v208q0 312 160 489q158 177 429 177q154 0 266.5 -57t174.5 -138l135 168l169 -247l148 226zM635 -350q-31 29 -31 78t31 79.5t81 30.5t81 -30.5t31 -79.5t-31 -79t-81 -30t-81 31z" />
    <glyph glyph-name="uni13F4_dotbelowcomb" unicode="&#x13f4;&#x323;" horiz-adv-x="1438" 
d="M1253 416q0 -100 -36.5 -178t-104 -131t-163.5 -80t-214 -27h-525v1486h550q91 0 166 -25t129 -73t83.5 -115.5t29.5 -152.5q0 -131 -61.5 -212.5t-174.5 -116.5v-6q159 -25 240 -122t81 -247zM991 1091q0 120 -71 179.5t-185 59.5h-350v-487h233q190 0 281.5 58
t91.5 190zM1076 412q0 137 -85.5 206t-234.5 69h-371v-529h264q92 0 170 9.5t134 36.5t89.5 77t33.5 131zM585 -350q-31 29 -31 78t31 79.5t81 30.5t81 -30.5t31 -79.5t-31 -79t-81 -30t-81 31z" />
    <glyph glyph-name="uni13F5_dotbelowcomb" unicode="&#x13f5;&#x323;" horiz-adv-x="1424" 
d="M1295 -31h-552q-150 0 -264.5 66.5t-191.5 176t-111 248.5t-20.5 284t77 284.5t182 247.5t294.5 174.5t417 66.5v-158q-198 0 -343.5 -52t-242.5 -138.5t-150 -197.5t-65.5 -226.5t10.5 -226t78 -198t138.5 -140.5t189.5 -53h385v485h-398v158h567v-801zM712 -350
q-31 29 -31 78t31 79.5t81 30.5t81 -30.5t31 -79.5t-31 -79t-81 -30t-81 31z" />
    <glyph glyph-name="uni13F8_dotbelowcomb" unicode="&#x13f8;&#x323;" horiz-adv-x="1107" 
d="M957 370q0 -199 -112 -297t-296 -98q-89 0 -170 29v-41q0 -373 -298 -373q-64 0 -106 10v140q27 -6 73 -6q89 0 122.5 55t33.5 176v145q-60 54 -106 124t-75 149l131 77q4 -13 17.5 -42t32.5 -60v462q0 75 21 136.5t64.5 107t108 70.5t151.5 25q175 0 265.5 -87.5
t90.5 -226.5q0 -87 -33 -138t-71 -81q36 -18 65 -47.5t49 -63.5t31 -71.5t11 -73.5zM783 341q0 192 -246 192h-112v148q168 0 237 40.5t69 111.5q0 74 -42 123t-142 49q-56 0 -89 -14.5t-51 -41.5t-23 -68.5t-5 -93.5v-608q83 -48 158 -48q246 0 246 210zM470 -350
q-31 29 -31 78t31 79.5t81 30.5t81 -30.5t31 -79.5t-31 -79t-81 -30t-81 31z" />
    <glyph glyph-name="uni13F9_dotbelowcomb" unicode="&#x13f9;&#x323;" horiz-adv-x="1280" 
d="M862 -23q-77 0 -127 30t-80.5 79t-43 110.5t-12.5 124.5h169q0 -30 2 -63t10.5 -61t26 -47t50.5 -19q34 0 56 24t33 57.5t15.5 68.5t4.5 58q0 67 -18 130.5t-54.5 113.5t-93.5 81t-136 31q-40 0 -80.5 -41.5t-78 -106t-70.5 -144.5t-59 -157t-42 -144t-20 -102h-162
l-150 312l142 65l64 -131q23 66 58.5 152.5t81 171t102 154t120.5 102.5v156h-137v154h454v-154h-138v-139q96 -15 169 -63.5t122 -118.5t73.5 -153t24.5 -165q0 -54 -13.5 -118.5t-45.5 -119.5t-85 -91.5t-132 -36.5zM579 -350q-31 29 -31 78t31 79.5t81 30.5t81 -30.5
t31 -79.5t-31 -79t-81 -30t-81 31z" />
    <glyph glyph-name="uni13FA_dotbelowcomb" unicode="&#x13fa;&#x323;" horiz-adv-x="1099" 
d="M783 0v321q0 45 -17 84.5t-47 69t-69.5 46t-83.5 16.5t-84.5 -16.5t-69.5 -46t-46.5 -69t-17.5 -84.5v-321h-173v803q0 177 97.5 267.5t260.5 90.5q66 0 126.5 -18.5t106.5 -56t73 -94.5t27 -135h-169q-4 73 -50 110.5t-114 37.5q-88 0 -136.5 -43.5t-48.5 -143.5v-202
q47 38 99.5 56.5t118.5 20.5q77 2 149 -26t125 -78t85 -118.5t32 -149.5v-321h-174zM493 -350q-31 29 -31 78t31 79.5t81 30.5t81 -30.5t31 -79.5t-31 -79t-81 -30t-81 31z" />
    <glyph glyph-name="uni13FB_dotbelowcomb" unicode="&#x13fb;&#x323;" horiz-adv-x="1471" 
d="M1444 1076l-222 -323l-138 186l-149 -181q-38 118 -115 182.5t-204 64.5q-137 0 -224.5 -87.5t-87.5 -268.5v-154q0 -177 80 -270.5t230 -93.5q123 0 208 67q81 62 81 162v92h-318v156h493v-645q0 -373 -298 -373q-64 0 -106 10v140q27 -6 73 -6q90 0 123 55t33 176v87
q-54 -35 -124.5 -55t-164.5 -20q-239 0 -363 136.5t-124 381.5v154q0 242 133 375q138 137 360 137q119 0 209.5 -38.5t144.5 -96.5l112 127l134 -181l112 158zM400 -350q-31 29 -31 78t31 79.5t81 30.5t81 -30.5t31 -79.5t-31 -79t-81 -30t-81 31z" />
    <glyph glyph-name="uni13FC_dotbelowcomb" unicode="&#x13fc;&#x323;" horiz-adv-x="1193" 
d="M826 606q106 -29 160.5 -101t54.5 -178q0 -79 -31.5 -140.5t-88.5 -103t-136 -62.5t-175 -21h-435v1136h454q151 0 247 -76t96 -213q0 -87 -38.5 -146.5t-107.5 -94.5zM610 982h-258v-320h164q150 0 213.5 39.5t63.5 124.5q0 79 -48 117.5t-135 38.5zM626 508h-274v-352
h189q75 0 134.5 6.5t101 25t63.5 51t22 86.5q0 89 -60.5 136t-175.5 47zM475 -350q-31 29 -31 78t31 79.5t81 30.5t81 -30.5t31 -79.5t-31 -79t-81 -30t-81 31z" />
    <glyph glyph-name="uni13FD_dotbelowcomb" unicode="&#x13fd;&#x323;" horiz-adv-x="1182" 
d="M616 -23q-125 0 -220.5 51t-158 135.5t-90.5 190.5t-18 216q10 113 63.5 219t152 188t246.5 133t350 51v-156q-163 0 -279.5 -37.5t-192.5 -100t-116.5 -141.5t-50.5 -160q-11 -83 8 -161t60.5 -139.5t103 -98t140.5 -36.5h289v321h-318v156h489v-631h-458zM558 -350
q-31 29 -31 78t31 79.5t81 30.5t81 -30.5t31 -79.5t-31 -79t-81 -30t-81 31z" />
    <glyph glyph-name="uniAB70_dotbelowcomb" unicode="&#xab70;&#x323;" horiz-adv-x="1232" 
d="M987 164q-63 -79 -170 -121.5t-253 -42.5h-389v1136h389q148 0 251 -42.5t166.5 -118.5t92.5 -180t29 -227q0 -125 -28 -224.5t-88 -179.5zM560 982h-208v-826h208q183 0 272.5 101t89.5 311q0 212 -89.5 313t-272.5 101zM481 -350q-31 29 -31 78t31 79.5t81 30.5
t81 -30.5t31 -79.5t-31 -79t-81 -30t-81 31z" />
    <glyph glyph-name="uniAB71_dotbelowcomb" unicode="&#xab71;&#x323;" horiz-adv-x="1174" 
d="M1019 0q-47 0 -82.5 8.5t-63.5 26t-49.5 44.5t-40.5 65l-152 303h-287v-447h-168v1137h445q85 0 157.5 -22.5t125.5 -65.5t83.5 -107t30.5 -146q0 -110 -55 -192.5t-166 -124.5l135 -257q6 -11 11 -20.5t10 -17.5q10 -17 22 -28q11 -11 28 -17.5t43 -6.5q14 0 30.5 1
t41.5 6v-129q-28 -8 -52.5 -9t-46.5 -1zM604 996h-260v-408h254q56 0 102 11.5t78.5 35.5t50.5 61.5t18 89.5q0 104 -64.5 157t-178.5 53zM456 -350q-31 29 -31 78t31 79.5t81 30.5t81 -30.5t31 -79.5t-31 -79t-81 -30t-81 31z" />
    <glyph glyph-name="uniAB72_dotbelowcomb" unicode="&#xab72;&#x323;" horiz-adv-x="997" 
d="M949 982h-362v-982h-177v982h-362v154h901v-154zM410 -350q-31 29 -31 78t31 79.5t81 30.5t81 -30.5t31 -79.5t-31 -79t-81 -30t-81 31z" />
    <glyph glyph-name="uniAB73_dotbelowcomb" unicode="&#xab73;&#x323;" horiz-adv-x="1284" 
d="M868 -21q-77 0 -127 30.5t-80 79t-42.5 110t-12.5 124.5h168q0 -30 2 -63t10.5 -61t26 -47t51.5 -19q33 0 55 26t33.5 61.5t15.5 73t4 60.5q0 66 -17.5 127.5t-54 109.5t-94 77t-136.5 29q-93 0 -147.5 -42.5t-91.5 -117.5q48 -52 66.5 -116.5t18.5 -129.5
q0 -50 -13.5 -105t-44.5 -100.5t-79 -76t-117 -30.5q-68 0 -117 30.5t-79.5 76t-44 100.5t-13.5 105q0 48 13.5 104.5t45 104t79.5 80t116 32.5h19q35 79 98.5 140.5t157.5 84.5v145h-137v156h453v-156h-137v-133q102 -10 182 -54t135.5 -111.5t83.5 -153t28 -174.5
q0 -54 -13.5 -118.5t-46 -123t-85.5 -97t-132 -38.5zM262 462q-27 0 -42.5 -19.5t-24 -48t-11.5 -56.5t-3 -47q0 -16 3 -44t11.5 -54t25 -45t41.5 -19t42 19t25 45t11 54t3 44q0 17 -3 45t-11 56t-25 49t-42 21zM545 -350q-31 29 -31 78t31 79.5t81 30.5t81 -30.5t31 -79.5
t-31 -79t-81 -30t-81 31z" />
    <glyph glyph-name="uniAB74_dotbelowcomb" unicode="&#xab74;&#x323;" horiz-adv-x="1526" 
d="M935 481v164q0 177 -86.5 268.5t-230.5 91.5q-137 0 -225.5 -89.5t-88.5 -270.5v-164q0 -92 24 -157.5t66.5 -108t100 -63.5t123.5 -21q67 0 125 21t101 63.5t67 108t24 157.5zM1209 524h-98v-43q0 -237 -135 -373q-131 -131 -360 -131q-112 0 -202.5 34.5t-154 99
t-98 158t-34.5 212.5v164q0 244 133 377q138 139 360 139q225 0 358 -139q121 -123 133 -329h86q21 0 35.5 31.5t20.5 79t6 101.5t-7 102t-20.5 79.5t-34.5 31.5h-65v164h77q75 0 124 -56t72 -140.5t23 -182.5t-25 -182t-74 -140.5t-120 -56.5zM531 -350q-31 29 -31 78
t31 79.5t81 30.5t81 -30.5t31 -79.5t-31 -79t-81 -30t-81 31z" />
    <glyph glyph-name="uniAB75_dotbelowcomb" unicode="&#xab75;&#x323;" horiz-adv-x="535" 
d="M256 830q-46 0 -77 31.5t-31 77.5q0 48 32 79t76 31t75 -31q33 -31 33 -79q0 -44 -32 -76.5t-76 -32.5zM92 0v154h83v602h162v-602h81v-154h-326zM171 -369q-31 29 -31 78t31 79.5t81 30.5t81 -30.5t31 -79.5t-31 -79t-81 -30t-81 31z" />
    <glyph glyph-name="uniAB76_dotbelowcomb" unicode="&#xab76;&#x323;" horiz-adv-x="1191" 
d="M864 549q56 -41 85 -96t29 -130q0 -167 -133 -258q-65 -46 -145 -67t-180 -21q-112 0 -200.5 30t-138.5 80q-48 50 -74 109.5t-28 134.5h177q10 -90 81 -145t202 -55q125 0 192.5 51t67.5 130q0 61 -40.5 99.5t-140.5 63.5l-66 16l-473 -89v154l175 31q-63 42 -100 101
t-37 142q0 82 36 144t96.5 105t136.5 63.5t155 20.5q75 0 149 -18.5t134.5 -60t100 -108t43.5 -162.5h-177q-11 91 -73 143t-181 52q-112 0 -176.5 -45.5t-64.5 -124.5q0 -54 36 -90.5t118 -57.5l147 -37l477 89v-154zM460 -362q-31 29 -31 78t31 79.5t81 30.5t81 -30.5
t31 -79.5t-31 -79t-81 -30t-81 31z" />
    <glyph glyph-name="uniAB77_dotbelowcomb" unicode="&#xab77;&#x323;" horiz-adv-x="1415" 
d="M714 -23q-169 0 -281 62.5t-180 164.5t-97 230t-29 257q0 67 9.5 148t41.5 150.5t93.5 117.5t165.5 48q67 0 111.5 -36.5t70.5 -88.5t37.5 -109t11.5 -99q0 -79 -14.5 -152t-49 -133t-91.5 -108t-143 -79q48 -100 134.5 -159.5t209.5 -59.5q69 0 141 33q136 61 194 178.5
t58 252.5q0 63 -11.5 125.5t-38.5 116.5t-74.5 99.5t-118.5 77.5l85 145q94 -43 158.5 -104.5t104 -135.5t57 -156t17.5 -168q0 -112 -38.5 -223.5t-112.5 -199t-180 -141.5t-241 -54zM425 1005q-46 0 -71 -32t-38 -84q-6 -27 -8 -54t-4 -55v-89q0 -96 14 -181
q88 37 130.5 105t42.5 161v52.5t-6 77t-19.5 69.5t-40.5 30zM643 -425q-31 29 -31 78t31 79.5t81 30.5t81 -30.5t31 -79.5t-31 -79t-81 -30t-81 31z" />
    <glyph glyph-name="uniAB78_dotbelowcomb" unicode="&#xab78;&#x323;" horiz-adv-x="872" 
d="M601 656q-31 0 -62 8t-58 27q-27 -37 -62.5 -87t-64.5 -92v-512h-179v1136h179v-387l50 69q-4 23 -8.5 48t-4.5 50l2 33h134q0 -25 1 -53t7 -51t19.5 -38.5t38.5 -15.5t38.5 15.5t20 38.5t7.5 51t1 53h135q0 -48 -8.5 -99t-29 -94.5t-59 -71.5t-97.5 -28zM177 -390
q-31 29 -31 78t31 79.5t81 30.5t81 -30.5t31 -79.5t-31 -79t-81 -30t-81 31z" />
    <glyph glyph-name="uniAB79_dotbelowcomb" unicode="&#xab79;&#x323;" horiz-adv-x="1080" 
d="M495 106q-68 -129 -218 -129q-42 0 -84.5 12.5t-77 36.5t-55 59.5t-20.5 83.5v58h174q0 -42 18 -69t45 -27q35 0 56 40l112 224l-391 743h200l291 -551l285 551h202zM462 -350q-31 29 -31 78t31 79.5t81 30.5t81 -30.5t31 -79.5t-31 -79t-81 -30t-81 31z" />
    <glyph glyph-name="uniAB7A_dotbelowcomb" unicode="&#xab7a;&#x323;" horiz-adv-x="1141" 
d="M893 0l-123 339h-422l-123 -339h-185l443 1136h160l439 -1136h-189zM560 912l-158 -431h316zM477 -350q-31 29 -31 78t31 79.5t81 30.5t81 -30.5t31 -79.5t-31 -79t-81 -30t-81 31z" />
    <glyph glyph-name="uniAB7B_dotbelowcomb" unicode="&#xab7b;&#x323;" horiz-adv-x="899" 
d="M379 -23q-146 0 -240 75q-47 42 -70 96t-23 131h168q5 -73 50.5 -110.5t114.5 -37.5q87 0 135 44t48 143v818h173v-803q0 -177 -97 -266.5t-259 -89.5zM314 -350q-31 29 -31 78t31 79.5t81 30.5t81 -30.5t31 -79.5t-31 -79t-81 -30t-81 31z" />
    <glyph glyph-name="uniAB7C_dotbelowcomb" unicode="&#xab7c;&#x323;" horiz-adv-x="1005" 
d="M175 0v1136h732v-154h-557v-324h526v-154h-526v-348h557v-156h-732zM466 -350q-31 29 -31 78t31 79.5t81 30.5t81 -30.5t31 -79.5t-31 -79t-81 -30t-81 31z" />
    <glyph glyph-name="uniAB7D_dotbelowcomb" unicode="&#xab7d;&#x323;" horiz-adv-x="1320" 
d="M839 0h-238v639h-74q-30 -73 -97.5 -120t-154.5 -47q-111 0 -188 71q-79 73 -79 173q0 102 79 175q77 71 188 71q108 0 187 -71q48 -46 67 -100h72v345h173v-345h448v-140zM774 196l256 443h-256v-443zM275 826q-48 0 -84.5 -32t-36.5 -78q0 -42 36.5 -75t84.5 -33
q52 0 86 33t34 75q0 46 -34 78t-86 32zM608 -350q-31 29 -31 78t31 79.5t81 30.5t81 -30.5t31 -79.5t-31 -79t-81 -30t-81 31z" />
    <glyph glyph-name="uniAB7E_dotbelowcomb" unicode="&#xab7e;&#x323;" horiz-adv-x="907" 
d="M323 310v-310h-175v614h175v-144q79 2 138 53t94.5 124t45 157.5t-10.5 157t-71 120.5t-136 48q-40 0 -71 -18.5t-53 -50t-33.5 -72t-11.5 -84.5h-172q0 82 21.5 151.5t65.5 119.5t108.5 78t149.5 28q110 0 188.5 -41.5t125 -109t64.5 -154t8.5 -177t-44 -177t-92.5 -156
t-137.5 -112.5t-176.5 -45zM144 -350q-31 29 -31 78t31 79.5t81 30.5t81 -30.5t31 -79.5t-31 -79t-81 -30t-81 31z" />
    <glyph glyph-name="uniAB7F_dotbelowcomb" unicode="&#xab7f;&#x323;" horiz-adv-x="1278" 
d="M795 -23q-100 0 -163.5 44t-63.5 114q0 29 7.5 57.5t23.5 67.5h154q0 -16 -1 -22.5t-1 -10.5q-2 -4 -2 -7.5t-2 -7.5q-2 -10 -3 -18.5t-1 -14.5q0 -48 48 -48q62 0 105 73t55 239h-414q-10 -98 -26 -182t-48 -147.5t-86 -100t-140 -36.5q-93 0 -161 34.5t-68 113.5
q0 29 7.5 61.5t24.5 73.5h154q0 -27 -3 -33q0 -4 -1 -7.5t-1 -7.5q-6 -18 -6 -33q0 -48 52 -48q79 0 110 148q15 73 20 165.5t14 190.5q8 96 28 190.5t63.5 169.5t115.5 120.5t184 45.5q198 0 283 -149.5t85 -432.5q0 -313 -89.5 -457.5t-253.5 -144.5zM747 1005
q-48 0 -81 -24t-55 -67.5t-34.5 -103t-18.5 -127.5l-9 -96h406q-2 223 -48.5 320.5t-159.5 97.5zM672 -350q-31 29 -31 78t31 79.5t81 30.5t81 -30.5t31 -79.5t-31 -79t-81 -30t-81 31z" />
    <glyph glyph-name="uniAB80_dotbelowcomb" unicode="&#xab80;&#x323;" horiz-adv-x="907" 
d="M350 481v-481h-175v1136h175v-501h499v-154h-499zM181 -350q-31 29 -31 78t31 79.5t81 30.5t81 -30.5t31 -79.5t-31 -79t-81 -30t-81 31z" />
    <glyph glyph-name="uniAB81_dotbelowcomb" unicode="&#xab81;&#x323;" horiz-adv-x="914" 
d="M350 982v-982h-175v1136h720v-154h-545zM181 -350q-31 29 -31 78t31 79.5t81 30.5t81 -30.5t31 -79.5t-31 -79t-81 -30t-81 31z" />
    <glyph glyph-name="uniAB82_dotbelowcomb" unicode="&#xab82;&#x323;" horiz-adv-x="1407" 
d="M1195 327q-9 -73 -33 -136.5t-66.5 -111.5t-105 -76t-147.5 -28q-65 0 -125 20t-121 55q-122 -75 -247 -75q-163 0 -252.5 81t-89.5 217q0 133 62.5 213t185.5 80l31 -177q-66 0 -86 -30t-20 -84q0 -75 47 -109.5t122 -34.5q25 0 52 9.5t56 26.5q-90 101 -131.5 219
t-41.5 251q0 260 83.5 391t228.5 131q146 0 229.5 -131t83.5 -391q0 -133 -42 -252t-131 -218q29 -17 55 -26.5t51 -9.5q67 0 110.5 49t58.5 147h-96v137h414v-137h-135zM597 1003q-6 0 -29 -12.5t-48 -51t-43.5 -111t-18.5 -191.5q0 -115 36.5 -206.5t102.5 -164.5
q67 73 103.5 164.5t36.5 206.5q0 116 -19 188t-41.5 111.5t-46.5 53t-33 13.5zM516 -350q-31 29 -31 78t31 79.5t81 30.5t81 -30.5t31 -79.5t-31 -79t-81 -30t-81 31z" />
    <glyph glyph-name="uniAB83_dotbelowcomb" unicode="&#xab83;&#x323;" horiz-adv-x="1603" 
d="M783 847l-257 -847h-144l-348 1137h195l230 -884l239 851h172l240 -851l229 884h195l-348 -1137h-145zM697 -350q-31 29 -31 78t31 79.5t81 30.5t81 -30.5t31 -79.5t-31 -79t-81 -30t-81 31z" />
    <glyph glyph-name="uniAB84_dotbelowcomb" unicode="&#xab84;&#x323;" horiz-adv-x="1197" 
d="M895 818q0 35 -6.5 69.5t-20 60.5t-35 41.5t-53.5 15.5q-62 0 -100.5 -29t-38.5 -83t46 -113q10 -14 23.5 -26.5t28.5 -27.5q14 -16 29 -29.5t31 -30.5q31 -29 61.5 -63.5t54.5 -73t38.5 -84t14.5 -100.5q0 -81 -27 -149.5t-77 -116.5t-121 -75t-160 -27
q-100 0 -183.5 25t-143.5 75t-94.5 125t-34.5 173q0 85 29 148.5t79 109.5t116.5 77t141.5 52q-16 31 -21.5 64.5t-5.5 68.5q0 60 23 109t63.5 84.5t94.5 54t115 18.5q85 0 143.5 -24t94.5 -68.5t53 -108t17 -142.5h-175zM724 489q-29 35 -62 66.5t-65 62.5
q-60 -12 -113 -31t-93.5 -50t-64.5 -75t-24 -102q0 -112 70.5 -171.5t195.5 -59.5q106 0 165.5 55t59.5 151q0 42 -20 80.5t-49 73.5zM458 -350q-31 29 -31 78t31 79.5t81 30.5t81 -30.5t31 -79.5t-31 -79t-81 -30t-81 31z" />
    <glyph glyph-name="uniAB85_dotbelowcomb" unicode="&#xab85;&#x323;" horiz-adv-x="928" 
d="M862 836q0 -150 -77 -239q-39 -48 -93 -71t-131 -23v169q72 4 105.5 49t25.5 115q-4 71 -48 108q-45 38 -115 38q-88 0 -134.5 -44.5t-46.5 -142.5v-795h-173v780q0 177 96.5 266.5t257.5 89.5q150 0 239 -77q48 -39 71 -93t23 -130zM177 -350q-31 29 -31 78t31 79.5
t81 30.5t81 -30.5t31 -79.5t-31 -79t-81 -30t-81 31z" />
    <glyph glyph-name="uniAB86_dotbelowcomb" unicode="&#xab86;&#x323;" horiz-adv-x="1215" 
d="M601 -23q-99 0 -186.5 33.5t-151 98t-100 158t-36.5 216.5v166q0 240 129 375q131 137 348 137q112 0 197.5 -34t141.5 -91.5t84 -131.5t28 -151h-175q0 61 -17.5 103.5t-54.5 78.5q-77 70 -204 70q-138 0 -220 -90.5t-82 -269.5v-162q0 -179 85 -267.5t223 -84.5
q52 2 102 14.5t89.5 35.5t62.5 57.5t21 79.5q-5 80 -46.5 123.5t-153.5 53.5v-120h-148v395h148v-112q379 -25 385 -340q2 -87 -39.5 -152.5t-110.5 -107t-153 -62.5t-166 -19zM510 -350q-31 29 -31 78t31 79.5t81 30.5t81 -30.5t31 -79.5t-31 -79t-81 -30t-81 31z" />
    <glyph glyph-name="uniAB87_dotbelowcomb" unicode="&#xab87;&#x323;" horiz-adv-x="1463" 
d="M731 279l391 857h166v-1136h-164v770l-319 -685h-147l-319 681v-766h-164v1136h164zM652 -350q-31 29 -31 78t31 79.5t81 30.5t81 -30.5t31 -79.5t-31 -79t-81 -30t-81 31z" />
    <glyph glyph-name="uniAB88_dotbelowcomb" unicode="&#xab88;&#x323;" horiz-adv-x="901" 
d="M562 0v254h-8q-88 0 -136 33.5t-81 72.5q-8 10 -15.5 18.5t-13.5 19.5q-15 16 -29 29q-27 27 -65 27h-22v-133h-148v395h148v-129h70q61 0 103.5 -34.5t75.5 -71.5q11 -11 18 -19t16 -17q14 -18 31 -31q29 -27 52 -27h4v408q0 87 -43.5 137t-139.5 50q-67 0 -113.5 -37.5
t-51.5 -109.5h-168q0 77 27 134t72.5 94.5t106 55t127.5 17.5q177 0 266.5 -96.5t89.5 -259.5v-780h-173zM562 -350q-31 29 -31 78t31 79.5t81 30.5t81 -30.5t31 -79.5t-31 -79t-81 -30t-81 31z" />
    <glyph glyph-name="uniAB89_dotbelowcomb" unicode="&#xab89;&#x323;" horiz-adv-x="1449" 
d="M1222 749q2 56 -30.5 82t-84.5 26q-14 0 -35 -22q-15 -15 -23 -30q-6 -8 -13.5 -16.5t-13.5 -18.5q-29 -35 -68.5 -68.5t-102.5 -33.5q-129 0 -197 100q-11 -23 -24.5 -45t-28.5 -44q42 -28 78.5 -67.5t63.5 -86t42.5 -95.5t15.5 -95q0 -75 -14.5 -139.5t-50 -113.5
t-96.5 -77t-155 -28q-65 0 -117 23t-88 60.5t-56 88.5t-20 107q0 98 29 165.5t83 138.5q-56 -11 -102.5 -42t-88.5 -91l-123 112q79 108 193.5 148.5t233.5 40.5h21q43 61 71 122.5t39 131.5h-140v156h458v-156h-135q4 -23 10.5 -51t19 -52t30 -40.5t46.5 -16.5q17 0 40 25
q6 6 11 13.5t12 17.5q6 9 11 17t12 19q27 37 65.5 72.5t104.5 35.5q58 0 110.5 -19t91 -54t60 -85t21.5 -115h-166zM497 541q-12 -17 -22.5 -30.5t-20.5 -27.5q-13 -17 -23.5 -32.5t-18.5 -32.5q-17 -31 -26 -68.5t-9 -85.5q0 -56 27 -95.5t87 -39.5q48 0 76 17.5t41.5 47
t17 69t3.5 80.5q0 25 -11.5 53.5t-29.5 55.5t-42 51t-49 38zM570 -350q-31 29 -31 78t31 79.5t81 30.5t81 -30.5t31 -79.5t-31 -79t-81 -30t-81 31z" />
    <glyph glyph-name="uniAB8A_dotbelowcomb" unicode="&#xab8a;&#x323;" horiz-adv-x="1628" 
d="M1276 0v512h-165v-31q0 -108 -30 -200t-91.5 -159.5t-155 -106t-218.5 -38.5t-216.5 38.5t-153 106t-90.5 160.5t-29 199v164q0 106 30 200t90.5 164.5t154 111t218.5 40.5q123 0 213.5 -39.5t152 -106t92.5 -157t33 -192.5h165v470h177v-1136h-177zM935 645
q0 71 -18 136.5t-56.5 115.5t-99 79t-143.5 29t-142.5 -29t-98 -79t-56 -115.5t-17.5 -136.5v-164q0 -73 17.5 -136.5t56 -110.5t98 -75t142.5 -28t143.5 28t99 75t56.5 110.5t18 136.5v164zM537 -350q-31 29 -31 78t31 79.5t81 30.5t81 -30.5t31 -79.5t-31 -79t-81 -30
t-81 31z" />
    <glyph glyph-name="uniAB8B_dotbelowcomb" unicode="&#xab8b;&#x323;" horiz-adv-x="1274" 
d="M924 0v512h-572v-512h-177v1136h177v-470h572v470h177v-1136h-177zM552 -350q-31 29 -31 78t31 79.5t81 30.5t81 -30.5t31 -79.5t-31 -79t-81 -30t-81 31z" />
    <glyph glyph-name="uniAB8C_dotbelowcomb" unicode="&#xab8c;&#x323;" horiz-adv-x="870" 
d="M354 -23q-150 0 -240.5 81t-107.5 250h171q17 -100 58.5 -138.5t114.5 -38.5q95 0 150.5 65.5t55.5 203.5q0 147 -54.5 220t-147.5 73q-54 0 -91.5 -21t-66.5 -75l-142 88q73 127 196 154v145h-136v154h446v-154h-129v-141q137 -29 215 -147.5t78 -295.5
q0 -198 -97.5 -310.5t-272.5 -112.5zM260 -350q-31 29 -31 78t31 79.5t81 30.5t81 -30.5t31 -79.5t-31 -79t-81 -30t-81 31z" />
    <glyph glyph-name="uniAB8D_dotbelowcomb" unicode="&#xab8d;&#x323;" horiz-adv-x="1193" 
d="M604 106q-67 -129 -219 -129q-44 0 -86.5 11.5t-76 35.5t-54 59.5t-20.5 85.5v93h-140v154h412v-154h-97v-66q0 -25 17.5 -45t44.5 -20q35 0 56 42l115 222l-394 743h200l294 -551l285 551h204zM562 -350q-31 29 -31 78t31 79.5t81 30.5t81 -30.5t31 -79.5t-31 -79
t-81 -30t-81 31z" />
    <glyph glyph-name="uniAB8E_dotbelowcomb" unicode="&#xab8e;&#x323;" horiz-adv-x="1240" 
d="M968 108q-129 -131 -356 -131q-112 0 -201.5 34.5t-152 99t-97 158t-34.5 212.5v164q0 242 133 377q131 139 354 139q221 0 356 -139q133 -140 133 -377v-164q0 -237 -135 -373zM926 645q0 177 -86.5 268.5t-225.5 91.5q-137 0 -224.5 -90.5t-87.5 -269.5h624zM926 493
h-624v-12q0 -92 24 -157.5t65.5 -108t98.5 -63.5t124 -21t124 21t98.5 63.5t65.5 108t24 157.5v12zM520 -350q-31 29 -31 78t31 79.5t81 30.5t81 -30.5t31 -79.5t-31 -79t-81 -30t-81 31z" />
    <glyph glyph-name="uniAB8F_dotbelowcomb" unicode="&#xab8f;&#x323;" horiz-adv-x="1078" 
d="M972 -37q0 -373 -298 -373q-64 0 -106 10v140q27 -6 73 -6q90 0 124 55t34 176v85q-98 -67 -225 -73q-77 -4 -153 18t-137 63.5t-99.5 105t-38.5 144.5v352h-138v154h138v299h177v-299h137v-154h-137l6 -329q0 -46 20.5 -82.5t54 -63.5t76 -40.5t90.5 -13.5q48 2 89.5 20
t73 49t49 71.5t17.5 88.5v92h-252v156h425v-645zM242 -350q-31 29 -31 78t31 79.5t81 30.5t81 -30.5t31 -79.5t-31 -79t-81 -30t-81 31z" />
    <glyph glyph-name="uniAB90_dotbelowcomb" unicode="&#xab90;&#x323;" horiz-adv-x="1201" 
d="M1068 -37q0 -373 -298 -373q-64 0 -106 10v140q27 -6 73 -6q89 0 123.5 55t34.5 176v87q-52 -35 -122 -55t-163 -20q-240 0 -361.5 136.5t-121.5 381.5v154q0 238 133 375t354 137q206 0 321 -108q58 -54 90 -122.5t41 -164.5h-173q-17 125 -93 182t-188 57
q-135 0 -222.5 -87.5t-87.5 -268.5v-154q0 -177 78 -270.5t228 -93.5q120 0 206 67q81 62 81 162v92h-316v156h489v-645zM325 -350q-31 29 -31 78t31 79.5t81 30.5t81 -30.5t31 -79.5t-31 -79t-81 -30t-81 31z" />
    <glyph glyph-name="uniAB91_dotbelowcomb" unicode="&#xab91;&#x323;" horiz-adv-x="1288" 
d="M1045 -2l-265 714q-12 35 -24.5 68.5t-27.5 68.5l-8 22t-8 24q-4 12 -10.5 23.5t-12.5 22.5q-15 21 -30.5 33.5t-38.5 12.5t-35 -13q-13 -15 -26.5 -53.5t-23.5 -85.5q-11 -48 -18 -93t-11 -68q-23 -114 -45 -227.5t-45 -227.5q-8 -46 -24.5 -91t-47 -81.5t-73 -59
t-104.5 -22.5q-38 0 -76.5 7t-84.5 26l27 139q36 -14 58.5 -19.5t45.5 -5.5q54 0 75 42t32 94q22 120 44 239t45 237q12 67 28 130.5t30 127.5q19 84 86.5 129.5t155.5 45.5q79 0 134 -48t93 -114q18 -31 34 -66.5t28 -71.5q15 -35 25 -66t21 -60l260 -733h-183zM550 -350
q-31 29 -31 78t31 79.5t81 30.5t81 -30.5t31 -79.5t-31 -79t-81 -30t-81 31z" />
    <glyph glyph-name="uniAB92_dotbelowcomb" unicode="&#xab92;&#x323;" horiz-adv-x="1072" 
d="M957 0h-174v321q0 45 -17 84.5t-47 69t-69.5 46t-83.5 16.5t-84.5 -16.5t-69.5 -46t-46.5 -69t-17.5 -84.5v-321h-173v1565h173v-951q47 40 99.5 57.5t118.5 21.5q77 2 149 -25t125 -78t85 -119.5t32 -149.5v-321zM487 -350q-31 29 -31 78t31 79.5t81 30.5t81 -30.5
t31 -79.5t-31 -79t-81 -30t-81 31z" />
    <glyph glyph-name="uniAB93_dotbelowcomb" unicode="&#xab93;&#x323;" horiz-adv-x="1030" 
d="M314 139q9 3 40 6t78 4t104 3t118 2q137 2 310 2v-156h-864v119l628 863h-605v154h826v-116zM437 -350q-31 29 -31 78t31 79.5t81 30.5t81 -30.5t31 -79.5t-31 -79t-81 -30t-81 31z" />
    <glyph glyph-name="uniAB94_dotbelowcomb" unicode="&#xab94;&#x323;" horiz-adv-x="945" 
d="M785 0h-165v339h-196q-153 0 -244 76q-68 57 -86 142h-86v124h330v-124h-70q21 -35 62 -55t94 -20h196v315q0 103 -52 150t-144 47q-55 0 -97 -21t-62 -59h73v-124h-330v124h84q18 88 88 147q94 76 244 76q162 0 262 -89q99 -89 99 -265v-783zM600 -350q-31 29 -31 78
t31 79.5t81 30.5t81 -30.5t31 -79.5t-31 -79t-81 -30t-81 31z" />
    <glyph glyph-name="uniAB95_dotbelowcomb" unicode="&#xab95;&#x323;" horiz-adv-x="1636" 
d="M1361 656q-33 0 -65.5 8t-61.5 27q-29 -42 -59 -82.5t-62 -81.5v-46q0 -108 -30 -200t-91.5 -159.5t-155 -106t-218.5 -38.5t-217.5 38.5t-154 107t-90.5 160.5t-29 198v164q0 106 30 200t91.5 164.5t154 111t217.5 40.5q106 0 190.5 -30t146 -85t99 -130t51.5 -163
l48 67q-4 23 -8 47t-4 49l2 33h139v-53t6.5 -51t21 -38.5t41.5 -15.5q25 0 39.5 15.5t20.5 39.5t6 51v52h142q0 -46 -8.5 -98t-30 -95.5t-61 -71.5t-100.5 -28zM937 645q0 71 -18 136.5t-56.5 115.5t-99 79t-143.5 29q-85 0 -144.5 -29t-98 -79t-56 -115.5t-17.5 -136.5
v-164q0 -71 17.5 -134.5t56 -111.5t98 -76t144.5 -28q83 0 143.5 28t99 75t56.5 110.5t18 136.5v164zM531 -350q-31 29 -31 78t31 79.5t81 30.5t81 -30.5t31 -79.5t-31 -79t-81 -30t-81 31z" />
    <glyph glyph-name="uniAB96_dotbelowcomb" unicode="&#xab96;&#x323;" horiz-adv-x="1007" 
d="M44 0v154h362v828h-362v154h899v-154h-362v-828h362v-154h-899zM408 -350q-31 29 -31 78t31 79.5t81 30.5t81 -30.5t31 -79.5t-31 -79t-81 -30t-81 31z" />
    <glyph glyph-name="uniAB97_dotbelowcomb" unicode="&#xab97;&#x323;" horiz-adv-x="1390" 
d="M528 556h177v-322q0 -32 20.5 -54t50.5 -35.5t63 -19.5t58 -6q52 0 91 28.5t65.5 77.5t41 114t17.5 138.5t-5.5 150.5t-27 150.5t-47.5 138.5t-68 114t-87 77.5t-105 28.5t-93.5 -10.5t-57.5 -34.5t-29 -62.5t-8 -93.5h-178q0 87 26 151.5t73.5 107.5t114.5 64t150 21
q91 0 166.5 -36.5t135 -99t102.5 -146t69.5 -177.5t35 -193t-1 -193t-37.5 -177.5t-75.5 -146t-114 -99t-153.5 -36.5q-71 0 -139 17.5t-127 59.5q-52 -39 -112.5 -58t-125.5 -19q-191 0 -288 90t-97 284q0 58 16 103.5t44 84t65.5 71t81.5 63.5l68 -131q-27 -24 -47 -43.5
t-34 -41t-21 -48.5t-7 -67q0 -109 56 -165.5t165 -56.5q21 0 44 9.5t43 25.5t33 36.5t13 43.5v322zM545 -350q-31 29 -31 78t31 79.5t81 30.5t81 -30.5t31 -79.5t-31 -79t-81 -30t-81 31z" />
    <glyph glyph-name="uniAB98_dotbelowcomb" unicode="&#xab98;&#x323;" horiz-adv-x="1213" 
d="M905 568q-29 0 -47.5 4.5t-36.5 18t-35.5 39.5t-44.5 69l-13 25l96 86q17 -30 27.5 -47.5t16.5 -27t11.5 -12.5t13.5 -3q6 0 14.5 3t14.5 14.5t10.5 34.5t4.5 65q0 66 -49 117t-168 51q-29 0 -58 -12.5t-61 -33.5q71 -104 99 -220.5t28 -241.5q0 -268 -57 -394t-199 -126
q-141 0 -198.5 126t-57.5 394q0 286 144 473q-10 6 -17.5 12.5t-15.5 10.5q-25 12 -38 12q-16 0 -35 -16.5t-34.5 -53t-27 -92.5t-11.5 -137h-173q0 224 77 338.5t204 114.5q54 0 103 -18.5t95 -54.5q54 36 111.5 54.5t121.5 18.5q202 0 297.5 -89.5t95.5 -230.5
q0 -144 -50.5 -207.5t-157.5 -63.5zM477 833q-40 -67 -63 -150.5t-23 -185.5q0 -122 10.5 -195t25 -110.5t27 -49t18.5 -11.5q7 0 19.5 11.5t26 49t24 110.5t10.5 195q0 100 -20 183.5t-55 152.5zM402 -350q-31 29 -31 78t31 79.5t81 30.5t81 -30.5t31 -79.5t-31 -79
t-81 -30t-81 31z" />
    <glyph glyph-name="uniAB99_dotbelowcomb" unicode="&#xab99;&#x323;" horiz-adv-x="1850" 
d="M835 233l251 905h196q0 -22 1 -45t5 -44t15.5 -33.5t34.5 -12.5q7 0 14 5.5t17 13.5q13 10 27.5 23.5t31.5 28.5q33 29 71.5 55t76.5 26q43 0 85 -8.5t73 -28t49.5 -54t18.5 -84.5q0 -54 -14.5 -93.5t-42.5 -68.5t-69.5 -52t-97.5 -44l-54 142q62 18 81.5 43t19.5 69
q0 23 -19.5 26t-38.5 3q-4 0 -27 -18q-19 -17 -41.5 -40t-47.5 -44t-52 -35.5t-54 -14.5q-44 0 -80.5 10.5t-65.5 39.5l-283 -903h-165l-266 853q-25 -58 -72 -98.5t-128 -40.5q-116 0 -191 66.5t-86 181.5l138 72q10 -79 42.5 -124.5t96.5 -45.5q36 0 55.5 32t30 76
t12.5 90.5t2 75.5h194zM751 -350q-31 29 -31 78t31 79.5t81 30.5t81 -30.5t31 -79.5t-31 -79t-81 -30t-81 31z" />
    <glyph glyph-name="uniAB9A_dotbelowcomb" unicode="&#xab9a;&#x323;" horiz-adv-x="1390" 
d="M791 634q43 0 78.5 -11.5t66 -32t55.5 -49.5t47 -64l-138 -82q-19 40 -48.5 68.5t-76.5 28.5q-34 0 -52.5 -22t-27.5 -52.5t-10.5 -64t-1.5 -57.5q0 -46 18 -79.5t48 -55t68.5 -32t79.5 -10.5q52 0 91 28.5t65.5 77.5t41 114t17.5 138.5t-5.5 150.5t-27 150.5
t-47.5 138.5t-68 114t-87 77.5t-105 28.5q-56 0 -92.5 -11.5t-58 -35.5t-29.5 -62t-8 -92h-178q0 87 25.5 151.5t73 107t114.5 64t151 21.5q91 0 166.5 -36.5t135 -99t102.5 -146t69.5 -177.5t35 -193t-1 -193t-37.5 -177.5t-75.5 -146t-114 -99t-153.5 -36.5
q-70 0 -139 17.5t-127 59.5q-52 -38 -113 -57.5t-125 -19.5q-191 0 -288 90.5t-97 283.5q0 57 16 103t44 84t65.5 71t81.5 64l68 -131q-27 -24 -47.5 -44t-34 -42t-20.5 -49t-7 -65q0 -109 56 -165.5t165 -56.5q19 0 45.5 9.5t50.5 25.5t41 36.5t17 43.5q0 31 -10.5 61.5
t-10.5 62.5q0 58 18.5 108t53 87.5t83 59t108.5 21.5zM531 -350q-31 29 -31 78t31 79.5t81 30.5t81 -30.5t31 -79.5t-31 -79t-81 -30t-81 31z" />
    <glyph glyph-name="uniAB9B_dotbelowcomb" unicode="&#xab9b;&#x323;" horiz-adv-x="1068" 
d="M554 -25q-79 0 -155 21t-136.5 63.5t-98 106t-37.5 148.5q0 100 51 171t138 106q-72 42 -110.5 110.5t-38.5 149.5q0 75 32 133.5t85 98t119.5 59t137.5 19.5q69 0 135.5 -17.5t120.5 -55t88.5 -95.5t38.5 -140h-173q-10 79 -69.5 115.5t-132.5 36.5q-87 0 -148.5 -42.5
t-61.5 -121.5t60.5 -129t149.5 -50h102v-152h-110q-48 0 -91.5 -12.5t-77 -36.5t-52 -59.5t-18.5 -78.5q0 -98 72.5 -145t177.5 -47q25 0 63.5 2t74.5 11.5t62 28t26 50.5q0 33 -45 41q-13 4 -25.5 4h-26.5h-67v163h73q41 0 88 -10.5t86.5 -33.5t65.5 -59.5t26 -88.5
q0 -68 -42.5 -118t-104 -82.5t-130 -48t-122.5 -15.5zM456 -350q-31 29 -31 78t31 79.5t81 30.5t81 -30.5t31 -79.5t-31 -79t-81 -30t-81 31z" />
    <glyph glyph-name="uniAB9C_dotbelowcomb" unicode="&#xab9c;&#x323;" horiz-adv-x="1245" 
d="M957 92q-127 -115 -333 -115q-102 0 -187 30t-146.5 86.5t-96 135.5t-34.5 175v732h175v-493h577v493h174v-736q0 -190 -129 -308zM912 491h-577v-91q0 -123 77 -196t212 -73q132 0 210 73t78 196v91zM539 -350q-31 29 -31 78t31 79.5t81 30.5t81 -30.5t31 -79.5t-31 -79
t-81 -30t-81 31z" />
    <glyph glyph-name="uniAB9D_dotbelowcomb" unicode="&#xab9d;&#x323;" horiz-adv-x="1542" 
d="M266 460q-27 0 -43.5 -20t-25 -48t-11.5 -56t-3 -47q0 -77 27 -117.5t56 -40.5q30 0 56 40.5t26 117.5q0 79 -28.5 125t-53.5 46zM930 -23q-162 0 -257.5 78t-118.5 234l-30 -14q-8 -138 -79.5 -218t-178.5 -80q-56 0 -104 22t-82 62.5t-53 99t-19 128.5q0 69 20 128.5
t54.5 102t82 66.5t101.5 24q82 0 145.5 -49t92.5 -143l41 19v210h179v-193q0 -63 6.5 -120t28 -103t62.5 -73t109 -27q121 0 192 74t96 184.5t8 239.5t-68 239t-133 184t-188 74q-42 0 -90 -9.5t-93.5 -29t-86 -51t-67.5 -74.5l-146 97q46 57 104 98.5t121.5 69.5t129 41.5
t126.5 13.5q122 0 222 -56t174 -147.5t120 -209.5t59.5 -239.5t-7.5 -239t-79.5 -209.5t-155 -148t-238.5 -56zM550 -350q-31 29 -31 78t31 79.5t81 30.5t81 -30.5t31 -79.5t-31 -79t-81 -30t-81 31z" />
    <glyph glyph-name="uniAB9E_dotbelowcomb" unicode="&#xab9e;&#x323;" horiz-adv-x="1113" 
d="M1020 345h-312v-345h-171v345h-441v140l376 651h236v-639h312v-152zM537 497v446l-254 -446h254zM535 -350q-31 29 -31 78t31 79.5t81 30.5t81 -30.5t31 -79.5t-31 -79t-81 -30t-81 31z" />
    <glyph glyph-name="uniAB9F_dotbelowcomb" unicode="&#xab9f;&#x323;" horiz-adv-x="1113" 
d="M897 98q-110 -98 -281 -98h-441v1136h177v-422h264q175 0 281 -98q108 -98 108 -258q0 -158 -108 -260zM516 560h-164v-406h258q106 0 161 52t55 152q0 62 -18.5 102t-58 61.5t-98 30t-135.5 8.5zM450 -350q-31 29 -31 78t31 79.5t81 30.5t81 -30.5t31 -79.5t-31 -79
t-81 -30t-81 31z" />
    <glyph glyph-name="uniABA0_dotbelowcomb" unicode="&#xaba0;&#x323;" horiz-adv-x="872" 
d="M604 441q0 73 -16 96t-39 23q-22 0 -77 -33v-527h-181v414q-41 -21 -77 -21q-112 0 -159 67t-47 200h150q0 -73 15.5 -95t38.5 -22q11 0 30.5 7.5t48.5 26.5v559h181v-447q40 19 73 19q113 0 159.5 -67t46.5 -200h-147zM302 -350q-31 29 -31 78t31 79.5t81 30.5t81 -30.5
t31 -79.5t-31 -79t-81 -30t-81 31z" />
    <glyph glyph-name="uniABA1_dotbelowcomb" unicode="&#xaba1;&#x323;" horiz-adv-x="1170" 
d="M612 922q12 13 24.5 25t27.5 25q25 21 55 35.5t72 14.5q62 0 114 -22t88.5 -58.5t57.5 -84t21 -101.5q0 -48 -22 -91t-61.5 -75t-92.5 -51t-118 -19v163q61 0 90 21.5t29 51.5q0 39 -23 69t-83 30q-13 0 -40 -20q-16 -13 -33 -28.5t-35 -32.5q-36 -31 -77.5 -63
t-83.5 -45q-31 -35 -62 -60q-17 -15 -37.5 -29.5t-43.5 -31.5l-38 -27q119 -48 193 -117.5t74 -154.5q0 -115 -69 -192t-200 -77q-62 0 -119.5 23t-100 63.5t-67.5 95.5t-25 122q0 94 26 152t72 104q23 23 48 42.5t52 40.5q23 15 44.5 30.5t44.5 32.5q-77 35 -120.5 106
t-43.5 146q0 47 17.5 89t49 72t73 46.5t89.5 16.5q54 0 96.5 -18.5t72 -52t46 -76t18.5 -90.5zM383 1005q-27 0 -42.5 -19.5t-15.5 -50.5q0 -48 24 -80.5t74 -38.5q6 23 10 55t4 57q0 42 -16.5 59.5t-37.5 17.5zM223 391q-23 -56 -23 -110q0 -71 33 -110.5t102 -39.5
q100 0 100 115q0 39 -53 78.5t-159 66.5zM237 -350q-31 29 -31 78t31 79.5t81 30.5t81 -30.5t31 -79.5t-31 -79t-81 -30t-81 31z" />
    <glyph glyph-name="uniABA2_dotbelowcomb" unicode="&#xaba2;&#x323;" horiz-adv-x="1168" 
d="M603 996h-259v-996h-168v1137h444q79 0 150.5 -20t126 -62t87 -106.5t32.5 -152.5q0 -115 -58 -197t-163 -120l251 -479h-191l-295 587q58 0 110 10t91 33.5t62 61.5t23 94q0 55 -18.5 95t-51 65.5t-77 37.5t-96.5 12zM491 -350q-31 29 -31 78t31 79.5t81 30.5t81 -30.5
t31 -79.5t-31 -79t-81 -30t-81 31z" />
    <glyph glyph-name="uniABA3_dotbelowcomb" unicode="&#xaba3;&#x323;" horiz-adv-x="949" 
d="M768 52q-92 -75 -239 -75q-161 0 -257.5 89.5t-96.5 266.5v803h173v-818q0 -99 46.5 -143t134.5 -44q70 0 115 37.5t49 110.5h169q0 -77 -23 -131t-71 -96zM431 -350q-31 29 -31 78t31 79.5t81 30.5t81 -30.5t31 -79.5t-31 -79t-81 -30t-81 31z" />
    <glyph glyph-name="uniABA4_dotbelowcomb" unicode="&#xaba4;&#x323;" horiz-adv-x="1603" 
d="M987 221l333 915h201l-455 -1136h-163l-127 321l-129 -321h-162l-452 1136h200l333 -915l119 326l-233 589h199l125 -341l123 341h202l-235 -589zM697 -350q-31 29 -31 78t31 79.5t81 30.5t81 -30.5t31 -79.5t-31 -79t-81 -30t-81 31z" />
    <glyph glyph-name="uniABA5_dotbelowcomb" unicode="&#xaba5;&#x323;" horiz-adv-x="1209" 
d="M945 462q33 -58 33 -139q0 -169 -131 -258q-127 -88 -327 -88q-112 0 -200.5 30t-138.5 80q-48 50 -74 109.5t-28 134.5h177q10 -90 81 -145t202 -55q125 0 192.5 51t67.5 130q0 61 -40.5 99.5t-140.5 63.5l-212 52q-63 14 -115 40t-91.5 63.5t-61 87.5t-21.5 112
q0 82 36 144t96.5 105t136.5 63.5t155 20.5q58 0 116.5 -11t110.5 -35t94.5 -60.5t69.5 -86.5h173v-156h-451v156h47q-62 39 -164 39q-112 0 -176.5 -45.5t-64.5 -124.5q0 -54 36 -90.5t118 -57.5l208 -54q21 -4 40.5 -10.5t38.5 -12.5h368v-152h-160zM452 -350
q-31 29 -31 78t31 79.5t81 30.5t81 -30.5t31 -79.5t-31 -79t-81 -30t-81 31z" />
    <glyph glyph-name="uniABA6_dotbelowcomb" unicode="&#xaba6;&#x323;" horiz-adv-x="1184" 
d="M980 52q-93 -75 -243 -75q-165 0 -264.5 89.5t-99.5 266.5v649h-365v154h541v-818q0 -99 49 -143t139 -44q71 0 116.5 35.5t47.5 93.5q2 63 -39.5 105.5t-120.5 46.5v162q81 0 143.5 -25t105 -67.5t63.5 -99.5t21 -122q0 -127 -94 -208zM645 -350q-31 29 -31 78t31 79.5
t81 30.5t81 -30.5t31 -79.5t-31 -79t-81 -30t-81 31z" />
    <glyph glyph-name="uniABA7_dotbelowcomb" unicode="&#xaba7;&#x323;" horiz-adv-x="1009" 
d="M654 0v450q-34 -50 -91 -129.5t-129 -153t-151 -124.5t-156 -47q-8 2 -19 2h-22.5t-29.5 2v158q13 -2 28.5 -3t29.5 -1q17 -2 32 -2q43 -2 95 36.5t106.5 100t106.5 135t93.5 140.5t69.5 117t37 64v391h183v-1136h-183zM662 -350q-31 29 -31 78t31 79.5t81 30.5t81 -30.5
t31 -79.5t-31 -79t-81 -30t-81 31z" />
    <glyph glyph-name="uniABA8_dotbelowcomb" unicode="&#xaba8;&#x323;" horiz-adv-x="1001" 
d="M654 745v237h-548v154h722v-1136h-174v481q-11 -25 -38 -71t-66.5 -101t-89.5 -112.5t-105 -103t-113.5 -73.5t-114.5 -24q-8 2 -19 2h-22.5t-29.5 2v158q13 -2 28.5 -3t29.5 -1q17 -2 32 -2q41 -2 92 34.5t103 95.5t103 131t94 138.5t73 119.5t43 74zM656 -350
q-31 29 -31 78t31 79.5t81 30.5t81 -30.5t31 -79.5t-31 -79t-81 -30t-81 31z" />
    <glyph glyph-name="uniABA9_dotbelowcomb" unicode="&#xaba9;&#x323;" horiz-adv-x="1174" 
d="M562 221l329 915h200l-450 -1136h-160l-448 1136h198zM468 -350q-31 29 -31 78t31 79.5t81 30.5t81 -30.5t31 -79.5t-31 -79t-81 -30t-81 31z" />
    <glyph glyph-name="uniABAA_dotbelowcomb" unicode="&#xabaa;&#x323;" horiz-adv-x="1113" 
d="M843 65q-65 -46 -145 -67t-180 -21q-112 0 -199.5 30t-137.5 80q-48 50 -74 109.5t-28 134.5h175q10 -90 81 -145t202 -55q123 0 190.5 51t67.5 130q0 61 -40.5 99.5t-140.5 63.5l-210 52q-61 14 -114 40t-91.5 63.5t-60 87.5t-21.5 112q0 82 36 144t95.5 105t135.5 63.5
t155 20.5q75 0 149 -18.5t133 -60t98.5 -108t44.5 -162.5h-175q-11 91 -73 143t-181 52q-112 0 -177 -45.5t-65 -124.5q0 -108 154 -148l207 -54q151 -38 235.5 -110.5t84.5 -203.5q0 -169 -131 -258zM450 -350q-31 29 -31 78t31 79.5t81 30.5t81 -30.5t31 -79.5t-31 -79
t-81 -30t-81 31z" />
    <glyph glyph-name="uniABAB_dotbelowcomb" unicode="&#xabab;&#x323;" horiz-adv-x="1492" 
d="M1124 527l-35 158q79 16 113 59t34 99q0 64 -36.5 112t-90.5 48q-31 0 -67.5 -20.5t-68.5 -62.5t-54 -104.5t-24 -145.5l-169 52q2 25 7 48q2 19 4 38.5t2 30.5q0 43 -14.5 73.5t-38.5 51t-54.5 30t-59.5 9.5q-56 0 -99.5 -27t-79.5 -75q102 -16 174 -64t118 -114.5
t67.5 -146t21.5 -158.5q0 -87 -23 -167t-66.5 -140.5t-106 -97t-139.5 -36.5q-79 0 -137 45t-96.5 117.5t-58.5 167.5t-20 193q0 118 23 235.5t76 211.5t137 153t209 59q96 0 173 -36.5t123 -102.5q52 66 112.5 102.5t128.5 36.5q73 0 129.5 -25t95 -66.5t58 -95.5
t19.5 -115q0 -116 -73 -209.5t-214 -120.5zM327 745q-25 -104 -25 -248q0 -81 11.5 -149.5t32 -116.5t46.5 -75t55 -27q25 0 52.5 23t49 63.5t36 94.5t14.5 117q0 122 -65.5 211.5t-206.5 106.5zM362 -350q-31 29 -31 78t31 79.5t81 30.5t81 -30.5t31 -79.5t-31 -79t-81 -30
t-81 31z" />
    <glyph glyph-name="uniABAC_dotbelowcomb" unicode="&#xabac;&#x323;" horiz-adv-x="1378" 
d="M995 -23q-127 0 -194.5 79t-67.5 231q0 54 25 109.5t72 115.5l-135 100l-137 -100q48 -60 73 -115.5t25 -109.5q0 -152 -68 -231t-195 -79q-60 0 -109 10.5t-84.5 35.5t-54 67.5t-18.5 109.5q0 71 38.5 139.5t88.5 124.5t97 93.5t63 50.5l152 106q-54 52 -84 103t-30 101
q0 112 67.5 176.5t173.5 64.5t175 -64.5t69 -176.5q0 -98 -117 -204q56 -42 121.5 -87.5t113.5 -85.5q94 -77 149 -160t55 -181q0 -63 -20.5 -104.5t-56 -68.5t-83.5 -38.5t-104 -11.5zM693 1005q-29 0 -48 -21.5t-19 -63.5q0 -40 69 -104q67 66 67 104q0 42 -20 63.5
t-49 21.5zM970 398q-60 -71 -60 -121q0 -77 31 -111.5t62 -34.5q83 0 83 69q0 85 -116 198zM418 398q-116 -113 -116 -198q0 -69 83 -69q31 0 63.5 34.5t32.5 111.5q0 48 -63 121zM620 -350q-31 29 -31 78t31 79.5t81 30.5t81 -30.5t31 -79.5t-31 -79t-81 -30t-81 31z" />
    <glyph glyph-name="uniABAD_dotbelowcomb" unicode="&#xabad;&#x323;" horiz-adv-x="970" 
d="M175 0v772q0 177 97.5 266.5t260.5 89.5q148 0 239 -77q48 -39 71 -93.5t23 -131.5h-171q-4 71 -49 108.5t-113 37.5q-88 0 -135.5 -43.5t-47.5 -141.5v-631h545v-156h-720zM435 -350q-31 29 -31 78t31 79.5t81 30.5t81 -30.5t31 -79.5t-31 -79t-81 -30t-81 31z" />
    <glyph glyph-name="uniABAE_dotbelowcomb" unicode="&#xabae;&#x323;" horiz-adv-x="914" 
d="M175 0v1136h175v-980h545v-156h-720zM435 -350q-31 29 -31 78t31 79.5t81 30.5t81 -30.5t31 -79.5t-31 -79t-81 -30t-81 31z" />
    <glyph glyph-name="uniABAF_dotbelowcomb" unicode="&#xabaf;&#x323;" horiz-adv-x="1159" 
d="M601 -23q-220 0 -347 130t-127 376v166q0 240 129 375q131 137 348 137q112 0 196 -34q43 -18 79 -41v76h173v-379q1 -15 1 -30h-173q0 61 -18.5 103.5t-56.5 78.5q-74 70 -201 70q-138 0 -220 -90.5t-82 -269.5v-162q0 -181 81 -266.5t227 -85.5q133 0 201.5 64.5
t68.5 166.5h173q0 -66 -26 -135t-81 -125t-140.5 -90.5t-204.5 -34.5zM508 -350q-31 29 -31 78t31 79.5t81 30.5t81 -30.5t31 -79.5t-31 -79t-81 -30t-81 31z" />
    <glyph glyph-name="uniABB0_dotbelowcomb" unicode="&#xabb0;&#x323;" horiz-adv-x="1195" 
d="M907 464v-171q0 -149 -80 -232.5t-211 -83.5t-212 78t-81 220v191q-150 9 -232.5 67t-82.5 177q0 123 67 203t181 80q50 0 94.5 -20t77 -53t51 -77t18.5 -90v-133h236v518h174v-518h171v-156h-171zM323 720q0 67 -19 95t-50 28t-51 -33.5t-20 -99.5q0 -36 29 -57.5
t111 -30.5v98zM733 464h-236v-164q0 -96 30.5 -132.5t90.5 -36.5q54 0 84.5 51t30.5 161v121zM522 -350q-31 29 -31 78t31 79.5t81 30.5t81 -30.5t31 -79.5t-31 -79t-81 -30t-81 31z" />
    <glyph glyph-name="uniABB1_dotbelowcomb" unicode="&#xabb1;&#x323;" horiz-adv-x="1447" 
d="M1093 558l-32 179q67 0 81.5 34t14.5 89q0 75 -45.5 109t-120.5 34q-27 0 -54 -9.5t-57 -23.5q175 -200 175 -473q0 -260 -83 -390t-231 -130q-146 0 -229 130t-83 390q0 134 41.5 253.5t133.5 219.5q-63 33 -109 33q-66 0 -110 -49t-56 -146h96v-75v-61h-417v136h136
q8 70 32 134.5t66.5 112.5t105 76t147.5 28q67 0 127.5 -19.5t118.5 -55.5q123 75 250 75q160 0 249.5 -80t89.5 -217q0 -134 -57.5 -219t-179.5 -85zM741 868q-65 -73 -101 -164.5t-36 -206.5q0 -116 17.5 -187t41.5 -111.5t46 -54t32 -13.5q8 0 31 12.5t47 51t42.5 111.5
t18.5 191q0 115 -36 206.5t-103 164.5zM654 -350q-31 29 -31 78t31 79.5t81 30.5t81 -30.5t31 -79.5t-31 -79t-81 -30t-81 31z" />
    <glyph glyph-name="uniABB2_dotbelowcomb" unicode="&#xabb2;&#x323;" horiz-adv-x="1097" 
d="M897 520q-110 -97 -281 -97h-264v-423h-177v1136h441q175 0 281 -97q108 -102 108 -261q0 -160 -108 -258zM610 982h-258v-405h164q77 0 135.5 8t98 30t58 61.5t18.5 101.5q0 100 -55 152t-161 52zM185 -350q-31 29 -31 78t31 79.5t81 30.5t81 -30.5t31 -79.5t-31 -79
t-81 -30t-81 31z" />
    <glyph glyph-name="uniABB3_dotbelowcomb" unicode="&#xabb3;&#x323;" horiz-adv-x="1182" 
d="M735 676v165h125q-30 85 -88 124.5t-166 39.5q-138 0 -221 -90.5t-83 -269.5v-162q0 -181 82 -266.5t226 -85.5q133 0 201.5 64.5t68.5 166.5h175q0 -66 -26 -135t-81 -125t-140.5 -90.5t-203.5 -34.5q-223 0 -350 130t-127 376v166q0 240 129 375q129 133 350 137
q177 0 289 -76t154 -244h50v-165h-364zM525 -350q-31 29 -31 78t31 79.5t81 30.5t81 -30.5t31 -79.5t-31 -79t-81 -30t-81 31z" />
    <glyph glyph-name="uniABB4_dotbelowcomb" unicode="&#xabb4;&#x323;" horiz-adv-x="1174" 
d="M641 0h-233v982h-364v154h541v-853l306 853h200zM456 -350q-31 29 -31 78t31 79.5t81 30.5t81 -30.5t31 -79.5t-31 -79t-81 -30t-81 31z" />
    <glyph glyph-name="uniABB5_dotbelowcomb" unicode="&#xabb5;&#x323;" horiz-adv-x="1347" 
d="M1157 676q-19 52 -45 84.5t-65 32.5q-29 0 -59.5 -12.5t-59.5 -29.5l-39 -20v-731h-177v637l-360 -192v-445h-177v1136h177v-501l491 260q44 25 95 42.5t105 17.5q93 0 155.5 -62.5t89.5 -147.5zM448 -350q-31 29 -31 78t31 79.5t81 30.5t81 -30.5t31 -79.5t-31 -79
t-81 -30t-81 31z" />
    <glyph glyph-name="uniABB6_dotbelowcomb" unicode="&#xabb6;&#x323;" horiz-adv-x="1188" 
d="M352 1565v-943l501 514h219l-464 -487l483 -649h-225l-387 533l-127 -129v-404h-177v1565h177zM458 -350q-31 29 -31 78t31 79.5t81 30.5t81 -30.5t31 -79.5t-31 -79t-81 -30t-81 31z" />
    <glyph glyph-name="uniABB7_dotbelowcomb" unicode="&#xabb7;&#x323;" horiz-adv-x="862" 
d="M341 -23q-73 0 -133 19t-106 56q-94 81 -94 208v158q0 127 94 208q46 40 106 58.5t133 18.5q104 0 181 -39v472h173v-803q0 -177 -96.5 -266.5t-257.5 -89.5zM522 360q0 100 -46.5 143.5t-134.5 43.5q-70 0 -116 -35t-46 -94v-158q0 -56 46 -92.5t116 -36.5
q88 0 134.5 44t46.5 143v42zM258 -350q-31 29 -31 78t31 79.5t81 30.5t81 -30.5t31 -79.5t-31 -79t-81 -30t-81 31z" />
    <glyph glyph-name="uniABB8_dotbelowcomb" unicode="&#xabb8;&#x323;" horiz-adv-x="1501" 
d="M1195 689l-134 183l-137 -183q0 67 -24 125t-66.5 100.5t-100 66.5t-123.5 24q-138 0 -222 -90.5t-84 -269.5v-162q0 -181 82 -266.5t228 -85.5q69 0 125 24t97.5 66.5t64.5 101t23 124.5l135 -183l136 183l222 -322l-112 -54l-112 160l-136 -185l-81 123
q-112 -196 -368 -192q-225 0 -353 130t-128 376v166q0 242 131 375q131 137 352 137q256 0 368 -193l81 123l136 -186l112 161l112 -54zM522 -350q-31 29 -31 78t31 79.5t81 30.5t81 -30.5t31 -79.5t-31 -79t-81 -30t-81 31z" />
    <glyph glyph-name="uniABB9_dotbelowcomb" unicode="&#xabb9;&#x323;" horiz-adv-x="1317" 
d="M1276 -14q-29 -7 -53 -8.5t-46 -1.5q-72 0 -129 25.5t-90 85.5q-35 -31 -74.5 -52t-82.5 -34t-89 -19t-93 -6q-132 0 -225.5 39.5t-152.5 109t-86 164t-27 204.5v156q0 106 30 199.5t91.5 163t155 109.5t219.5 40q94 0 174 -25t140.5 -74t98 -120.5t45.5 -165.5h-164
q-16 118 -94.5 180t-202.5 62q-89 0 -151 -30t-101 -80.5t-57 -117.5t-18 -141v-156q0 -74 16 -142t54 -119.5t100 -82t154 -30.5q60 0 115 16t96.5 47t66 75t24.5 101v100h-143v143h451v-143h-144v-189q0 -34 4 -63.5t16.5 -51t36.5 -34t64 -12.5q14 0 30 1.5t41 6.5v-130z
M533 -350q-31 29 -31 78t31 79.5t81 30.5t81 -30.5t31 -79.5t-31 -79t-81 -30t-81 31z" />
    <glyph glyph-name="uniABBA_dotbelowcomb" unicode="&#xabba;&#x323;" horiz-adv-x="1559" 
d="M839 -23q-75 0 -145 12.5t-132 50.5q-48 -36 -96 -49.5t-96 -13.5q-79 0 -145.5 27t-114.5 78t-75 123t-27 161h175q0 -122 55 -178.5t126 -56.5q23 0 65 25q-148 175 -148 466q0 269 58.5 404t201.5 135q146 0 225 -139.5t79 -399.5q0 -118 -43.5 -239t-118.5 -219
q37 -18 75.5 -25.5t80.5 -7.5q48 0 103 14.5t105 55t90.5 113.5t61.5 188q-90 25 -150 59t-96.5 82t-52 110.5t-15.5 143.5q0 44 14.5 90.5t43.5 85t72.5 63.5t100.5 25q85 0 139 -29t85.5 -87t44 -146.5t12.5 -207.5q0 -196 -44 -331t-119 -220.5t-177 -124t-218 -38.5z
M1128 1003q-23 0 -45 -33t-22 -106q0 -75 32.5 -121t126.5 -75v23q0 94 -7.5 154t-20 95.5t-29 49t-35.5 13.5zM541 1003q-6 0 -18.5 -13.5t-27 -54t-25 -115.5t-10.5 -198q0 -106 24 -190t68 -149q25 38 45.5 80.5t36 87t25 89.5t9.5 82q0 119 -17.5 194t-39.5 116.5
t-43 56t-27 14.5zM468 -350q-31 29 -31 78t31 79.5t81 30.5t81 -30.5t31 -79.5t-31 -79t-81 -30t-81 31z" />
    <glyph glyph-name="uniABBB_dotbelowcomb" unicode="&#xabbb;&#x323;" horiz-adv-x="1240" 
d="M968 108q-129 -131 -356 -131q-112 0 -201.5 34.5t-152 99t-97 158t-34.5 212.5v164q0 242 133 377q131 139 354 139q221 0 356 -139q133 -140 133 -377v-164q0 -237 -135 -373zM926 645q0 177 -86.5 268.5t-225.5 91.5q-104 0 -178 -50t-109 -147h160q52 0 95.5 -31.5
t62.5 -85.5l71 -194q15 -41 33.5 -59t39.5 -18h135q2 15 2 29.5v31.5v164zM737 287q-61 0 -110.5 41.5t-72.5 118.5l-54 167q-5 10 -10 19.5t-13 20.5q-17 20 -38 20h-137v-29v-164q0 -92 24 -157.5t65.5 -108t98.5 -63.5t124 -21q92 0 162.5 38.5t110.5 117.5h-150z
M522 -350q-31 29 -31 78t31 79.5t81 30.5t81 -30.5t31 -79.5t-31 -79t-81 -30t-81 31z" />
    <glyph glyph-name="uniABBC_dotbelowcomb" unicode="&#xabbc;&#x323;" horiz-adv-x="1447" 
d="M714 -23q-108 0 -213.5 35.5t-188.5 118.5t-134 220.5t-51 339.5q0 227 76 347.5t234 120.5q60 0 104 -31t72 -81t41.5 -109.5t13.5 -115.5q0 -181 -70.5 -297.5t-227.5 -174.5q32 -69 75.5 -111.5t90.5 -66.5t93.5 -32.5t84.5 -8.5q110 0 187 46t126 118.5t71 165.5
t22 184q0 73 -12.5 137.5t-30.5 113.5t-37.5 78t-34.5 29q-18 0 -34 -8t-27.5 -31t-16.5 -65t-5 -108h-177q0 112 21 184t56 112.5t82 56t101 15.5q71 0 125 -44.5t90.5 -118.5t55.5 -169.5t19 -197.5q0 -123 -32.5 -239.5t-102 -208.5t-180 -148t-266.5 -56zM425 1005
q-30 0 -53.5 -13.5t-39.5 -47.5t-24 -95.5t-8 -157.5q0 -29 3 -56t7 -52q2 -19 5 -37.5t8 -35.5q168 73 168 266q0 104 -16.5 166.5t-49.5 62.5zM647 -350q-31 29 -31 78t31 79.5t81 30.5t81 -30.5t31 -79.5t-31 -79t-81 -30t-81 31z" />
    <glyph glyph-name="uniABBD_dotbelowcomb" unicode="&#xabbd;&#x323;" horiz-adv-x="1128" 
d="M462 -25q-137 0 -259 75t-201 227l160 71q57 -115 130.5 -166t152.5 -51q92 0 163 63.5t118 180.5q-87 27 -151.5 69.5t-107 96.5t-63.5 117.5t-21 130.5q0 79 26 146.5t69.5 117.5t101 78t117.5 28q125 0 206 -117.5t81 -350.5q0 -125 -34 -253t-99.5 -231
t-163.5 -167.5t-225 -64.5zM685 1005q-19 0 -42 -17.5t-41.5 -47.5t-31 -71t-12.5 -86q0 -42 16.5 -83.5t45.5 -77t68.5 -61.5t87.5 -32q21 48 28.5 89.5t7.5 87.5q0 77 -12.5 134t-32.5 93.5t-42 54t-40 17.5zM371 -350q-31 29 -31 78t31 79.5t81 30.5t81 -30.5t31 -79.5
t-31 -79t-81 -30t-81 31z" />
    <glyph glyph-name="uniABBE_dotbelowcomb" unicode="&#xabbe;&#x323;" horiz-adv-x="1097" 
d="M300 577q54 54 125.5 84t151.5 30q74 0 142 -26t121 -72t84 -108t31 -135q0 -79 -30 -148t-83 -119t-126 -78t-156 -28q-115 0 -197 52t-134 132t-77 176t-25 183q0 100 17.5 212.5t67.5 207t139.5 157t231.5 62.5q64 0 128.5 -24t116.5 -67.5t86.5 -105t40.5 -134.5
h-175q-18 75 -75.5 127t-130.5 52q-87 0 -140 -40.5t-83 -104t-40.5 -139.5t-10.5 -146zM564 533q-44 0 -82.5 -20t-67.5 -51t-45.5 -69.5t-16.5 -78.5q0 -33 18.5 -66.5t49 -59.5t67.5 -42.5t75 -16.5q100 0 159 60.5t59 151.5q0 84 -61 138t-155 54zM495 -350
q-31 29 -31 78t31 79.5t81 30.5t81 -30.5t31 -79.5t-31 -79t-81 -30t-81 31z" />
    <glyph glyph-name="uniABBF_dotbelowcomb" unicode="&#xabbf;&#x323;" horiz-adv-x="1390" 
d="M705 484v-250q0 -28 18 -49.5t46 -36t62 -22t66 -7.5q52 0 91.5 28.5t66 77.5t41 114t17.5 138.5t-5.5 150.5t-27.5 150.5t-48 138.5t-68 114t-87 77.5t-105 28.5t-93.5 -11t-57.5 -35t-29 -62.5t-8 -92.5h-178q0 104 33.5 170.5t86 105t117 53.5t127.5 15
q91 0 167 -36.5t135.5 -99t102.5 -146t69 -177.5t34.5 -193t-1.5 -193t-38 -177.5t-75 -146t-113.5 -99t-153.5 -36.5q-158 0 -266 77q-102 -77 -238 -77q-190 0 -287.5 90t-97.5 284q0 62 18.5 110t48 86t66.5 68.5t74 57.5l68 -131q-13 -12 -22.5 -20t-18.5 -16
q-19 -17 -33 -37q-15 -21 -25 -51t-10 -76q0 -106 54 -164t167 -58q18 0 41.5 9t43.5 25t34 36.5t14 44.5v266l-22 34l-115 -134v156l117 171l82 -122l82 122l83 -122l75 113h131l-207 -311zM545 -350q-31 29 -31 78t31 79.5t81 30.5t81 -30.5t31 -79.5t-31 -79t-81 -30
t-81 31z" />
    <glyph glyph-name="uni13A0_uni0324" unicode="&#x13a0;&#x324;" horiz-adv-x="1486" 
d="M1328 743q0 -169 -34.5 -297t-107.5 -234q-73 -102 -201 -157t-309 -55h-466v1486h466q179 0 304 -55t202 -154t111.5 -235.5t34.5 -298.5zM1149 743q0 587 -479 587h-285v-1172h285q479 0 479 585zM346 -281q0 46 34.5 78t82.5 32q47 0 81.5 -32t34.5 -78t-34.5 -78
t-81.5 -32q-32 0 -59 14.5t-42.5 39.5t-15.5 56zM737 -281q0 46 33.5 78t79.5 32q33 0 60 -14.5t42.5 -39.5t15.5 -56q0 -48 -34 -79t-84 -31q-46 0 -79.5 32t-33.5 78z" />
    <glyph glyph-name="uni13A1_uni0324" unicode="&#x13a1;&#x324;" horiz-adv-x="1415" 
d="M1331 10q-26 -8 -53 -9t-53 -1q-56 0 -97.5 10.5t-73.5 33t-57 57.5t-47 83l-190 413h-375v-597h-175v1486h529q102 0 188 -29t148.5 -85t98 -137.5t35.5 -187.5q0 -145 -69 -253.5t-208 -160.5l174 -361q13 -28 25.5 -51.5t29 -40.5t39.5 -26.5t58 -9.5q18 0 36.5 1
t36.5 5v-140zM1030 1034q0 73 -22 128.5t-62.5 93t-98.5 56t-129 18.5h-333v-577h325q70 0 128.5 16t101 49.5t66.5 87t24 128.5zM356 -281q0 46 34.5 78t82.5 32q47 0 81.5 -32t34.5 -78t-34.5 -78t-81.5 -32q-32 0 -59 14.5t-42.5 39.5t-15.5 56zM747 -281q0 46 33.5 78
t79.5 32q33 0 60 -14.5t42.5 -39.5t15.5 -56q0 -48 -34 -79t-84 -31q-46 0 -79.5 32t-33.5 78z" />
    <glyph glyph-name="uni13A2_uni0324" unicode="&#x13a2;&#x324;" horiz-adv-x="1201" 
d="M1136 1330h-455v-1330h-173v1330h-456v156h1084v-156zM281 -281q0 46 34.5 78t82.5 32q47 0 81.5 -32t34.5 -78t-34.5 -78t-81.5 -32q-32 0 -59 14.5t-42.5 39.5t-15.5 56zM672 -281q0 46 33.5 78t79.5 32q33 0 60 -14.5t42.5 -39.5t15.5 -56q0 -48 -34 -79t-84 -31
q-46 0 -79.5 32t-33.5 78z" />
    <glyph glyph-name="uni13A3_uni0324" unicode="&#x13a3;&#x324;" horiz-adv-x="1546" 
d="M1378 458q0 -73 -16.5 -158.5t-54 -158t-99 -121.5t-151.5 -49q-87 0 -144.5 37.5t-92.5 96.5t-49.5 133t-14.5 147h162q0 -33 3 -78t17.5 -84.5t40.5 -66.5t74 -27q46 0 77 38.5t49 90.5t25 107t7 89q0 93 -22.5 180.5t-71.5 156.5t-125 110.5t-180 41.5
q-131 0 -205 -67.5t-122 -180.5q62 -66 86 -151.5t24 -175.5q0 -66 -16.5 -137t-52 -128t-90.5 -94.5t-134 -37.5t-134.5 37.5t-89.5 94.5t-51 128t-17 137q0 65 17 137t52 132t90.5 99.5t132.5 39.5q10 0 18.5 1t18.5 -3q48 117 127 200t204 112v244h-173v158h519v-158
h-173v-231q129 -8 229 -63.5t167.5 -144t103 -200.5t35.5 -233zM429 368q0 25 -6.5 69t-21 85.5t-38.5 71.5t-61 30q-38 0 -62 -29t-38.5 -70.5t-19.5 -85.5t-5 -71t6 -68.5t19.5 -80t37.5 -66.5t62 -28q37 0 62 28t38.5 66.5t20 80t6.5 68.5zM448 -281q0 46 34.5 78
t82.5 32q47 0 81.5 -32t34.5 -78t-34.5 -78t-81.5 -32q-32 0 -59 14.5t-42.5 39.5t-15.5 56zM839 -281q0 46 33.5 78t79.5 32q33 0 60 -14.5t42.5 -39.5t15.5 -56q0 -48 -34 -79t-84 -31q-46 0 -79.5 32t-33.5 78z" />
    <glyph glyph-name="uni13A4_uni0324" unicode="&#x13a4;&#x324;" horiz-adv-x="1838" 
d="M1730 968q-7 -54 -27.5 -101t-54 -81.5t-78 -55t-96.5 -20.5h-146v-86q0 -312 -160 -485q-159 -170 -431 -170q-136 0 -244 43.5t-184 128t-116.5 206t-40.5 277.5v223q0 312 160 491t429 179q266 0 427 -179q152 -166 160 -451h129q46 0 76 35t28 83q-4 44 -32 76
t-72 32h-56v169h73q58 0 108 -27t84 -70.5t52 -101t12 -115.5zM1155 624v223q0 123 -30 217.5t-85.5 160t-131 100t-169.5 34.5q-92 0 -168 -33.5t-131 -99t-85 -160t-30 -219.5v-223q0 -129 32 -222.5t87.5 -154t131 -90.5t163.5 -30q87 0 163 30t132.5 90.5t88.5 154
t32 222.5zM433 -281q0 46 34.5 78t82.5 32q47 0 81.5 -32t34.5 -78t-34.5 -78t-81.5 -32q-32 0 -59 14.5t-42.5 39.5t-15.5 56zM824 -281q0 46 33.5 78t79.5 32q33 0 60 -14.5t42.5 -39.5t15.5 -56q0 -48 -34 -79t-84 -31q-46 0 -79.5 32t-33.5 78z" />
    <glyph glyph-name="uni13A5_uni0324" unicode="&#x13a5;&#x324;" horiz-adv-x="643" 
d="M431 1249q0 -48 -36.5 -85.5t-86.5 -37.5q-52 0 -87.5 36.5t-35.5 86.5q0 52 36.5 87.5t86.5 35.5q46 0 85 -36q38 -37 38 -87zM506 0h-396v156h113v816h172v-816h111v-156zM-4 -281q0 46 34.5 78t82.5 32q47 0 81.5 -32t34.5 -78t-34.5 -78t-81.5 -32q-32 0 -59 14.5
t-42.5 39.5t-15.5 56zM387 -281q0 46 33.5 78t79.5 32q33 0 60 -14.5t42.5 -39.5t15.5 -56q0 -48 -34 -79t-84 -31q-46 0 -79.5 32t-33.5 78z" />
    <glyph glyph-name="uni13A6_uni0324" unicode="&#x13a6;&#x324;" horiz-adv-x="1434" 
d="M1295 793l-304 -62q91 -55 137 -132t46 -189q0 -212 -156 -327q-152 -114 -394 -114q-137 0 -243 39.5t-165 103.5q-116 132 -120 286h175q12 -119 110 -195t266 -76q158 0 254 73t96 198q0 93 -59.5 151.5t-186.5 91.5l-89 23l-566 -115v154l266 55q-100 50 -160 132
t-60 207q0 102 42.5 181t114 134t162.5 83.5t188 25.5q92 0 181.5 -25t161.5 -76t117.5 -130t49.5 -189h-175q-12 119 -97.5 190.5t-241.5 71.5q-145 0 -236 -66.5t-91 -187.5q0 -170 211 -227l191 -52l575 117v-154zM348 -281q0 46 34.5 78t82.5 32q47 0 81.5 -32t34.5 -78
t-34.5 -78t-81.5 -32q-32 0 -59 14.5t-42.5 39.5t-15.5 56zM739 -281q0 46 33.5 78t79.5 32q33 0 60 -14.5t42.5 -39.5t15.5 -56q0 -48 -34 -79t-84 -31q-46 0 -79.5 32t-33.5 78z" />
    <glyph glyph-name="uni13A7_uni0324" unicode="&#x13a7;&#x324;" horiz-adv-x="1705" 
d="M1548 778q0 -149 -46.5 -294t-135 -259.5t-216.5 -185t-290 -70.5q-200 0 -336.5 82t-218.5 214.5t-117.5 301t-35.5 343.5q0 91 11.5 196t50 194.5t110 149t192.5 59.5q75 0 125 -43.5t80 -108.5t43.5 -138.5t13.5 -132.5q0 -108 -18.5 -204.5t-62 -177t-115.5 -141.5
t-180 -101q58 -152 174.5 -243.5t283.5 -91.5q47 0 95 12.5t90 33.5q87 43 149.5 107.5t102 144t58.5 170t19 183.5q0 88 -13.5 174.5t-47 163.5t-90.5 139t-143 102l81 152q107 -54 179.5 -132t119.5 -174t67.5 -204t20.5 -221zM608 1022q0 21 -3.5 77t-14.5 113.5t-33 102
t-57 44.5q-71 0 -106.5 -53t-51 -126t-16.5 -149t-1 -121q0 -73 5 -143t20 -138q131 52 194.5 154t63.5 239zM545 -281q0 46 34.5 78t82.5 32q47 0 81.5 -32t34.5 -78t-34.5 -78t-81.5 -32q-32 0 -59 14.5t-42.5 39.5t-15.5 56zM936 -281q0 46 33.5 78t79.5 32
q33 0 60 -14.5t42.5 -39.5t15.5 -56q0 -48 -34 -79t-84 -31q-46 0 -79.5 32t-33.5 78z" />
    <glyph glyph-name="uni13A8_uni0324" unicode="&#x13a8;&#x324;" horiz-adv-x="1049" 
d="M957 1230q0 -54 -10 -113.5t-35 -111.5t-69 -85t-110 -33q-44 0 -85.5 13.5t-73.5 46.5q-16 -25 -39 -59.5t-48 -71t-50 -73.5t-46 -69v-674h-181v1486h181v-579l113 169q-7 33 -12 66.5t-3 68.5v19h125q0 -27 3 -63.5t13.5 -69.5t32.5 -56t59 -23q38 0 60.5 23t33 56
t14 69.5t3.5 63.5h124zM-10 -281q0 46 34.5 78t82.5 32q47 0 81.5 -32t34.5 -78t-34.5 -78t-81.5 -32q-32 0 -59 14.5t-42.5 39.5t-15.5 56zM381 -281q0 46 33.5 78t79.5 32q33 0 60 -14.5t42.5 -39.5t15.5 -56q0 -48 -34 -79t-84 -31q-46 0 -79.5 32t-33.5 78z" />
    <glyph glyph-name="uni13A9_uni0324" unicode="&#x13a9;&#x324;" horiz-adv-x="1303" 
d="M1228 1488l-656 -1357q-79 -162 -251 -162q-50 0 -100 15.5t-88.5 45.5t-62.5 74t-24 100v54h173q0 -23 7 -46t19.5 -42.5t31.5 -32t44 -12.5q35 0 57 21t34 50l148 314l-479 978h198l379 -774l370 774h200zM350 -281q0 46 34.5 78t82.5 32q47 0 81.5 -32t34.5 -78
t-34.5 -78t-81.5 -32q-32 0 -59 14.5t-42.5 39.5t-15.5 56zM741 -281q0 46 33.5 78t79.5 32q33 0 60 -14.5t42.5 -39.5t15.5 -56q0 -48 -34 -79t-84 -31q-46 0 -79.5 32t-33.5 78z" />
    <glyph glyph-name="uni13AA_uni0324" unicode="&#x13aa;&#x324;" horiz-adv-x="1376" 
d="M1295 0h-188l-154 458h-562l-154 -458h-179l535 1486h169zM905 599l-229 673h-6l-229 -673h464zM368 -281q0 46 34.5 78t82.5 32q47 0 81.5 -32t34.5 -78t-34.5 -78t-81.5 -32q-32 0 -59 14.5t-42.5 39.5t-15.5 56zM759 -281q0 46 33.5 78t79.5 32q33 0 60 -14.5
t42.5 -39.5t15.5 -56q0 -48 -34 -79t-84 -31q-46 0 -79.5 32t-33.5 78z" />
    <glyph glyph-name="uni13AB_uni0324" unicode="&#x13ab;&#x324;" horiz-adv-x="1084" 
d="M885 425q0 -227 -117 -341.5t-312 -114.5q-179 0 -289 98q-111 100 -111 260h169q4 -94 70.5 -147t160.5 -53q118 0 187 67.5t69 211.5v1080h173v-1061zM152 -281q0 46 34.5 78t82.5 32q47 0 81.5 -32t34.5 -78t-34.5 -78t-81.5 -32q-32 0 -59 14.5t-42.5 39.5t-15.5 56z
M543 -281q0 46 33.5 78t79.5 32q33 0 60 -14.5t42.5 -39.5t15.5 -56q0 -48 -34 -79t-84 -31q-46 0 -79.5 32t-33.5 78z" />
    <glyph glyph-name="uni13AC_uni0324" unicode="&#x13ac;&#x324;" horiz-adv-x="1211" 
d="M1093 0h-883v1486h883v-158h-708v-489h668v-158h-668v-523h708v-158zM331 -281q0 46 34.5 78t82.5 32q47 0 81.5 -32t34.5 -78t-34.5 -78t-81.5 -32q-32 0 -59 14.5t-42.5 39.5t-15.5 56zM722 -281q0 46 33.5 78t79.5 32q33 0 60 -14.5t42.5 -39.5t15.5 -56
q0 -48 -34 -79t-84 -31q-46 0 -79.5 32t-33.5 78z" />
    <glyph glyph-name="uni13AD_uni0324" unicode="&#x13ad;&#x324;" horiz-adv-x="1590" 
d="M1471 862l-464 -862h-258v864h-137q-13 -48 -41 -89.5t-67.5 -72t-87.5 -48t-100 -17.5q-127 0 -216 89q-90 90 -90 217t90 216q89 90 216 90t217 -90q62 -62 81 -141h135v468h167v-468h555v-156zM1292 851v13h-376v-708h8zM491 943q0 73 -51 124t-124 51
q-35 0 -66 -13.5t-54 -37.5t-37.5 -55.5t-14.5 -68.5q0 -36 14.5 -67t37.5 -54t54 -37.5t66 -14.5q38 0 69 14.5t55 37.5t37.5 54t13.5 67zM529 -281q0 46 34.5 78t82.5 32q47 0 81.5 -32t34.5 -78t-34.5 -78t-81.5 -32q-32 0 -59 14.5t-42.5 39.5t-15.5 56zM920 -281
q0 46 33.5 78t79.5 32q33 0 60 -14.5t42.5 -39.5t15.5 -56q0 -48 -34 -79t-84 -31q-46 0 -79.5 32t-33.5 78z" />
    <glyph glyph-name="uni13AE_uni0324" unicode="&#x13ae;&#x324;" horiz-adv-x="1093" 
d="M937 947q0 -131 -44 -230t-122 -165.5t-183 -100t-230 -33.5v-418h-173v778h173v-195q89 0 164 20.5t128 65.5t83.5 113.5t30.5 164.5q0 71 -15.5 143.5t-52 132t-95 96t-141.5 36.5q-58 0 -103 -28t-75 -72t-45.5 -98t-15.5 -106h-171q0 96 27 180t79 145.5t129 97
t179 35.5q125 0 214.5 -45t146.5 -122t84.5 -179t27.5 -216zM-35 -281q0 46 34.5 78t82.5 32q47 0 81.5 -32t34.5 -78t-34.5 -78t-81.5 -32q-32 0 -59 14.5t-42.5 39.5t-15.5 56zM356 -281q0 46 33.5 78t79.5 32q33 0 60 -14.5t42.5 -39.5t15.5 -56q0 -48 -34 -79t-84 -31
q-46 0 -79.5 32t-33.5 78z" />
    <glyph glyph-name="uni13AF_uni0324" unicode="&#x13af;&#x324;" horiz-adv-x="1540" 
d="M1372 758q0 -211 -28.5 -360.5t-81.5 -244.5t-127 -139.5t-167 -44.5q-123 0 -191.5 54t-68.5 133q0 35 7 69.5t24 74.5h152q0 -4 -6.5 -32.5t-6.5 -51.5q0 -89 86 -89q197 0 222 472h-562q-12 -137 -31 -252.5t-57.5 -200t-102 -131t-160.5 -46.5q-119 0 -191 43.5
t-72 131.5q0 70 32 156h152q0 -4 -6.5 -32.5t-6.5 -51.5q0 -89 87 -89q69 0 105.5 60.5t55 160t26 225.5t17.5 257q11 132 35 255.5t76 219.5t136 154t216 58q231 0 334 -190.5t103 -568.5zM1191 741q0 310 -61.5 464t-222.5 154q-68 0 -115 -37.5t-76 -101t-44.5 -146.5
t-24.5 -173l-14 -160h558zM599 -281q0 46 34.5 78t82.5 32q47 0 81.5 -32t34.5 -78t-34.5 -78t-81.5 -32q-32 0 -59 14.5t-42.5 39.5t-15.5 56zM990 -281q0 46 33.5 78t79.5 32q33 0 60 -14.5t42.5 -39.5t15.5 -56q0 -48 -34 -79t-84 -31q-46 0 -79.5 32t-33.5 78z" />
    <glyph glyph-name="uni13B0_uni0324" unicode="&#x13b0;&#x324;" horiz-adv-x="1093" 
d="M1022 649h-637v-649h-175v1486h175v-678h637v-159zM-8 -281q0 46 34.5 78t82.5 32q47 0 81.5 -32t34.5 -78t-34.5 -78t-81.5 -32q-32 0 -59 14.5t-42.5 39.5t-15.5 56zM383 -281q0 46 33.5 78t79.5 32q33 0 60 -14.5t42.5 -39.5t15.5 -56q0 -48 -34 -79t-84 -31
q-46 0 -79.5 32t-33.5 78z" />
    <glyph glyph-name="uni13B1_uni0324" unicode="&#x13b1;&#x324;" horiz-adv-x="1101" 
d="M1078 1328h-693v-1328h-175v1486h868v-158zM-6 -281q0 46 34.5 78t82.5 32q47 0 81.5 -32t34.5 -78t-34.5 -78t-81.5 -32q-32 0 -59 14.5t-42.5 39.5t-15.5 56zM385 -281q0 46 33.5 78t79.5 32q33 0 60 -14.5t42.5 -39.5t15.5 -56q0 -48 -34 -79t-84 -31q-46 0 -79.5 32
t-33.5 78z" />
    <glyph glyph-name="uni13B2_uni0324" unicode="&#x13b2;&#x324;" horiz-adv-x="1694" 
d="M1603 443h-167q-8 -98 -35 -185t-77 -151.5t-125 -102t-177 -37.5q-79 0 -155 28t-151 78q-73 -50 -150 -78t-156 -28q-191 0 -295.5 104t-104.5 274q0 86 24 159t66 126t96 83t116 30l31 -187q-37 0 -67 -18t-52 -47t-34.5 -66.5t-12.5 -76.5q0 -119 66.5 -170
t166.5 -51q42 0 84.5 20t88.5 44q-229 267 -229 646q0 347 99 511.5t263 164.5t264 -164.5t100 -511.5q0 -385 -229 -646q44 -24 86.5 -44t84.5 -20q100 0 160.5 83t74.5 233h-173v131h519v-131zM914 837q0 156 -23 257t-55.5 159t-65.5 81t-54 23q-17 0 -50 -21t-65.5 -78
t-56.5 -158t-24 -263q0 -169 52 -302t144 -237q94 104 146 237t52 302zM414 -281q0 46 34.5 78t82.5 32q47 0 81.5 -32t34.5 -78t-34.5 -78t-81.5 -32q-32 0 -59 14.5t-42.5 39.5t-15.5 56zM805 -281q0 46 33.5 78t79.5 32q33 0 60 -14.5t42.5 -39.5t15.5 -56q0 -48 -34 -79
t-84 -31q-46 0 -79.5 32t-33.5 78z" />
    <glyph glyph-name="uni13B3_uni0324" unicode="&#x13b3;&#x324;" horiz-adv-x="1931" 
d="M610 0h-152l-412 1486h204l285 -1211h8l298 1167h185l298 -1167h8l285 1211h204l-412 -1486h-154l-318 1155h-9zM624 -281q0 46 34.5 78t82.5 32q47 0 81.5 -32t34.5 -78t-34.5 -78t-81.5 -32q-32 0 -59 14.5t-42.5 39.5t-15.5 56zM1015 -281q0 46 33.5 78t79.5 32
q33 0 60 -14.5t42.5 -39.5t15.5 -56q0 -48 -34 -79t-84 -31q-46 0 -79.5 32t-33.5 78z" />
    <glyph glyph-name="uni13B4_uni0324" unicode="&#x13b4;&#x324;" horiz-adv-x="1442" 
d="M1288 1105h-172q0 38 -7.5 82.5t-26 83t-51 63.5t-80.5 25q-85 0 -143.5 -43.5t-58.5 -133.5q0 -62 30.5 -115t76 -104t99.5 -105.5t100 -115.5t76 -134t30 -165q0 -106 -32 -193.5t-91.5 -150t-144.5 -96.5t-192 -34q-120 0 -221 33t-174 97.5t-113.5 160.5t-40.5 221
q0 112 37.5 194.5t101 142.5t148.5 100.5t183 68.5q-23 45 -33 95t-10 102q0 75 27 136.5t73.5 105t110 67.5t136.5 24q100 0 170 -29t112.5 -83t61 -130t18.5 -170zM989 429q0 62 -26 117t-66 106t-85.5 97t-83.5 88q-77 -15 -149.5 -42t-129 -70.5t-90.5 -108t-34 -154.5
q0 -169 97.5 -253t260.5 -84q141 0 223.5 80t82.5 224zM341 -281q0 46 34.5 78t82.5 32q47 0 81.5 -32t34.5 -78t-34.5 -78t-81.5 -32q-32 0 -59 14.5t-42.5 39.5t-15.5 56zM732 -281q0 46 33.5 78t79.5 32q33 0 60 -14.5t42.5 -39.5t15.5 -56q0 -48 -34 -79t-84 -31
q-46 0 -79.5 32t-33.5 78z" />
    <glyph glyph-name="uni13B5_uni0324" unicode="&#x13b5;&#x324;" horiz-adv-x="1118" 
d="M1039 1128q0 -179 -98 -289q-100 -111 -260 -111v169q94 4 145 70.5t45 160.5q-5 94 -71.5 147t-160.5 53q-119 0 -187.5 -67.5t-68.5 -211.5v-1049h-173v1030q0 227 116.5 341.5t312.5 114.5q179 0 289 -98q111 -100 111 -260zM-10 -281q0 46 34.5 78t82.5 32
q47 0 81.5 -32t34.5 -78t-34.5 -78t-81.5 -32q-32 0 -59 14.5t-42.5 39.5t-15.5 56zM381 -281q0 46 33.5 78t79.5 32q33 0 60 -14.5t42.5 -39.5t15.5 -56q0 -48 -34 -79t-84 -31q-46 0 -79.5 32t-33.5 78z" />
    <glyph glyph-name="uni13B6_uni0324" unicode="&#x13b6;&#x324;" horiz-adv-x="1465" 
d="M1290 406q2 -104 -46.5 -185.5t-129 -137.5t-182.5 -85t-206 -29q-129 0 -234 42.5t-181 127t-117.5 206t-41.5 281.5v225q0 315 156 489q156 177 420 177q138 0 239 -44.5t168.5 -115.5t101 -159.5t33.5 -177.5h-171q0 131 -100 235t-271 104q-183 0 -293 -131
t-110 -381v-218q0 -252 110 -381t300 -121q68 2 135 21t120 53t85 85t30 120q-4 118 -70.5 187t-231.5 79v-164h-135v481h135v-148q248 -15 365.5 -129.5t121.5 -305.5zM408 -281q0 46 34.5 78t82.5 32q47 0 81.5 -32t34.5 -78t-34.5 -78t-81.5 -32q-32 0 -59 14.5
t-42.5 39.5t-15.5 56zM799 -281q0 46 33.5 78t79.5 32q33 0 60 -14.5t42.5 -39.5t15.5 -56q0 -48 -34 -79t-84 -31q-46 0 -79.5 32t-33.5 78z" />
    <glyph glyph-name="uni13B7_uni0324" unicode="&#x13b7;&#x324;" horiz-adv-x="1763" 
d="M1553 0h-159v1107h-10l-425 -993h-156l-426 993h-9v-1107h-158v1486h167l501 -1190h7l499 1190h169v-1486zM577 -281q0 46 34.5 78t82.5 32q47 0 81.5 -32t34.5 -78t-34.5 -78t-81.5 -32q-32 0 -59 14.5t-42.5 39.5t-15.5 56zM968 -281q0 46 33.5 78t79.5 32
q33 0 60 -14.5t42.5 -39.5t15.5 -56q0 -48 -34 -79t-84 -31q-46 0 -79.5 32t-33.5 78z" />
    <glyph glyph-name="uni13B8_uni0324" unicode="&#x13b8;&#x324;" horiz-adv-x="1086" 
d="M885 0h-173v343h-33q-71 0 -118 20t-81.5 50t-59.5 65.5t-50 65.5t-54 50t-70 20h-57v-185h-135v481h135v-167h119q65 0 116 -42.5t94.5 -92.5t83 -93t83.5 -43h27v577q0 129 -61.5 204t-194.5 75q-46 0 -86.5 -13.5t-72 -38.5t-51 -62.5t-21.5 -85.5h-171q0 87 32.5 154
t86.5 112.5t128 68.5t155 23q212 0 320.5 -125t108.5 -331v-1030zM481 -281q0 46 34.5 78t82.5 32q47 0 81.5 -32t34.5 -78t-34.5 -78t-81.5 -32q-32 0 -59 14.5t-42.5 39.5t-15.5 56zM872 -281q0 46 33.5 78t79.5 32q33 0 60 -14.5t42.5 -39.5t15.5 -56q0 -48 -34 -79
t-84 -31q-46 0 -79.5 32t-33.5 78z" />
    <glyph glyph-name="uni13B9_uni0324" unicode="&#x13b9;&#x324;" horiz-adv-x="1746" 
d="M1671 1014h-156q0 72 -49 108.5t-117 36.5q-36 0 -64 -39.5t-62.5 -87.5t-79 -87.5t-113.5 -39.5q-173 0 -245 163q-21 -48 -45 -94t-51 -89q52 -32 99 -85t81 -115.5t55 -129t21 -126.5q0 -98 -16.5 -182.5t-59.5 -145.5t-113.5 -96.5t-178.5 -35.5q-75 0 -134.5 28
t-101 77t-64.5 112.5t-23 134.5q0 70 10.5 128.5t32 109.5t52 101t71.5 106q-189 -13 -293 -175l-117 117q42 62 98 104.5t120.5 70t135.5 38.5t144 11q10 0 18.5 1.5t16.5 -3.5q65 96 103.5 190.5t50.5 209.5h-175v158h519v-158h-171q4 -31 13.5 -77t27 -88.5t45.5 -73
t72 -30.5q27 0 47 20t39.5 50t39.5 65.5t47 65.5t61.5 50t82.5 20q68 0 128.5 -24t104 -65.5t68.5 -100t25 -128.5zM778 441q0 40 -16.5 84.5t-44.5 86.5t-62.5 75t-67.5 52q-38 -54 -69 -98t-53 -89.5t-33.5 -97.5t-11.5 -121q0 -40 8.5 -77t28.5 -66.5t51 -47t77 -17.5
q69 0 108.5 29t58 74t22.5 101t4 112zM472 -281q0 46 34.5 78t82.5 32q47 0 81.5 -32t34.5 -78t-34.5 -78t-81.5 -32q-32 0 -59 14.5t-42.5 39.5t-15.5 56zM863 -281q0 46 33.5 78t79.5 32q33 0 60 -14.5t42.5 -39.5t15.5 -56q0 -48 -34 -79t-84 -31q-46 0 -79.5 32
t-33.5 78z" />
    <glyph glyph-name="uni13BA_uni0324" unicode="&#x13ba;&#x324;" horiz-adv-x="1961" 
d="M1752 0h-174v693h-250v-69q0 -141 -36.5 -260.5t-109.5 -207t-184 -137.5t-261 -50t-259.5 50t-182 138.5t-108 208t-35.5 258.5v223q0 140 35.5 261.5t109 212t184 143.5t260.5 53t260 -53t183 -143.5t108.5 -212t35.5 -261.5h250v639h174v-1486zM1155 624v223
q0 100 -24 191.5t-74 163.5t-129 114.5t-189 42.5t-189.5 -42.5t-129.5 -114.5t-72.5 -163.5t-22.5 -191.5v-223q0 -100 24 -190.5t73.5 -158t128 -108t188.5 -40.5t189 39.5t129 108t74 159t24 190.5zM408 -281q0 46 34.5 78t82.5 32q47 0 81.5 -32t34.5 -78t-34.5 -78
t-81.5 -32q-32 0 -59 14.5t-42.5 39.5t-15.5 56zM799 -281q0 46 33.5 78t79.5 32q33 0 60 -14.5t42.5 -39.5t15.5 -56q0 -48 -34 -79t-84 -31q-46 0 -79.5 32t-33.5 78z" />
    <glyph glyph-name="uni13BB_uni0324" unicode="&#x13bb;&#x324;" horiz-adv-x="1536" 
d="M1326 0h-173v693h-768v-693h-175v1486h175v-637h768v637h173v-1486zM456 -281q0 46 34.5 78t82.5 32q47 0 81.5 -32t34.5 -78t-34.5 -78t-81.5 -32q-32 0 -59 14.5t-42.5 39.5t-15.5 56zM847 -281q0 46 33.5 78t79.5 32q33 0 60 -14.5t42.5 -39.5t15.5 -56q0 -48 -34 -79
t-84 -31q-46 0 -79.5 32t-33.5 78z" />
    <glyph glyph-name="uni13BC_uni0324" unicode="&#x13bc;&#x324;" horiz-adv-x="1049" 
d="M874 516q0 -260 -119.5 -403.5t-329.5 -143.5q-184 0 -291 100t-124 297h171q21 -129 78 -184t161 -55q136 0 211 98t75 291q0 202 -73 311.5t-208 109.5q-73 0 -126 -28.5t-83 -88.5l-139 90q77 145 241 179v243h-172v156h518v-156h-164v-239q85 -15 154.5 -63
t118.5 -122.5t75 -173.5t26 -218zM96 -281q0 46 34.5 78t82.5 32q47 0 81.5 -32t34.5 -78t-34.5 -78t-81.5 -32q-32 0 -59 14.5t-42.5 39.5t-15.5 56zM487 -281q0 46 33.5 78t79.5 32q33 0 60 -14.5t42.5 -39.5t15.5 -56q0 -48 -34 -79t-84 -31q-46 0 -79.5 32t-33.5 78z
" />
    <glyph glyph-name="uni13BD_uni0324" unicode="&#x13bd;&#x324;" horiz-adv-x="1436" 
d="M1365 1488l-657 -1357q-77 -162 -252 -162q-54 0 -103 14.5t-86.5 44.5t-60.5 74t-23 102v150h-173v158h519v-158h-173v-113q0 -43 27 -78.5t73 -35.5q35 0 57 20t34 49l148 314l-479 978h198l379 -774l373 774h199zM475 -281q0 46 34.5 78t82.5 32q47 0 81.5 -32
t34.5 -78t-34.5 -78t-81.5 -32q-32 0 -59 14.5t-42.5 39.5t-15.5 56zM866 -281q0 46 33.5 78t79.5 32q33 0 60 -14.5t42.5 -39.5t15.5 -56q0 -48 -34 -79t-84 -31q-46 0 -79.5 32t-33.5 78z" />
    <glyph glyph-name="uni13BE_uni0324" unicode="&#x13be;&#x324;" horiz-adv-x="1494" 
d="M1328 624q0 -312 -160 -485q-159 -170 -431 -170q-136 0 -244 43.5t-184 128t-116.5 206t-40.5 277.5v223q0 312 160 491t429 179q266 0 427 -179q160 -179 160 -491v-223zM1155 820v27q0 123 -30 217.5t-85.5 160t-131 100t-169.5 34.5q-92 0 -168 -33.5t-131 -99
t-85 -160t-30 -219.5v-27h830zM1155 624v42h-830v-42q0 -129 32 -222.5t87.5 -154t131 -90.5t163.5 -30q87 0 163 30t132.5 90.5t88.5 154t32 222.5zM433 -281q0 46 34.5 78t82.5 32q47 0 81.5 -32t34.5 -78t-34.5 -78t-81.5 -32q-32 0 -59 14.5t-42.5 39.5t-15.5 56z
M824 -281q0 46 33.5 78t79.5 32q33 0 60 -14.5t42.5 -39.5t15.5 -56q0 -48 -34 -79t-84 -31q-46 0 -79.5 32t-33.5 78z" />
    <glyph glyph-name="uni13BF_uni0324" unicode="&#x13bf;&#x324;" horiz-adv-x="1299" 
d="M1170 462q0 -100 -36.5 -187.5t-101 -154t-151 -107t-186.5 -44.5q-98 -4 -189.5 25t-163 85t-115.5 136.5t-44 177.5v502h-173v156h173v404h173v-404h173v-156h-173v-475q8 -64 35 -118t73 -93.5t105.5 -61.5t123.5 -20q67 2 123 30t97.5 74t64.5 105t23 126v150h-314
v158h483v-308zM377 -281q0 46 34.5 78t82.5 32q47 0 81.5 -32t34.5 -78t-34.5 -78t-81.5 -32q-32 0 -59 14.5t-42.5 39.5t-15.5 56zM768 -281q0 46 33.5 78t79.5 32q33 0 60 -14.5t42.5 -39.5t15.5 -56q0 -48 -34 -79t-84 -31q-46 0 -79.5 32t-33.5 78z" />
    <glyph glyph-name="uni13C0_uni0324" unicode="&#x13c0;&#x324;" horiz-adv-x="1447" 
d="M1286 462q0 -71 -27 -157t-91.5 -161t-170.5 -125t-262 -50q-288 0 -435.5 177t-147.5 497v208q0 312 160 489q158 177 429 177q243 0 385 -137q139 -137 156 -344h-171q-20 163 -124.5 243t-249.5 80q-92 0 -167 -31t-130 -94.5t-85 -159.5t-30 -223v-208
q0 -245 104 -380.5t304 -135.5q164 0 274 94q111 93 111 241v150h-398v158h566v-308zM423 -281q0 46 34.5 78t82.5 32q47 0 81.5 -32t34.5 -78t-34.5 -78t-81.5 -32q-32 0 -59 14.5t-42.5 39.5t-15.5 56zM814 -281q0 46 33.5 78t79.5 32q33 0 60 -14.5t42.5 -39.5t15.5 -56
q0 -48 -34 -79t-84 -31q-46 0 -79.5 32t-33.5 78z" />
    <glyph glyph-name="uni13C1_uni0324" unicode="&#x13c1;&#x324;" horiz-adv-x="1553" 
d="M1469 0h-177l-322 945q-17 48 -32.5 93.5t-32.5 93.5q-10 27 -22.5 61.5t-30 65.5t-42.5 52t-63 21q-37 0 -60 -23q-21 -23 -37.5 -79t-30 -121.5t-23 -126t-15.5 -89.5q-27 -156 -54 -309t-57 -309q-10 -61 -31 -118t-54 -103t-83 -74t-119 -28q-89 0 -173 36l25 137
q52 -23 111 -23q41 0 69.5 20t45 49t26 65.5t15.5 69.5q29 162 56 321.5t56 321.5q17 87 35.5 173.5t35.5 174.5q23 102 99 158t178 56q89 0 153.5 -59.5t110.5 -144.5t76 -182t55 -172zM445 -281q0 46 34.5 78t82.5 32q47 0 81.5 -32t34.5 -78t-34.5 -78t-81.5 -32
q-32 0 -59 14.5t-42.5 39.5t-15.5 56zM836 -281q0 46 33.5 78t79.5 32q33 0 60 -14.5t42.5 -39.5t15.5 -56q0 -48 -34 -79t-84 -31q-46 0 -79.5 32t-33.5 78z" />
    <glyph glyph-name="uni13C2_uni0324" unicode="&#x13c2;&#x324;" horiz-adv-x="1290" 
d="M1153 0h-173v408q0 64 -22.5 121.5t-62.5 101t-95 69.5t-117 26q-65 0 -119 -26t-94.5 -69.5t-63.5 -101t-23 -121.5v-408h-173v1486h173v-737q67 69 134.5 100t165.5 36q97 4 182.5 -33.5t150 -103t101 -154t36.5 -186.5v-408zM371 -281q0 46 34.5 78t82.5 32
q47 0 81.5 -32t34.5 -78t-34.5 -78t-81.5 -32q-32 0 -59 14.5t-42.5 39.5t-15.5 56zM762 -281q0 46 33.5 78t79.5 32q33 0 60 -14.5t42.5 -39.5t15.5 -56q0 -48 -34 -79t-84 -31q-46 0 -79.5 32t-33.5 78z" />
    <glyph glyph-name="uni13C3_uni0324" unicode="&#x13c3;&#x324;" horiz-adv-x="1240" 
d="M1161 0h-1040v125l807 1192v13h-778v156h993v-123l-802 -1194v-11h820v-158zM306 -281q0 46 34.5 78t82.5 32q47 0 81.5 -32t34.5 -78t-34.5 -78t-81.5 -32q-32 0 -59 14.5t-42.5 39.5t-15.5 56zM697 -281q0 46 33.5 78t79.5 32q33 0 60 -14.5t42.5 -39.5t15.5 -56
q0 -48 -34 -79t-84 -31q-46 0 -79.5 32t-33.5 78z" />
    <glyph glyph-name="uni13C4_uni0324" unicode="&#x13c4;&#x324;" horiz-adv-x="1136" 
d="M935 0h-173v453h-256q-183 0 -290 98q-85 79 -104 193h-102v133h375v-133h-96q25 -62 83.5 -97.5t133.5 -35.5h256v438q0 144 -69 211.5t-187 67.5q-77 0 -136.5 -36.5t-82.5 -103.5h98v-133h-375v133h100q19 119 106 200q111 98 290 98q195 0 312 -114.5t117 -341.5
v-1030zM529 -281q0 46 34.5 78t82.5 32q47 0 81.5 -32t34.5 -78t-34.5 -78t-81.5 -32q-32 0 -59 14.5t-42.5 39.5t-15.5 56zM920 -281q0 46 33.5 78t79.5 32q33 0 60 -14.5t42.5 -39.5t15.5 -56q0 -48 -34 -79t-84 -31q-46 0 -79.5 32t-33.5 78z" />
    <glyph glyph-name="uni13C5_uni0324" unicode="&#x13c5;&#x324;" horiz-adv-x="1969" 
d="M1879 1230q0 -54 -9 -113.5t-34 -111.5t-69 -85t-110 -33q-46 0 -87.5 13.5t-73.5 46.5q-41 -62 -82.5 -126.5t-85.5 -125.5v-71q0 -141 -36.5 -260.5t-109.5 -207t-184 -137.5t-261 -50t-259.5 50t-182 138.5t-108 208t-35.5 258.5v223q0 140 36.5 261.5t109 212
t183 143.5t260.5 53q133 0 238 -44.5t179 -124.5t116.5 -189.5t51.5 -236.5l102 154q-17 71 -17 135v19h127q0 -27 2 -63.5t12.5 -69.5t33.5 -56t60 -23q38 0 59.5 23t32 56t14 69.5t3.5 63.5h124zM1155 624v223q0 98 -24 190.5t-74 164.5t-129 114.5t-189 42.5
t-189.5 -42.5t-129.5 -114.5t-72.5 -164.5t-22.5 -190.5v-223q0 -100 22.5 -189.5t72.5 -158t129.5 -109t189.5 -40.5t189 40.5t129 108t74 158t24 190.5zM420 -281q0 46 34.5 78t82.5 32q47 0 81.5 -32t34.5 -78t-34.5 -78t-81.5 -32q-32 0 -59 14.5t-42.5 39.5t-15.5 56z
M811 -281q0 46 33.5 78t79.5 32q33 0 60 -14.5t42.5 -39.5t15.5 -56q0 -48 -34 -79t-84 -31q-46 0 -79.5 32t-33.5 78z" />
    <glyph glyph-name="uni13C6_uni0324" unicode="&#x13c6;&#x324;" horiz-adv-x="1213" 
d="M1136 0h-1084v156h456v1174h-456v156h1084v-156h-455v-1174h455v-156zM285 -281q0 46 34.5 78t82.5 32q47 0 81.5 -32t34.5 -78t-34.5 -78t-81.5 -32q-32 0 -59 14.5t-42.5 39.5t-15.5 56zM676 -281q0 46 33.5 78t79.5 32q33 0 60 -14.5t42.5 -39.5t15.5 -56
q0 -48 -34 -79t-84 -31q-46 0 -79.5 32t-33.5 78z" />
    <glyph glyph-name="uni13C7_uni0324" unicode="&#x13c7;&#x324;" horiz-adv-x="1675" 
d="M641 710h185v-414q0 -44 24 -76.5t61.5 -52t81 -30t81.5 -10.5q141 0 208 137.5t67 432.5q0 136 -39.5 256.5t-101 211t-137.5 142.5t-149 52q-144 0 -193.5 -64.5t-49.5 -203.5h-186q0 127 38.5 209t100 131t137.5 67.5t151 18.5q169 0 283 -83t184 -213t100 -287.5
t30 -304.5q0 -121 -18.5 -238.5t-67.5 -211.5t-135.5 -152t-221.5 -58q-192 0 -323 106q-125 -106 -289 -106q-225 0 -338.5 115.5t-113.5 367.5q0 79 21 140.5t54.5 110t75 86t80.5 68.5l69 -147q-19 -19 -41.5 -40t-41.5 -51t-32.5 -73.5t-13.5 -106.5q0 -146 70 -229
t213 -83q25 0 55 12.5t57.5 35.5t46 54t18.5 67v414zM452 -281q0 46 34.5 78t82.5 32q47 0 81.5 -32t34.5 -78t-34.5 -78t-81.5 -32q-32 0 -59 14.5t-42.5 39.5t-15.5 56zM843 -281q0 46 33.5 78t79.5 32q33 0 60 -14.5t42.5 -39.5t15.5 -56q0 -48 -34 -79t-84 -31
q-46 0 -79.5 32t-33.5 78z" />
    <glyph glyph-name="uni13C8_uni0324" unicode="&#x13c8;&#x324;" horiz-adv-x="1463" 
d="M1342 1109q0 -185 -60 -262t-177 -77q-33 0 -62 4t-56.5 19t-53.5 44t-53 79l119 112q19 -35 31.5 -56t21.5 -31.5t17.5 -13.5t21.5 -3q18 0 31.5 8.5t24 29t16 56t5.5 89.5q0 50 -17 95t-52 80t-91.5 56t-133.5 21q-46 0 -90.5 -24t-90.5 -55q169 -254 169 -633
q0 -183 -17 -312t-53 -210t-92.5 -118.5t-133.5 -37.5q-79 0 -135 37.5t-91.5 118.5t-52 210t-16.5 312q0 396 189 643q-35 25 -65.5 47t-59.5 22q-58 0 -107 -105t-49 -301h-169q0 140 24 245t68 175.5t103 106t130 35.5q129 0 246 -104q68 50 141 77t152 27
q121 0 209.5 -30t146.5 -84t85 -129t27 -163zM689 647q0 152 -30 277t-85 225q-62 -96 -97.5 -221t-35.5 -281q0 -162 13.5 -263t32.5 -158t40.5 -78t38.5 -21t38.5 21t40.5 78t31.5 158t12.5 263zM262 -281q0 46 34.5 78t82.5 32q47 0 81.5 -32t34.5 -78t-34.5 -78
t-81.5 -32q-32 0 -59 14.5t-42.5 39.5t-15.5 56zM653 -281q0 46 33.5 78t79.5 32q33 0 60 -14.5t42.5 -39.5t15.5 -56q0 -48 -34 -79t-84 -31q-46 0 -79.5 32t-33.5 78z" />
    <glyph glyph-name="uni13C9_uni0324" unicode="&#x13c9;&#x324;" horiz-adv-x="2229" 
d="M2171 1299q0 -133 -60.5 -201t-176.5 -114l-50 142q66 21 92 60.5t26 108.5q0 41 -32 52.5t-66 11.5q-16 0 -46.5 -32t-68 -70.5t-79 -71t-78.5 -32.5q-61 0 -107.5 21t-82.5 71l-356 -1245h-168l-341 1207q-15 -48 -35 -91.5t-49 -77t-69.5 -53t-96.5 -19.5
q-67 0 -122 20.5t-96.5 60t-66.5 93t-32 119.5l125 73q4 -42 18 -80.5t37.5 -67.5t57 -47.5t79.5 -18.5q48 0 77 45.5t44.5 106t21 123t5.5 93.5h195l329 -1276h8l325 1276h198q0 -23 3 -54t12.5 -59t28 -48t51.5 -20q19 0 52.5 32t74 71t83 71t80.5 32q54 0 101 -10.5
t81 -35.5t54 -65.5t20 -100.5zM691 -281q0 46 34.5 78t82.5 32q47 0 81.5 -32t34.5 -78t-34.5 -78t-81.5 -32q-32 0 -59 14.5t-42.5 39.5t-15.5 56zM1082 -281q0 46 33.5 78t79.5 32q33 0 60 -14.5t42.5 -39.5t15.5 -56q0 -48 -34 -79t-84 -31q-46 0 -79.5 32t-33.5 78z" />
    <glyph glyph-name="uni13CA_uni0324" unicode="&#x13ca;&#x324;" horiz-adv-x="1675" 
d="M641 462q0 68 19.5 131.5t58 112.5t95.5 78.5t131 29.5q49 0 90.5 -14t75.5 -39t62 -59.5t51 -75.5l-140 -91q-11 25 -26 47.5t-34.5 39.5t-43.5 26.5t-54 9.5q-45 0 -70 -31.5t-38 -76t-16 -92t-3 -79.5q0 -60 21.5 -107t58.5 -79.5t87 -49t108 -16.5q67 0 113 29t77 77
t48 108.5t25 124t10 124t2 107.5q0 136 -42 264q-13 39 -33 83.5t-47 89t-60.5 85t-72 72t-82 50t-90.5 18.5q-72 0 -119 -16.5t-74.5 -49.5t-38.5 -83.5t-11 -118.5h-186q0 103 28.5 182.5t83.5 133.5t134 82t181 28q115 0 204 -40t155.5 -107.5t111.5 -156.5t73 -187.5
t40.5 -201t12.5 -195.5q0 -75 -7 -153t-25 -151t-50 -138t-81 -113.5t-118 -76.5t-162 -28q-88 0 -171 24.5t-152 81.5q-62 -53 -135 -79.5t-154 -26.5q-121 0 -206.5 31.5t-140 93t-80 151.5t-25.5 207q0 70 16.5 126.5t47 104.5t73 90.5t94.5 83.5l69 -147
q-34 -33 -58.5 -60.5t-40 -57t-23 -66t-7.5 -87.5q0 -70 16.5 -127.5t51 -98.5t88 -63.5t127.5 -22.5q29 0 64.5 14.5t66 38.5t51 54t20.5 62q0 16 -4 35t-8.5 40t-8.5 44t-4 47zM435 -281q0 46 34.5 78t82.5 32q47 0 81.5 -32t34.5 -78t-34.5 -78t-81.5 -32q-32 0 -59 14.5
t-42.5 39.5t-15.5 56zM826 -281q0 46 33.5 78t79.5 32q33 0 60 -14.5t42.5 -39.5t15.5 -56q0 -48 -34 -79t-84 -31q-46 0 -79.5 32t-33.5 78z" />
    <glyph glyph-name="uni13CB_uni0324" unicode="&#x13cb;&#x324;" horiz-adv-x="1286" 
d="M1149 298q0 -84 -49 -146.5t-123 -103t-157 -61t-152 -20.5q-98 0 -190.5 28t-164.5 82t-116.5 136.5t-44.5 188.5q0 139 75 230.5t202 137.5q-113 52 -170 144.5t-57 211.5q0 94 37.5 166.5t101 122.5t144.5 76t169 26q83 0 163 -21.5t143.5 -67.5t104 -113.5
t44.5 -161.5h-170q-7 52 -33 90.5t-64.5 64.5t-85 38.5t-94.5 12.5q-56 0 -109 -16.5t-93 -48t-63.5 -77t-23.5 -106.5q0 -60 22.5 -110t62 -85.5t91.5 -54t113 -18.5h106v-154h-117q-62 0 -121.5 -17.5t-105 -53t-72.5 -87.5t-27 -121q0 -73 28 -127t75 -88.5t108 -51
t128 -16.5q33 0 86 6t103 22t86.5 45t36.5 75q0 39 -23 58t-55 25t-68.5 5t-61.5 -1v171h69q52 0 107 -13.5t101 -43t75 -74t29 -104.5zM343 -281q0 46 34.5 78t82.5 32q47 0 81.5 -32t34.5 -78t-34.5 -78t-81.5 -32q-32 0 -59 14.5t-42.5 39.5t-15.5 56zM734 -281
q0 46 33.5 78t79.5 32q33 0 60 -14.5t42.5 -39.5t15.5 -56q0 -48 -34 -79t-84 -31q-46 0 -79.5 32t-33.5 78z" />
    <glyph glyph-name="uni13CC_uni0324" unicode="&#x13cc;&#x324;" horiz-adv-x="1501" 
d="M1309 516q0 -243 -154 -397q-154 -150 -404 -150q-125 0 -226.5 39.5t-175.5 112.5t-114.5 175t-40.5 224v966h172v-666h770v666h173v-970zM1136 516v150h-770v-150q0 -177 104 -283t281 -106q88 0 158.5 28t121.5 79t78 123t27 159zM441 -281q0 46 34.5 78t82.5 32
q47 0 81.5 -32t34.5 -78t-34.5 -78t-81.5 -32q-32 0 -59 14.5t-42.5 39.5t-15.5 56zM832 -281q0 46 33.5 78t79.5 32q33 0 60 -14.5t42.5 -39.5t15.5 -56q0 -48 -34 -79t-84 -31q-46 0 -79.5 32t-33.5 78z" />
    <glyph glyph-name="uni13CD_uni0324" unicode="&#x13cd;&#x324;" horiz-adv-x="1859" 
d="M1696 629q0 -148 -37.5 -270t-110 -208t-179 -134t-241.5 -48q-200 0 -312.5 109t-134.5 326l-80 -42q-2 -89 -25.5 -162t-63.5 -124t-93 -79t-115 -28q-63 0 -116 28t-92.5 79t-62.5 125t-23 165q0 90 23 166t62.5 129t94 83t114.5 30q100 0 176 -70.5t105 -199.5l91 45
v275h173v-237q0 -81 8.5 -163.5t37.5 -148t85 -107t150 -41.5q85 0 158 34.5t126 105t82.5 178t29.5 252.5q0 144 -35.5 265.5t-102 209t-162.5 137.5t-214 50q-55 0 -116 -12.5t-118.5 -38.5t-107.5 -65.5t-83 -95.5l-137 102q47 64 114 114t141.5 84.5t154 52t149.5 17.5
q175 0 304 -61.5t214.5 -177t127 -279.5t41.5 -370zM431 366q0 52 -10.5 99t-27 81.5t-40.5 55t-49 20.5q-38 0 -61.5 -30t-38.5 -70.5t-20 -84.5t-5 -71q0 -104 36.5 -171.5t88.5 -67.5q54 0 90.5 67.5t36.5 171.5zM462 -281q0 46 34.5 78t82.5 32q47 0 81.5 -32t34.5 -78
t-34.5 -78t-81.5 -32q-32 0 -59 14.5t-42.5 39.5t-15.5 56zM853 -281q0 46 33.5 78t79.5 32q33 0 60 -14.5t42.5 -39.5t15.5 -56q0 -48 -34 -79t-84 -31q-46 0 -79.5 32t-33.5 78z" />
    <glyph glyph-name="uni13CE_uni0324" unicode="&#x13ce;&#x324;" horiz-adv-x="1342" 
d="M1228 468h-391v-468h-167v468h-556v156l465 862h258v-864h391v-154zM670 622v708h-8l-369 -695v-13h377zM443 -281q0 46 34.5 78t82.5 32q47 0 81.5 -32t34.5 -78t-34.5 -78t-81.5 -32q-32 0 -59 14.5t-42.5 39.5t-15.5 56zM834 -281q0 46 33.5 78t79.5 32q33 0 60 -14.5
t42.5 -39.5t15.5 -56q0 -48 -34 -79t-84 -31q-46 0 -79.5 32t-33.5 78z" />
    <glyph glyph-name="uni13CF_uni0324" unicode="&#x13cf;&#x324;" horiz-adv-x="1342" 
d="M1211 458q0 -206 -129 -331q-127 -127 -339 -127h-533v1486h175v-572h358q210 0 339 -125t129 -331zM1032 458q0 94 -28 153t-81 91.5t-130 44t-175 11.5h-233v-602h352q143 0 219 79t76 223zM318 -281q0 46 34.5 78t82.5 32q47 0 81.5 -32t34.5 -78t-34.5 -78t-81.5 -32
q-32 0 -59 14.5t-42.5 39.5t-15.5 56zM709 -281q0 46 33.5 78t79.5 32q33 0 60 -14.5t42.5 -39.5t15.5 -56q0 -48 -34 -79t-84 -31q-46 0 -79.5 32t-33.5 78z" />
    <glyph glyph-name="uni13D0_uni0324" unicode="&#x13d0;&#x324;" horiz-adv-x="1051" 
d="M907 597h-141q0 159 -94 159q-39 0 -123 -55v-701h-181v577q-35 -23 -66 -33.5t-54 -10.5q-127 0 -182.5 76t-55.5 232h142q0 -158 94 -158q37 0 122 56v747h181v-624q73 45 119 45q129 0 184 -77t55 -233zM144 -281q0 46 34.5 78t82.5 32q47 0 81.5 -32t34.5 -78
t-34.5 -78t-81.5 -32q-32 0 -59 14.5t-42.5 39.5t-15.5 56zM535 -281q0 46 33.5 78t79.5 32q33 0 60 -14.5t42.5 -39.5t15.5 -56q0 -48 -34 -79t-84 -31q-46 0 -79.5 32t-33.5 78z" />
    <glyph glyph-name="uni13D1_uni0324" unicode="&#x13d1;&#x324;" horiz-adv-x="1411" 
d="M1290 995q0 -58 -23.5 -111.5t-66.5 -93t-101 -62t-127 -22.5v164q62 0 105 35.5t43 89.5q0 62 -35.5 112t-120.5 50q-23 0 -63.5 -36.5t-88.5 -81t-100 -86t-98 -54.5q-35 -48 -78 -85.5t-101 -80.5l-85 -65q81 -31 147.5 -70.5t114.5 -86.5t74 -99t26 -106
q0 -71 -21 -132.5t-60.5 -106t-97.5 -70.5t-133 -26t-142 29t-118 80t-80 121t-29 153q0 118 31.5 194t84.5 134.5t122.5 108.5t146.5 116q-54 15 -95.5 49.5t-71.5 80t-46 97.5t-16 104q0 59 21 110t56.5 88.5t83 59t102.5 21.5q64 0 114 -25t84.5 -68.5t52 -101
t17.5 -119.5q0 -8 -2 -25t-2 -23q25 25 51 55t55 57.5t63.5 45t80.5 17.5q72 0 132.5 -27t103.5 -73t66.5 -107.5t23.5 -127.5zM545 1230q0 62 -26 95.5t-65 33.5q-48 0 -73 -36.5t-25 -84.5q0 -77 40.5 -131t121.5 -58q15 35 21 87t6 94zM541 306q0 73 -80 133.5t-222 95.5
q-37 -88 -37 -181q0 -104 47 -165.5t146 -61.5q77 0 111.5 50t34.5 129zM62 -281q0 46 34.5 78t82.5 32q47 0 81.5 -32t34.5 -78t-34.5 -78t-81.5 -32q-32 0 -59 14.5t-42.5 39.5t-15.5 56zM453 -281q0 46 33.5 78t79.5 32q33 0 60 -14.5t42.5 -39.5t15.5 -56q0 -48 -34 -79
t-84 -31q-46 0 -79.5 32t-33.5 78z" />
    <glyph glyph-name="uni13D2_uni0324" unicode="&#x13d2;&#x324;" horiz-adv-x="1407" 
d="M1030 1034q0 72 -21.5 127t-61.5 92.5t-98 57t-131 19.5h-333v-1330h-175v1486h529q124 0 213 -36.5t146 -97t84 -140t27 -165.5q0 -83 -21 -150t-58 -118.5t-87.5 -88t-110.5 -57.5l304 -633h-200l-347 751q79 0 142 18.5t107.5 54.5t68 88.5t23.5 121.5zM373 -281
q0 46 34.5 78t82.5 32q47 0 81.5 -32t34.5 -78t-34.5 -78t-81.5 -32q-32 0 -59 14.5t-42.5 39.5t-15.5 56zM764 -281q0 46 33.5 78t79.5 32q33 0 60 -14.5t42.5 -39.5t15.5 -56q0 -48 -34 -79t-84 -31q-46 0 -79.5 32t-33.5 78z" />
    <glyph glyph-name="uni13D3_uni0324" unicode="&#x13d3;&#x324;" horiz-adv-x="1143" 
d="M1039 327q0 -160 -111 -260q-110 -98 -289 -98q-196 0 -312.5 114.5t-116.5 341.5v1061h173v-1080q0 -144 68.5 -211.5t187.5 -67.5q94 0 160.5 53t70.5 147h169zM306 -281q0 46 34.5 78t82.5 32q47 0 81.5 -32t34.5 -78t-34.5 -78t-81.5 -32q-32 0 -59 14.5t-42.5 39.5
t-15.5 56zM697 -281q0 46 33.5 78t79.5 32q33 0 60 -14.5t42.5 -39.5t15.5 -56q0 -48 -34 -79t-84 -31q-46 0 -79.5 32t-33.5 78z" />
    <glyph glyph-name="uni13D4_uni0324" unicode="&#x13d4;&#x324;" horiz-adv-x="1931" 
d="M1821 1486l-543 -1486h-169l-174 479l-175 -479h-169l-541 1486h196l426 -1276h9l168 506l-281 770h196l171 -512l170 512h198l-281 -770l169 -506h8l424 1276h198zM624 -281q0 46 34.5 78t82.5 32q47 0 81.5 -32t34.5 -78t-34.5 -78t-81.5 -32q-32 0 -59 14.5
t-42.5 39.5t-15.5 56zM1015 -281q0 46 33.5 78t79.5 32q33 0 60 -14.5t42.5 -39.5t15.5 -56q0 -48 -34 -79t-84 -31q-46 0 -79.5 32t-33.5 78z" />
    <glyph glyph-name="uni13D5_uni0324" unicode="&#x13d5;&#x324;" horiz-adv-x="1455" 
d="M1332 624h-221q63 -85 63 -214q0 -212 -156 -327q-152 -114 -394 -114q-137 0 -243 39.5t-165 103.5q-116 132 -120 286h175q12 -119 110 -195t266 -76q158 0 254 73t96 198q0 93 -59.5 151.5t-186.5 91.5l-266 71q-150 39 -246.5 133t-96.5 252q0 102 42.5 181t114 134
t162.5 83.5t188 25.5q73 0 146 -15.5t135.5 -47.5t113.5 -81t80 -118h208v-158h-518v158h104q-42 48 -110.5 76t-162.5 28q-145 0 -236 -66.5t-91 -187.5q0 -170 211 -227l260 -70q27 -9 52 -16t48 -18h443v-154zM333 -281q0 46 34.5 78t82.5 32q47 0 81.5 -32t34.5 -78
t-34.5 -78t-81.5 -32q-32 0 -59 14.5t-42.5 39.5t-15.5 56zM724 -281q0 46 33.5 78t79.5 32q33 0 60 -14.5t42.5 -39.5t15.5 -56q0 -48 -34 -79t-84 -31q-46 0 -79.5 32t-33.5 78z" />
    <glyph glyph-name="uni13D6_uni0324" unicode="&#x13d6;&#x324;" horiz-adv-x="1428" 
d="M1295 327q0 -160 -111 -260q-110 -98 -289 -98q-196 0 -312.5 114.5t-116.5 341.5v905h-456v156h629v-1080q0 -144 68.5 -211.5t187.5 -67.5q94 0 161.5 54t69.5 146q2 46 -11.5 87.5t-40.5 72.5t-64.5 50t-83.5 21v168q88 0 156.5 -31t115.5 -85t72 -127t25 -156z
M570 -281q0 46 34.5 78t82.5 32q47 0 81.5 -32t34.5 -78t-34.5 -78t-81.5 -32q-32 0 -59 14.5t-42.5 39.5t-15.5 56zM961 -281q0 46 33.5 78t79.5 32q33 0 60 -14.5t42.5 -39.5t15.5 -56q0 -48 -34 -79t-84 -31q-46 0 -79.5 32t-33.5 78z" />
    <glyph glyph-name="uni13D7_uni0324" unicode="&#x13d7;&#x324;" horiz-adv-x="1215" 
d="M1009 0h-185v670q-110 -195 -227 -345q-50 -65 -106 -125.5t-115.5 -107t-120.5 -73.5t-120 -23q-10 2 -21 2h-22.5t-22.5 2v158q6 -2 19.5 -2h30.5q16 0 37 -2q46 -2 99 32.5t109 91.5t112.5 131t106.5 151q118 181 241 414v512h185v-1486zM608 -281q0 46 34.5 78
t82.5 32q47 0 81.5 -32t34.5 -78t-34.5 -78t-81.5 -32q-32 0 -59 14.5t-42.5 39.5t-15.5 56zM999 -281q0 46 33.5 78t79.5 32q33 0 60 -14.5t42.5 -39.5t15.5 -56q0 -48 -34 -79t-84 -31q-46 0 -79.5 32t-33.5 78z" />
    <glyph glyph-name="uni13D8_uni0324" unicode="&#x13d8;&#x324;" horiz-adv-x="1205" 
d="M999 0h-175v670q-110 -193 -227 -343q-50 -65 -106 -126.5t-115.5 -108t-120.5 -73.5t-120 -23q-10 2 -21 2h-22.5t-22.5 2v158q6 -2 19.5 -2h30.5q16 0 37 -2q46 -2 99 32.5t109 91.5t112.5 131t106.5 151q118 181 241 414v354h-693v158h868v-1486zM612 -281
q0 46 34.5 78t82.5 32q47 0 81.5 -32t34.5 -78t-34.5 -78t-81.5 -32q-32 0 -59 14.5t-42.5 39.5t-15.5 56zM1003 -281q0 46 33.5 78t79.5 32q33 0 60 -14.5t42.5 -39.5t15.5 -56q0 -48 -34 -79t-84 -31q-46 0 -79.5 32t-33.5 78z" />
    <glyph glyph-name="uni13D9_uni0324" unicode="&#x13d9;&#x324;" horiz-adv-x="1413" 
d="M1303 1486l-543 -1486h-169l-541 1486h196l426 -1276h9l424 1276h198zM362 -281q0 46 34.5 78t82.5 32q47 0 81.5 -32t34.5 -78t-34.5 -78t-81.5 -32q-32 0 -59 14.5t-42.5 39.5t-15.5 56zM753 -281q0 46 33.5 78t79.5 32q33 0 60 -14.5t42.5 -39.5t15.5 -56
q0 -48 -34 -79t-84 -31q-46 0 -79.5 32t-33.5 78z" />
    <glyph glyph-name="uni13DA_uni0324" unicode="&#x13da;&#x324;" horiz-adv-x="1342" 
d="M1174 410q0 -212 -156 -327q-152 -114 -394 -114q-137 0 -243 39.5t-165 103.5q-116 132 -120 286h175q12 -119 110 -195t266 -76q158 0 254 73t96 198q0 93 -59.5 151.5t-186.5 91.5l-266 71q-150 39 -246.5 133t-96.5 252q0 102 42.5 181t114 134t162.5 83.5t188 25.5
q92 0 181.5 -25t161.5 -76t117.5 -130t49.5 -189h-175q-12 119 -97.5 190.5t-241.5 71.5q-145 0 -236 -66.5t-91 -187.5q0 -170 211 -227l260 -70q189 -52 287 -145t98 -257zM335 -281q0 46 34.5 78t82.5 32q47 0 81.5 -32t34.5 -78t-34.5 -78t-81.5 -32q-32 0 -59 14.5
t-42.5 39.5t-15.5 56zM726 -281q0 46 33.5 78t79.5 32q33 0 60 -14.5t42.5 -39.5t15.5 -56q0 -48 -34 -79t-84 -31q-46 0 -79.5 32t-33.5 78z" />
    <glyph glyph-name="uni13DB_uni0324" unicode="&#x13db;&#x324;" horiz-adv-x="1798" 
d="M1700 1132q0 -73 -21.5 -141.5t-62 -124.5t-99 -94.5t-133.5 -53.5l-31 162q87 19 133 83.5t46 152.5q0 45 -13.5 88t-36.5 77t-57.5 55t-73.5 21q-46 0 -97 -30t-93.5 -87.5t-71 -139.5t-30.5 -184l-160 52q2 31 6 58q2 23 4.5 46t2.5 37q0 65 -21 112t-54.5 77
t-74 44.5t-79.5 14.5q-88 0 -152.5 -49t-112.5 -136q131 -15 224 -75.5t152 -147.5t87.5 -194.5t28.5 -215.5q0 -114 -28.5 -218.5t-80.5 -182.5t-123.5 -123.5t-161.5 -45.5q-87 0 -155 56t-114.5 151t-70.5 217.5t-24 255.5q0 161 28 316t91.5 277.5t164.5 198.5t247 76
q125 0 220.5 -55t143.5 -155q66 100 141 155t163 55q83 0 148.5 -31t110.5 -84t67.5 -123t22.5 -147zM741 552q0 89 -23 169t-70 140.5t-118.5 100t-171.5 47.5q-19 -74 -27 -165t-8 -199q0 -106 14.5 -200.5t41.5 -165.5t64.5 -112.5t83.5 -41.5q41 0 79.5 36.5t69 95.5
t48 136t17.5 159zM206 -281q0 46 34.5 78t82.5 32q47 0 81.5 -32t34.5 -78t-34.5 -78t-81.5 -32q-32 0 -59 14.5t-42.5 39.5t-15.5 56zM597 -281q0 46 33.5 78t79.5 32q33 0 60 -14.5t42.5 -39.5t15.5 -56q0 -48 -34 -79t-84 -31q-46 0 -79.5 32t-33.5 78z" />
    <glyph glyph-name="uni13DC_uni0324" unicode="&#x13dc;&#x324;" horiz-adv-x="1659" 
d="M1519 244q0 -75 -22.5 -127t-63.5 -84.5t-98 -47t-124 -14.5q-145 0 -223 96.5t-78 294.5q0 142 131 310l-204 161l-204 -161q131 -172 131 -310q0 -198 -78 -294.5t-224 -96.5q-73 0 -130 12.5t-97.5 42.5t-61.5 83t-21 135q0 93 47 182.5t107 161.5t116.5 121t77.5 65
l216 163q-158 149 -158 278q0 142 77 221t200 79q122 0 200 -79t78 -221q0 -129 -156 -278q34 -30 75.5 -61t84 -64.5t83 -64.5t72.5 -60q116 -102 181.5 -210.5t65.5 -232.5zM945 1218q0 64 -30 102.5t-80 38.5q-48 0 -77.5 -38.5t-29.5 -102.5q0 -38 30.5 -81.5
t78.5 -93.5q48 48 78 91.5t30 83.5zM1349 244q0 72 -46 149t-125 156q-46 -54 -72 -102.5t-26 -96.5q0 -111 44 -167t98 -56q58 0 92.5 27t34.5 90zM593 350q0 48 -27 96.5t-71 102.5q-81 -79 -126.5 -156t-45.5 -149q0 -63 34 -90t93 -27q54 0 98.5 56t44.5 167zM531 -281
q0 46 34.5 78t82.5 32q47 0 81.5 -32t34.5 -78t-34.5 -78t-81.5 -32q-32 0 -59 14.5t-42.5 39.5t-15.5 56zM922 -281q0 46 33.5 78t79.5 32q33 0 60 -14.5t42.5 -39.5t15.5 -56q0 -48 -34 -79t-84 -31q-46 0 -79.5 32t-33.5 78z" />
    <glyph glyph-name="uni13DD_uni0324" unicode="&#x13dd;&#x324;" horiz-adv-x="1168" 
d="M1078 0h-868v1020q0 227 117.5 341.5t313.5 114.5q179 0 289 -98q111 -100 111 -260h-169q-4 93 -70.5 146t-160.5 53q-119 0 -187.5 -67.5t-68.5 -210.5v-881h693v-158zM300 -281q0 46 34.5 78t82.5 32q47 0 81.5 -32t34.5 -78t-34.5 -78t-81.5 -32q-32 0 -59 14.5
t-42.5 39.5t-15.5 56zM691 -281q0 46 33.5 78t79.5 32q33 0 60 -14.5t42.5 -39.5t15.5 -56q0 -48 -34 -79t-84 -31q-46 0 -79.5 32t-33.5 78z" />
    <glyph glyph-name="uni13DE_uni0324" unicode="&#x13de;&#x324;" horiz-adv-x="1101" 
d="M1078 0h-868v1486h175v-1328h693v-158zM300 -281q0 46 34.5 78t82.5 32q47 0 81.5 -32t34.5 -78t-34.5 -78t-81.5 -32q-32 0 -59 14.5t-42.5 39.5t-15.5 56zM691 -281q0 46 33.5 78t79.5 32q33 0 60 -14.5t42.5 -39.5t15.5 -56q0 -48 -34 -79t-84 -31q-46 0 -79.5 32
t-33.5 78z" />
    <glyph glyph-name="uni13DF_uni0324" unicode="&#x13df;&#x324;" horiz-adv-x="1397" 
d="M1270 439q0 -75 -31.5 -158t-97 -153t-168.5 -114.5t-247 -44.5q-268 0 -421 168.5t-153 488.5v225q0 315 156 489q156 177 420 177q138 0 239 -45q72 -32 128 -77v122h175v-497h-171q0 131 -100 235t-271 104q-183 0 -293 -131t-110 -381v-218q0 -252 108 -377t302 -125
q87 0 154.5 24t114.5 66.5t71 99t24 122.5h171zM408 -281q0 46 34.5 78t82.5 32q47 0 81.5 -32t34.5 -78t-34.5 -78t-81.5 -32q-32 0 -59 14.5t-42.5 39.5t-15.5 56zM799 -281q0 46 33.5 78t79.5 32q33 0 60 -14.5t42.5 -39.5t15.5 -56q0 -48 -34 -79t-84 -31
q-46 0 -79.5 32t-33.5 78z" />
    <glyph glyph-name="uni13E0_uni0324" unicode="&#x13e0;&#x324;" horiz-adv-x="1438" 
d="M1299 631h-213v-261q0 -189 -93.5 -295t-247.5 -106q-152 0 -246.5 99t-94.5 277v286q-394 8 -394 301q0 80 20 145.5t57.5 113t90.5 73.5t118 26q58 0 109 -25t88.5 -65.5t59 -94.5t21.5 -112v-206h342v701h170v-701h213v-156zM404 789v158q0 94 -28 142.5t-83 48.5
q-58 0 -85 -56t-27 -150q0 -66 52 -100.5t171 -42.5zM916 439v192h-342v-250q0 -135 42 -194.5t131 -59.5q88 0 128.5 82t40.5 230zM420 -281q0 46 34.5 78t82.5 32q47 0 81.5 -32t34.5 -78t-34.5 -78t-81.5 -32q-32 0 -59 14.5t-42.5 39.5t-15.5 56zM811 -281q0 46 33.5 78
t79.5 32q33 0 60 -14.5t42.5 -39.5t15.5 -56q0 -48 -34 -79t-84 -31q-46 0 -79.5 32t-33.5 78z" />
    <glyph glyph-name="uni13E1_uni0324" unicode="&#x13e1;&#x324;" horiz-adv-x="1742" 
d="M1603 1138q0 -85 -24 -158t-66 -126t-96 -83t-116 -30l-31 187q37 0 67 18t52 47t34.5 66.5t12.5 76.5q0 117 -66.5 169t-164.5 52q-42 0 -85.5 -20t-89.5 -45q231 -268 231 -645q0 -347 -100 -512.5t-264 -165.5t-264 165.5t-100 512.5q0 385 231 645q-46 25 -88.5 45
t-84.5 20q-100 0 -160.5 -83t-74.5 -233h173v-131h-519v131h167q8 97 35 183.5t77 151t125 102t177 37.5q79 0 155 -27t151 -77q73 50 150 77t158 27q189 0 293.5 -103t104.5 -274zM1093 647q0 169 -52 302t-144 237q-94 -104 -146 -237t-52 -302q0 -156 23 -257t55.5 -159
t65.5 -81t54 -23q17 0 50 21t65.5 78t56.5 158t24 263zM595 -281q0 46 34.5 78t82.5 32q47 0 81.5 -32t34.5 -78t-34.5 -78t-81.5 -32q-32 0 -59 14.5t-42.5 39.5t-15.5 56zM986 -281q0 46 33.5 78t79.5 32q33 0 60 -14.5t42.5 -39.5t15.5 -56q0 -48 -34 -79t-84 -31
q-46 0 -79.5 32t-33.5 78z" />
    <glyph glyph-name="uni13E2_uni0324" unicode="&#x13e2;&#x324;" horiz-adv-x="1320" 
d="M1211 1028q0 -206 -129 -331t-339 -125h-358v-572h-175v1486h533q212 0 339 -127q129 -125 129 -331zM1032 1028q0 144 -76 223t-219 79h-352v-602h233q98 0 175 11.5t130 44t81 92t28 152.5zM-15 -281q0 46 34.5 78t82.5 32q47 0 81.5 -32t34.5 -78t-34.5 -78t-81.5 -32
q-32 0 -59 14.5t-42.5 39.5t-15.5 56zM376 -281q0 46 33.5 78t79.5 32q33 0 60 -14.5t42.5 -39.5t15.5 -56q0 -48 -34 -79t-84 -31q-46 0 -79.5 32t-33.5 78z" />
    <glyph glyph-name="uni13E3_uni0324" unicode="&#x13e3;&#x324;" horiz-adv-x="1424" 
d="M1324 916h-410v170h166q-35 142 -116.5 207.5t-235.5 65.5q-183 0 -293 -131t-110 -381v-218q0 -252 108 -377t302 -125q87 0 154.5 24t114.5 66.5t71 99t24 122.5h171q0 -75 -31.5 -158t-97 -153t-168.5 -114.5t-247 -44.5q-268 0 -421 168.5t-153 488.5v225
q0 315 156 489q156 177 420 177q221 2 356.5 -101t183.5 -330h56v-170zM381 -281q0 46 34.5 78t82.5 32q47 0 81.5 -32t34.5 -78t-34.5 -78t-81.5 -32q-32 0 -59 14.5t-42.5 39.5t-15.5 56zM772 -281q0 46 33.5 78t79.5 32q33 0 60 -14.5t42.5 -39.5t15.5 -56q0 -48 -34 -79
t-84 -31q-46 0 -79.5 32t-33.5 78z" />
    <glyph glyph-name="uni13E4_uni0324" unicode="&#x13e4;&#x324;" horiz-adv-x="1413" 
d="M1303 1486l-543 -1486h-252v1330h-456v156h629v-1276l424 1276h198zM325 -281q0 46 34.5 78t82.5 32q47 0 81.5 -32t34.5 -78t-34.5 -78t-81.5 -32q-32 0 -59 14.5t-42.5 39.5t-15.5 56zM716 -281q0 46 33.5 78t79.5 32q33 0 60 -14.5t42.5 -39.5t15.5 -56q0 -48 -34 -79
t-84 -31q-46 0 -79.5 32t-33.5 78z" />
    <glyph glyph-name="uni13E5_uni0324" unicode="&#x13e5;&#x324;" horiz-adv-x="1623" 
d="M1546 995l-120 -71q-9 25 -22.5 52t-32 48t-42.5 34.5t-53 13.5q-42 0 -84.5 -19t-78.5 -39l-60 -36v-978h-173v878l-497 -287v-591h-173v1486h173v-697l647 374q54 32 115.5 54.5t126.5 22.5q52 0 96.5 -20.5t80 -55t60.5 -78t37 -91.5zM316 -281q0 46 34.5 78t82.5 32
q47 0 81.5 -32t34.5 -78t-34.5 -78t-81.5 -32q-32 0 -59 14.5t-42.5 39.5t-15.5 56zM707 -281q0 46 33.5 78t79.5 32q33 0 60 -14.5t42.5 -39.5t15.5 -56q0 -48 -34 -79t-84 -31q-46 0 -79.5 32t-33.5 78z" />
    <glyph glyph-name="uni13E6_uni0324" unicode="&#x13e6;&#x324;" horiz-adv-x="1432" 
d="M1290 0h-222l-496 735l-187 -204v-531h-175v1486h175v-726h6l660 726h208l-558 -631zM337 -281q0 46 34.5 78t82.5 32q47 0 81.5 -32t34.5 -78t-34.5 -78t-81.5 -32q-32 0 -59 14.5t-42.5 39.5t-15.5 56zM728 -281q0 46 33.5 78t79.5 32q33 0 60 -14.5t42.5 -39.5
t15.5 -56q0 -48 -34 -79t-84 -31q-46 0 -79.5 32t-33.5 78z" />
    <glyph glyph-name="uni13E7_uni0324" unicode="&#x13e7;&#x324;" horiz-adv-x="1039" 
d="M839 425q0 -227 -116.5 -341.5t-312.5 -114.5q-179 0 -289 98q-111 100 -111 260v214q0 160 111 260q110 98 289 98q152 0 256 -69v656h173v-1061zM666 406v56q0 144 -68.5 211.5t-187.5 67.5q-48 0 -89.5 -13.5t-73 -39.5t-50 -63.5t-18.5 -83.5v-214q0 -46 18.5 -83.5
t50 -63.5t73 -39.5t89.5 -13.5q119 0 187.5 67.5t68.5 211.5zM85 -281q0 46 34.5 78t82.5 32q47 0 81.5 -32t34.5 -78t-34.5 -78t-81.5 -32q-32 0 -59 14.5t-42.5 39.5t-15.5 56zM476 -281q0 46 33.5 78t79.5 32q33 0 60 -14.5t42.5 -39.5t15.5 -56q0 -48 -34 -79t-84 -31
q-46 0 -79.5 32t-33.5 78z" />
    <glyph glyph-name="uni13E8_uni0324" unicode="&#x13e8;&#x324;" horiz-adv-x="1807" 
d="M1698 1330l-243 -381l-167 248l-143 -235q0 64 -32.5 135t-88.5 129t-132 95.5t-164 37.5q-183 0 -293 -131t-110 -381v-218q0 -252 108 -377t302 -125q89 0 164 38.5t129 97t84.5 128t30.5 133.5l143 -235l167 248l243 -381l-95 -52l-148 227l-167 -248l-104 171
q-131 -285 -456 -285q-268 0 -421 168.5t-153 488.5v225q0 315 156 489q156 177 420 177q325 0 456 -285l104 171l167 -248l148 227zM387 -281q0 46 34.5 78t82.5 32q47 0 81.5 -32t34.5 -78t-34.5 -78t-81.5 -32q-32 0 -59 14.5t-42.5 39.5t-15.5 56zM778 -281
q0 46 33.5 78t79.5 32q33 0 60 -14.5t42.5 -39.5t15.5 -56q0 -48 -34 -79t-84 -31q-46 0 -79.5 32t-33.5 78z" />
    <glyph glyph-name="uni13E9_uni0324" unicode="&#x13e9;&#x324;" horiz-adv-x="1586" 
d="M1519 -21q-41 -10 -106 -10q-193 0 -262 158q-65 -69 -165.5 -113.5t-250.5 -44.5q-288 0 -435.5 177t-147.5 497v208q0 312 160 489q158 177 429 177q243 0 385 -137q139 -137 156 -344h-171q-20 163 -124.5 243t-249.5 80q-92 0 -167 -31t-130 -94.5t-85 -159.5
t-30 -223v-208q0 -245 104 -380.5t304 -135.5q164 0 274 94q109 93 109 241v150h-174v158h519v-158h-175v-269q0 -120 35.5 -175.5t125.5 -55.5q43 0 72 7v-140zM400 -281q0 46 34.5 78t82.5 32q47 0 81.5 -32t34.5 -78t-34.5 -78t-81.5 -32q-32 0 -59 14.5t-42.5 39.5
t-15.5 56zM791 -281q0 46 33.5 78t79.5 32q33 0 60 -14.5t42.5 -39.5t15.5 -56q0 -48 -34 -79t-84 -31q-46 0 -79.5 32t-33.5 78z" />
    <glyph glyph-name="uni13EA_uni0324" unicode="&#x13ea;&#x324;" horiz-adv-x="1877" 
d="M1682 910q0 -261 -53 -440t-144 -290t-211.5 -161t-257.5 -50q-98 0 -183.5 17.5t-162.5 71.5q-60 -52 -118.5 -70.5t-116.5 -18.5q-94 0 -172 34t-134 96.5t-87.5 150t-31.5 193.5h169q0 -79 21 -137t55 -98.5t79 -60.5t93 -20q25 0 53 14.5t63 37.5q-193 233 -193 637
q0 364 69.5 532.5t225.5 168.5q165 0 259.5 -174.5t94.5 -526.5q0 -81 -14.5 -164.5t-42.5 -164.5t-67.5 -158t-87.5 -142q54 -33 111 -46.5t118 -13.5q64 0 137 23t139.5 83t119.5 166.5t76 272.5q-114 31 -189 75t-120 105.5t-63.5 143.5t-18.5 190q0 59 16.5 117t50 106
t82.5 78t113 30q96 0 158.5 -34t99 -108t51 -189.5t14.5 -275.5zM1511 910q0 241 -36.5 344t-98.5 103q-46 0 -77 -58.5t-31 -157.5q0 -117 50.5 -186.5t190.5 -111.5q0 10 1 32t1 35zM828 816q0 160 -21.5 264t-51 165.5t-60.5 86.5t-50 25q-16 0 -38 -24t-41 -85.5
t-32.5 -165.5t-13.5 -266q0 -158 37.5 -284t102.5 -220q35 50 65.5 113.5t53 130t36 134.5t13.5 126zM375 -281q0 46 34.5 78t82.5 32q47 0 81.5 -32t34.5 -78t-34.5 -78t-81.5 -32q-32 0 -59 14.5t-42.5 39.5t-15.5 56zM766 -281q0 46 33.5 78t79.5 32q33 0 60 -14.5
t42.5 -39.5t15.5 -56q0 -48 -34 -79t-84 -31q-46 0 -79.5 32t-33.5 78z" />
    <glyph glyph-name="uni13EB_uni0324" unicode="&#x13eb;&#x324;" horiz-adv-x="1494" 
d="M1328 624q0 -312 -160 -485q-159 -170 -431 -170q-136 0 -244 43.5t-184 128t-116.5 206t-40.5 277.5v223q0 312 160 491t429 179q266 0 427 -179q160 -179 160 -491v-223zM1155 624v223q0 123 -30 217.5t-85.5 160t-131 100t-169.5 34.5q-144 0 -247 -81t-144 -237h233
q58 0 106 -37.5t71 -104.5l87 -262q37 -119 114 -119h190q6 50 6 106zM1118 389h-223q-67 0 -124 49t-86 149l-67 227q-4 10 -12.5 26.5t-20 33.5t-28 28.5t-39.5 11.5h-191q-2 -17 -2 -33.5v-33.5v-223q0 -129 32 -222.5t87.5 -154t131 -90.5t163.5 -30q131 0 231 63.5
t148 198.5zM445 -281q0 46 34.5 78t82.5 32q47 0 81.5 -32t34.5 -78t-34.5 -78t-81.5 -32q-32 0 -59 14.5t-42.5 39.5t-15.5 56zM836 -281q0 46 33.5 78t79.5 32q33 0 60 -14.5t42.5 -39.5t15.5 -56q0 -48 -34 -79t-84 -31q-46 0 -79.5 32t-33.5 78z" />
    <glyph glyph-name="uni13EC_uni0324" unicode="&#x13ec;&#x324;" horiz-adv-x="1744" 
d="M1561 826q0 -162 -39.5 -316t-124 -275t-217.5 -193.5t-320 -72.5q-132 0 -258.5 46.5t-226.5 156t-161.5 289.5t-61.5 449q0 605 364 605q65 0 115 -38.5t82 -100t48.5 -138.5t16.5 -152q0 -245 -90.5 -398t-285.5 -226q39 -106 97.5 -171.5t122 -102t126 -49
t112.5 -12.5q145 0 246 65.5t164.5 168.5t91.5 232t28 254q0 94 -15.5 185.5t-39.5 163.5t-53 116.5t-58 44.5q-69 0 -99 -64.5t-30 -222.5h-171q0 137 24 223.5t64.5 136.5t95.5 67.5t116 17.5q79 0 141.5 -56t106 -151t66.5 -219.5t23 -262.5zM608 1022q0 154 -31.5 245.5
t-76.5 91.5q-46 0 -80.5 -23t-56.5 -75t-32 -138.5t-10 -212.5q0 -80 11 -150.5t24 -130.5q123 47 187.5 146t64.5 247zM577 -281q0 46 34.5 78t82.5 32q47 0 81.5 -32t34.5 -78t-34.5 -78t-81.5 -32q-32 0 -59 14.5t-42.5 39.5t-15.5 56zM968 -281q0 46 33.5 78t79.5 32
q33 0 60 -14.5t42.5 -39.5t15.5 -56q0 -48 -34 -79t-84 -31q-46 0 -79.5 32t-33.5 78z" />
    <glyph glyph-name="uni13ED_uni0324" unicode="&#x13ed;&#x324;" horiz-adv-x="1359" 
d="M1184 910q0 -169 -41.5 -337.5t-121.5 -303t-197.5 -217.5t-269.5 -83q-165 0 -310.5 93.5t-233.5 274.5l159 75q66 -144 162 -214.5t202 -70.5q131 0 227.5 99t157.5 274q-113 33 -195 89t-136 127t-80 154t-26 171q0 102 31 189t83 150.5t118.5 99t137.5 35.5
q69 0 130.5 -36.5t106 -111.5t70.5 -189t26 -268zM1016 928q0 104 -16 184.5t-42 135.5t-58 83t-65 28q-34 0 -67 -28t-59 -74t-42 -104t-16 -121q0 -60 23 -121.5t63.5 -112.5t99 -87.5t127.5 -48.5q33 73 42.5 135.5t9.5 130.5zM219 -281q0 46 34.5 78t82.5 32
q47 0 81.5 -32t34.5 -78t-34.5 -78t-81.5 -32q-32 0 -59 14.5t-42.5 39.5t-15.5 56zM610 -281q0 46 33.5 78t79.5 32q33 0 60 -14.5t42.5 -39.5t15.5 -56q0 -48 -34 -79t-84 -31q-46 0 -79.5 32t-33.5 78z" />
    <glyph glyph-name="uni13EE_uni0324" unicode="&#x13ee;&#x324;" horiz-adv-x="1322" 
d="M1151 447q0 -102 -35.5 -189t-99 -151.5t-151 -101t-189.5 -36.5q-137 0 -236 66.5t-163.5 170.5t-94.5 230t-30 243q0 135 22 282.5t83 270.5t168.5 203t277.5 80q80 0 158 -31t140.5 -84t102 -126t45.5 -154h-177q-10 48 -36 91.5t-62.5 77t-82.5 53t-96 19.5
q-121 0 -193.5 -60.5t-112 -152t-53 -198.5t-13.5 -201v-31t2 -31q62 93 161 144t211 51q90 0 172 -33t144.5 -92.5t100 -138.5t37.5 -171zM978 437q0 63 -23 115t-63.5 90.5t-94.5 59t-116 20.5q-61 0 -114 -29t-92.5 -75t-62.5 -103t-23 -115q0 -50 26 -100t67.5 -88.5
t94 -63.5t102.5 -25q68 0 123 24t94 65.5t60.5 99.5t21.5 125zM381 -281q0 46 34.5 78t82.5 32q47 0 81.5 -32t34.5 -78t-34.5 -78t-81.5 -32q-32 0 -59 14.5t-42.5 39.5t-15.5 56zM772 -281q0 46 33.5 78t79.5 32q33 0 60 -14.5t42.5 -39.5t15.5 -56q0 -48 -34 -79t-84 -31
q-46 0 -79.5 32t-33.5 78z" />
    <glyph glyph-name="uni13EF_uni0324" unicode="&#x13ef;&#x324;" horiz-adv-x="1675" 
d="M601 724l-126 -162v160l126 204l100 -164l100 164l100 -164l100 164h123l-223 -368l-60 102l-15 -22v-342q0 -44 24.5 -76t61.5 -52.5t80.5 -30.5t81.5 -10q141 0 208 138t67 432q0 91 -18 175t-49.5 158t-73 134.5t-89 103.5t-98 67t-99.5 24q-73 0 -120 -16t-74.5 -49
t-38 -83.5t-10.5 -119.5h-186q0 127 38.5 209.5t100 130.5t137.5 67t151 19q114 0 202.5 -39t155 -106t112 -155t74 -187t41 -202t12.5 -199q0 -80 -7.5 -160t-27 -153.5t-51.5 -137t-81.5 -110t-117.5 -73t-158 -26.5q-193 0 -323 106q-124 -106 -289 -106
q-225 0 -338.5 115.5t-113.5 367.5q0 79 21 140.5t54.5 109.5t74.5 85.5t81 69.5l69 -147q-19 -19 -41.5 -40t-42 -51t-32.5 -73.5t-13 -106.5q0 -73 17.5 -131t52.5 -98t88 -61.5t125 -21.5q24 0 54.5 13t58 35.5t46 53.5t18.5 67v361zM445 -281q0 46 34.5 78t82.5 32
q47 0 81.5 -32t34.5 -78t-34.5 -78t-81.5 -32q-32 0 -59 14.5t-42.5 39.5t-15.5 56zM836 -281q0 46 33.5 78t79.5 32q33 0 60 -14.5t42.5 -39.5t15.5 -56q0 -48 -34 -79t-84 -31q-46 0 -79.5 32t-33.5 78z" />
    <glyph glyph-name="uni13F0_uni0324" unicode="&#x13f0;&#x324;" horiz-adv-x="1334" 
d="M1153 477q0 -129 -34.5 -225t-99 -159.5t-154 -94.5t-199.5 -31q-200 0 -362 127q-113 -94 -256 -94v179q75 0 131 44q-96 120 -146 258l123 77q13 -29 27 -61q13 -27 30.5 -57t40.5 -53q2 6 2 46v651q0 94 25 173t75 136.5t127 89.5t181 32t183 -29t133 -82t81.5 -126
t27.5 -160q0 -67 -16 -116t-38.5 -85.5t-52 -61.5t-54.5 -39q50 -15 91.5 -51.5t72 -83t46 -100.5t15.5 -104zM982 437q0 285 -333 285h-116v148q385 0 385 231q0 110 -60.5 184t-195.5 74q-77 0 -124 -23t-72 -64.5t-32 -101t-7 -131.5v-673q0 -70 -27 -141
q120 -98 249 -98q333 0 333 310zM360 -281q0 46 34.5 78t82.5 32q47 0 81.5 -32t34.5 -78t-34.5 -78t-81.5 -32q-32 0 -59 14.5t-42.5 39.5t-15.5 56zM751 -281q0 46 33.5 78t79.5 32q33 0 60 -14.5t42.5 -39.5t15.5 -56q0 -48 -34 -79t-84 -31q-46 0 -79.5 32t-33.5 78z
" />
    <glyph glyph-name="uni13F1_uni0324" unicode="&#x13f1;&#x324;" horiz-adv-x="1542" 
d="M1372 439q0 -75 -17 -157t-55.5 -152t-100 -115.5t-150.5 -45.5q-87 0 -144.5 37.5t-93 96.5t-50 133t-14.5 147h163q0 -33 3 -78t17.5 -84.5t40.5 -66.5t74 -27t79 35.5t49 84.5t24 101t6 87q0 92 -23 182.5t-71 162t-123.5 116.5t-182.5 45q-52 0 -104 -57.5t-102 -147
t-93.5 -198.5t-77 -214t-55 -192.5t-26.5 -131.5h-164l-171 385l134 65l95 -211q25 86 70 212t105.5 250.5t136 227.5t161.5 147v254h-173v156h518v-156h-172v-237q118 -17 208.5 -79.5t153 -153t94 -201t31.5 -220.5zM489 -281q0 46 34.5 78t82.5 32q47 0 81.5 -32
t34.5 -78t-34.5 -78t-81.5 -32q-32 0 -59 14.5t-42.5 39.5t-15.5 56zM880 -281q0 46 33.5 78t79.5 32q33 0 60 -14.5t42.5 -39.5t15.5 -56q0 -48 -34 -79t-84 -31q-46 0 -79.5 32t-33.5 78z" />
    <glyph glyph-name="uni13F2_uni0324" unicode="&#x13f2;&#x324;" horiz-adv-x="1324" 
d="M1153 0h-173v408q0 64 -22.5 121.5t-62.5 101t-95 69.5t-117 26q-65 0 -119 -26t-94.5 -69.5t-63.5 -101t-23 -121.5v-408h-173v1061q0 227 116.5 341.5t312.5 114.5q83 0 156 -23t127 -68.5t85.5 -112t31.5 -154.5h-169q-4 94 -70.5 147t-160.5 53q-119 0 -187.5 -67.5
t-68.5 -211.5v-331q67 69 134.5 100t165.5 36q97 4 182.5 -33.5t150 -103t101 -154t36.5 -186.5v-408zM362 -281q0 46 34.5 78t82.5 32q47 0 81.5 -32t34.5 -78t-34.5 -78t-81.5 -32q-32 0 -59 14.5t-42.5 39.5t-15.5 56zM753 -281q0 46 33.5 78t79.5 32q33 0 60 -14.5
t42.5 -39.5t15.5 -56q0 -48 -34 -79t-84 -31q-46 0 -79.5 32t-33.5 78z" />
    <glyph glyph-name="uni13F3_uni0324" unicode="&#x13f3;&#x324;" horiz-adv-x="1773" 
d="M1730 1419l-244 -380l-169 247l-176 -235q-19 65 -54.5 121t-85.5 97.5t-115.5 65.5t-148.5 24q-92 0 -167 -31t-130 -94.5t-85 -159.5t-30 -223v-208q0 -245 104 -380.5t304 -135.5q164 0 274 94q111 93 111 241v150h-398v158h566v-308q0 -71 -27 -157t-91.5 -161
t-170.5 -125t-262 -50q-288 0 -435.5 177t-147.5 497v208q0 312 160 489q158 177 429 177q154 0 266.5 -57t174.5 -138l135 168l169 -247l148 226zM410 -281q0 46 34.5 78t82.5 32q47 0 81.5 -32t34.5 -78t-34.5 -78t-81.5 -32q-32 0 -59 14.5t-42.5 39.5t-15.5 56z
M801 -281q0 46 33.5 78t79.5 32q33 0 60 -14.5t42.5 -39.5t15.5 -56q0 -48 -34 -79t-84 -31q-46 0 -79.5 32t-33.5 78z" />
    <glyph glyph-name="uni13F4_uni0324" unicode="&#x13f4;&#x324;" horiz-adv-x="1438" 
d="M1253 416q0 -100 -36.5 -178t-104 -131t-163.5 -80t-214 -27h-525v1486h550q91 0 166 -25t129 -73t83.5 -115.5t29.5 -152.5q0 -131 -61.5 -212.5t-174.5 -116.5v-6q159 -25 240 -122t81 -247zM991 1091q0 120 -71 179.5t-185 59.5h-350v-487h233q190 0 281.5 58
t91.5 190zM1076 412q0 137 -85.5 206t-234.5 69h-371v-529h264q92 0 170 9.5t134 36.5t89.5 77t33.5 131zM308 -281q0 46 34.5 78t82.5 32q47 0 81.5 -32t34.5 -78t-34.5 -78t-81.5 -32q-32 0 -59 14.5t-42.5 39.5t-15.5 56zM699 -281q0 46 33.5 78t79.5 32q33 0 60 -14.5
t42.5 -39.5t15.5 -56q0 -48 -34 -79t-84 -31q-46 0 -79.5 32t-33.5 78z" />
    <glyph glyph-name="uni13F5_uni0324" unicode="&#x13f5;&#x324;" horiz-adv-x="1424" 
d="M1295 -31h-552q-150 0 -264.5 66.5t-191.5 176t-111 248.5t-20.5 284t77 284.5t182 247.5t294.5 174.5t417 66.5v-158q-198 0 -343.5 -52t-242.5 -138.5t-150 -197.5t-65.5 -226.5t10.5 -226t78 -198t138.5 -140.5t189.5 -53h385v485h-398v158h567v-801zM470 -281
q0 46 34.5 78t82.5 32q47 0 81.5 -32t34.5 -78t-34.5 -78t-81.5 -32q-32 0 -59 14.5t-42.5 39.5t-15.5 56zM861 -281q0 46 33.5 78t79.5 32q33 0 60 -14.5t42.5 -39.5t15.5 -56q0 -48 -34 -79t-84 -31q-46 0 -79.5 32t-33.5 78z" />
    <glyph glyph-name="uni13F8_uni0324" unicode="&#x13f8;&#x324;" horiz-adv-x="1107" 
d="M204 358v462q0 75 21 136.5t64.5 107t108 70.5t151.5 25q173 0 264.5 -87.5t91.5 -226.5q0 -85 -33 -137t-71 -82q71 -35 113.5 -110t42.5 -146q0 -199 -112 -297t-296 -98q-156 0 -287 90q-46 -34 -99 -49.5t-123 -15.5v171q31 0 54 4t39 12q-35 42 -61 89t-49 107
l131 77q4 -13 17.5 -42t32.5 -60zM537 533h-112v148q168 0 237 40.5t69 111.5q0 74 -42 123t-142 49q-56 0 -89 -14.5t-51 -41.5t-23 -68.5t-5 -93.5v-498q0 -52 -19 -98q90 -60 177 -60q246 0 246 210q0 192 -246 192zM227 -281q0 46 34.5 78t82.5 32q47 0 81.5 -32
t34.5 -78t-34.5 -78t-81.5 -32q-32 0 -59 14.5t-42.5 39.5t-15.5 56zM618 -281q0 46 33.5 78t79.5 32q33 0 60 -14.5t42.5 -39.5t15.5 -56q0 -48 -34 -79t-84 -31q-46 0 -79.5 32t-33.5 78z" />
    <glyph glyph-name="uni13F9_uni0324" unicode="&#x13f9;&#x324;" horiz-adv-x="1280" 
d="M862 -23q-77 0 -127 30t-80.5 79t-43 110.5t-12.5 124.5h169q0 -30 2 -63t10.5 -61t26 -47t50.5 -19q34 0 56 24t33 57.5t15.5 68.5t4.5 58q0 67 -18 130.5t-54.5 113.5t-93.5 81t-136 31q-40 0 -80.5 -41.5t-78 -106t-70.5 -144.5t-59 -157t-42 -144t-20 -102h-162
l-150 312l142 65l64 -131q23 66 58.5 152.5t81 171t102 154t120.5 102.5v156h-137v154h454v-154h-138v-139q96 -15 169 -63.5t122 -118.5t73.5 -153t24.5 -165q0 -54 -13.5 -118.5t-45.5 -119.5t-85 -91.5t-132 -36.5zM352 -281q0 46 34.5 78t82.5 32q47 0 81.5 -32
t34.5 -78t-34.5 -78t-81.5 -32q-32 0 -59 14.5t-42.5 39.5t-15.5 56zM743 -281q0 46 33.5 78t79.5 32q33 0 60 -14.5t42.5 -39.5t15.5 -56q0 -48 -34 -79t-84 -31q-46 0 -79.5 32t-33.5 78z" />
    <glyph glyph-name="uni13FA_uni0324" unicode="&#x13fa;&#x324;" horiz-adv-x="1099" 
d="M783 0v321q0 45 -17 84.5t-47 69t-69.5 46t-83.5 16.5t-84.5 -16.5t-69.5 -46t-46.5 -69t-17.5 -84.5v-321h-173v803q0 177 97.5 267.5t260.5 90.5q66 0 126.5 -18.5t106.5 -56t73 -94.5t27 -135h-169q-4 73 -50 110.5t-114 37.5q-88 0 -136.5 -43.5t-48.5 -143.5v-202
q47 38 99.5 56.5t118.5 20.5q77 2 149 -26t125 -78t85 -118.5t32 -149.5v-321h-174zM258 -281q0 46 34.5 78t82.5 32q47 0 81.5 -32t34.5 -78t-34.5 -78t-81.5 -32q-32 0 -59 14.5t-42.5 39.5t-15.5 56zM649 -281q0 46 33.5 78t79.5 32q33 0 60 -14.5t42.5 -39.5t15.5 -56
q0 -48 -34 -79t-84 -31q-46 0 -79.5 32t-33.5 78z" />
    <glyph glyph-name="uni13FB_uni0324" unicode="&#x13fb;&#x324;" horiz-adv-x="1471" 
d="M1222 753l-138 186l-149 -181q-38 116 -115 181.5t-204 65.5q-137 0 -224.5 -87.5t-87.5 -268.5v-154q0 -177 80 -270.5t230 -93.5q125 0 208 67q81 62 81 162v92h-318v156h493v-248q0 -56 -23 -122.5t-78 -125t-143.5 -97t-219.5 -38.5q-239 0 -363 136.5t-124 381.5
v154q0 240 133 375q138 137 360 137q119 0 209.5 -38.5t144.5 -96.5l112 127l134 -181l112 158l112 -54zM304 -281q0 46 34.5 78t82.5 32q47 0 81.5 -32t34.5 -78t-34.5 -78t-81.5 -32q-32 0 -59 14.5t-42.5 39.5t-15.5 56zM695 -281q0 46 33.5 78t79.5 32q33 0 60 -14.5
t42.5 -39.5t15.5 -56q0 -48 -34 -79t-84 -31q-46 0 -79.5 32t-33.5 78z" />
    <glyph glyph-name="uni13FC_uni0324" unicode="&#x13fc;&#x324;" horiz-adv-x="1193" 
d="M826 606q106 -29 160.5 -101t54.5 -178q0 -79 -31.5 -140.5t-88.5 -103t-136 -62.5t-175 -21h-435v1136h454q151 0 247 -76t96 -213q0 -87 -38.5 -146.5t-107.5 -94.5zM610 982h-258v-320h164q150 0 213.5 39.5t63.5 124.5q0 79 -48 117.5t-135 38.5zM626 508h-274v-352
h189q75 0 134.5 6.5t101 25t63.5 51t22 86.5q0 89 -60.5 136t-175.5 47zM231 -281q0 46 34.5 78t82.5 32q47 0 81.5 -32t34.5 -78t-34.5 -78t-81.5 -32q-32 0 -59 14.5t-42.5 39.5t-15.5 56zM622 -281q0 46 33.5 78t79.5 32q33 0 60 -14.5t42.5 -39.5t15.5 -56
q0 -48 -34 -79t-84 -31q-46 0 -79.5 32t-33.5 78z" />
    <glyph glyph-name="uni13FD_uni0324" unicode="&#x13fd;&#x324;" horiz-adv-x="1182" 
d="M616 -23q-125 0 -220.5 51t-158 135.5t-90.5 190.5t-18 216q10 113 63.5 219t152 188t246.5 133t350 51v-156q-163 0 -279.5 -37.5t-192.5 -100t-116.5 -141.5t-50.5 -160q-11 -83 8 -161t60.5 -139.5t103 -98t140.5 -36.5h289v321h-318v156h489v-631h-458zM341 -281
q0 46 34.5 78t82.5 32q47 0 81.5 -32t34.5 -78t-34.5 -78t-81.5 -32q-32 0 -59 14.5t-42.5 39.5t-15.5 56zM732 -281q0 46 33.5 78t79.5 32q33 0 60 -14.5t42.5 -39.5t15.5 -56q0 -48 -34 -79t-84 -31q-46 0 -79.5 32t-33.5 78z" />
    <glyph glyph-name="uniAB70_uni0324" unicode="&#xab70;&#x324;" horiz-adv-x="1232" 
d="M987 164q-63 -79 -170 -121.5t-253 -42.5h-389v1136h389q148 0 251 -42.5t166.5 -118.5t92.5 -180t29 -227q0 -125 -28 -224.5t-88 -179.5zM560 982h-208v-826h208q183 0 272.5 101t89.5 311q0 212 -89.5 313t-272.5 101zM246 -281q0 46 34.5 78t82.5 32q47 0 81.5 -32
t34.5 -78t-34.5 -78t-81.5 -32q-32 0 -59 14.5t-42.5 39.5t-15.5 56zM637 -281q0 46 33.5 78t79.5 32q33 0 60 -14.5t42.5 -39.5t15.5 -56q0 -48 -34 -79t-84 -31q-46 0 -79.5 32t-33.5 78z" />
    <glyph glyph-name="uniAB71_uni0324" unicode="&#xab71;&#x324;" horiz-adv-x="1174" 
d="M1019 0q-47 0 -82.5 8.5t-63.5 26t-49.5 44.5t-40.5 65l-152 303h-287v-447h-168v1137h445q85 0 157.5 -22.5t125.5 -65.5t83.5 -107t30.5 -146q0 -110 -55 -192.5t-166 -124.5l135 -257q6 -11 11 -20.5t10 -17.5q10 -17 22 -28q11 -11 28 -17.5t43 -6.5q14 0 30.5 1
t41.5 6v-129q-28 -8 -52.5 -9t-46.5 -1zM604 996h-260v-408h254q56 0 102 11.5t78.5 35.5t50.5 61.5t18 89.5q0 104 -64.5 157t-178.5 53zM254 -281q0 46 34.5 78t82.5 32q47 0 81.5 -32t34.5 -78t-34.5 -78t-81.5 -32q-32 0 -59 14.5t-42.5 39.5t-15.5 56zM645 -281
q0 46 33.5 78t79.5 32q33 0 60 -14.5t42.5 -39.5t15.5 -56q0 -48 -34 -79t-84 -31q-46 0 -79.5 32t-33.5 78z" />
    <glyph glyph-name="uniAB72_uni0324" unicode="&#xab72;&#x324;" horiz-adv-x="997" 
d="M949 982h-362v-982h-177v982h-362v154h901v-154zM189 -281q0 46 34.5 78t82.5 32q47 0 81.5 -32t34.5 -78t-34.5 -78t-81.5 -32q-32 0 -59 14.5t-42.5 39.5t-15.5 56zM580 -281q0 46 33.5 78t79.5 32q33 0 60 -14.5t42.5 -39.5t15.5 -56q0 -48 -34 -79t-84 -31
q-46 0 -79.5 32t-33.5 78z" />
    <glyph glyph-name="uniAB73_uni0324" unicode="&#xab73;&#x324;" horiz-adv-x="1284" 
d="M868 -21q-77 0 -127 30.5t-80 79t-42.5 110t-12.5 124.5h168q0 -30 2 -63t10.5 -61t26 -47t51.5 -19q33 0 55 26t33.5 61.5t15.5 73t4 60.5q0 66 -17.5 127.5t-54 109.5t-94 77t-136.5 29q-93 0 -147.5 -42.5t-91.5 -117.5q48 -52 66.5 -116.5t18.5 -129.5
q0 -50 -13.5 -105t-44.5 -100.5t-79 -76t-117 -30.5q-68 0 -117 30.5t-79.5 76t-44 100.5t-13.5 105q0 48 13.5 104.5t45 104t79.5 80t116 32.5h19q35 79 98.5 140.5t157.5 84.5v145h-137v156h453v-156h-137v-133q102 -10 182 -54t135.5 -111.5t83.5 -153t28 -174.5
q0 -54 -13.5 -118.5t-46 -123t-85.5 -97t-132 -38.5zM262 462q-27 0 -42.5 -19.5t-24 -48t-11.5 -56.5t-3 -47q0 -16 3 -44t11.5 -54t25 -45t41.5 -19t42 19t25 45t11 54t3 44q0 17 -3 45t-11 56t-25 49t-42 21zM318 -281q0 46 34.5 78t82.5 32q47 0 81.5 -32t34.5 -78
t-34.5 -78t-81.5 -32q-32 0 -59 14.5t-42.5 39.5t-15.5 56zM709 -281q0 46 33.5 78t79.5 32q33 0 60 -14.5t42.5 -39.5t15.5 -56q0 -48 -34 -79t-84 -31q-46 0 -79.5 32t-33.5 78z" />
    <glyph glyph-name="uniAB74_uni0324" unicode="&#xab74;&#x324;" horiz-adv-x="1526" 
d="M935 481v164q0 177 -86.5 268.5t-230.5 91.5q-137 0 -225.5 -89.5t-88.5 -270.5v-164q0 -92 24 -157.5t66.5 -108t100 -63.5t123.5 -21q67 0 125 21t101 63.5t67 108t24 157.5zM1209 524h-98v-43q0 -237 -135 -373q-131 -131 -360 -131q-112 0 -202.5 34.5t-154 99
t-98 158t-34.5 212.5v164q0 244 133 377q138 139 360 139q225 0 358 -139q121 -123 133 -329h86q21 0 35.5 31.5t20.5 79t6 101.5t-7 102t-20.5 79.5t-34.5 31.5h-65v164h77q75 0 124 -56t72 -140.5t23 -182.5t-25 -182t-74 -140.5t-120 -56.5zM293 -281q0 46 34.5 78
t82.5 32q47 0 81.5 -32t34.5 -78t-34.5 -78t-81.5 -32q-32 0 -59 14.5t-42.5 39.5t-15.5 56zM684 -281q0 46 33.5 78t79.5 32q33 0 60 -14.5t42.5 -39.5t15.5 -56q0 -48 -34 -79t-84 -31q-46 0 -79.5 32t-33.5 78z" />
    <glyph glyph-name="uniAB75_uni0324" unicode="&#xab75;&#x324;" horiz-adv-x="535" 
d="M256 830q-46 0 -77 31.5t-31 77.5q0 48 32 79t76 31t75 -31q33 -31 33 -79q0 -44 -32 -76.5t-76 -32.5zM92 0v154h83v602h162v-602h81v-154h-326zM-60 -281q0 46 34.5 78t82.5 32q47 0 81.5 -32t34.5 -78t-34.5 -78t-81.5 -32q-32 0 -59 14.5t-42.5 39.5t-15.5 56z
M331 -281q0 46 33.5 78t79.5 32q33 0 60 -14.5t42.5 -39.5t15.5 -56q0 -48 -34 -79t-84 -31q-46 0 -79.5 32t-33.5 78z" />
    <glyph glyph-name="uniAB76_uni0324" unicode="&#xab76;&#x324;" horiz-adv-x="1191" 
d="M864 549q56 -41 85 -96t29 -130q0 -167 -133 -258q-65 -46 -145 -67t-180 -21q-112 0 -200.5 30t-138.5 80q-48 50 -74 109.5t-28 134.5h177q10 -90 81 -145t202 -55q125 0 192.5 51t67.5 130q0 61 -40.5 99.5t-140.5 63.5l-66 16l-473 -89v154l175 31q-63 42 -100 101
t-37 142q0 82 36 144t96.5 105t136.5 63.5t155 20.5q75 0 149 -18.5t134.5 -60t100 -108t43.5 -162.5h-177q-11 91 -73 143t-181 52q-112 0 -176.5 -45.5t-64.5 -124.5q0 -54 36 -90.5t118 -57.5l147 -37l477 89v-154zM229 -281q0 46 34.5 78t82.5 32q47 0 81.5 -32
t34.5 -78t-34.5 -78t-81.5 -32q-32 0 -59 14.5t-42.5 39.5t-15.5 56zM620 -281q0 46 33.5 78t79.5 32q33 0 60 -14.5t42.5 -39.5t15.5 -56q0 -48 -34 -79t-84 -31q-46 0 -79.5 32t-33.5 78z" />
    <glyph glyph-name="uniAB77_uni0324" unicode="&#xab77;&#x324;" horiz-adv-x="1415" 
d="M714 -23q-169 0 -281 62.5t-180 164.5t-97 230t-29 257q0 67 9.5 148t41.5 150.5t93.5 117.5t165.5 48q67 0 111.5 -36.5t70.5 -88.5t37.5 -109t11.5 -99q0 -79 -14.5 -152t-49 -133t-91.5 -108t-143 -79q48 -100 134.5 -159.5t209.5 -59.5q69 0 141 33q136 61 194 178.5
t58 252.5q0 63 -11.5 125.5t-38.5 116.5t-74.5 99.5t-118.5 77.5l85 145q94 -43 158.5 -104.5t104 -135.5t57 -156t17.5 -168q0 -112 -38.5 -223.5t-112.5 -199t-180 -141.5t-241 -54zM425 1005q-46 0 -71 -32t-38 -84q-6 -27 -8 -54t-4 -55v-89q0 -96 14 -181
q88 37 130.5 105t42.5 161v52.5t-6 77t-19.5 69.5t-40.5 30zM408 -281q0 46 34.5 78t82.5 32q47 0 81.5 -32t34.5 -78t-34.5 -78t-81.5 -32q-32 0 -59 14.5t-42.5 39.5t-15.5 56zM799 -281q0 46 33.5 78t79.5 32q33 0 60 -14.5t42.5 -39.5t15.5 -56q0 -48 -34 -79t-84 -31
q-46 0 -79.5 32t-33.5 78z" />
    <glyph glyph-name="uniAB78_uni0324" unicode="&#xab78;&#x324;" horiz-adv-x="872" 
d="M601 656q-31 0 -62 8t-58 27q-27 -37 -62.5 -87t-64.5 -92v-512h-179v1136h179v-387l50 69q-4 23 -8.5 48t-4.5 50l2 33h134q0 -25 1 -53t7 -51t19.5 -38.5t38.5 -15.5t38.5 15.5t20 38.5t7.5 51t1 53h135q0 -48 -8.5 -99t-29 -94.5t-59 -71.5t-97.5 -28zM-50 -281
q0 46 34.5 78t82.5 32q47 0 81.5 -32t34.5 -78t-34.5 -78t-81.5 -32q-32 0 -59 14.5t-42.5 39.5t-15.5 56zM341 -281q0 46 33.5 78t79.5 32q33 0 60 -14.5t42.5 -39.5t15.5 -56q0 -48 -34 -79t-84 -31q-46 0 -79.5 32t-33.5 78z" />
    <glyph glyph-name="uniAB79_uni0324" unicode="&#xab79;&#x324;" horiz-adv-x="1080" 
d="M495 106q-68 -129 -218 -129q-42 0 -84.5 12.5t-77 36.5t-55 59.5t-20.5 83.5v58h174q0 -42 18 -69t45 -27q35 0 56 40l112 224l-391 743h200l291 -551l285 551h202zM235 -281q0 46 34.5 78t82.5 32q47 0 81.5 -32t34.5 -78t-34.5 -78t-81.5 -32q-32 0 -59 14.5
t-42.5 39.5t-15.5 56zM626 -281q0 46 33.5 78t79.5 32q33 0 60 -14.5t42.5 -39.5t15.5 -56q0 -48 -34 -79t-84 -31q-46 0 -79.5 32t-33.5 78z" />
    <glyph glyph-name="uniAB7A_uni0324" unicode="&#xab7a;&#x324;" horiz-adv-x="1141" 
d="M893 0l-123 339h-422l-123 -339h-185l443 1136h160l439 -1136h-189zM560 912l-158 -431h316zM254 -281q0 46 34.5 78t82.5 32q47 0 81.5 -32t34.5 -78t-34.5 -78t-81.5 -32q-32 0 -59 14.5t-42.5 39.5t-15.5 56zM645 -281q0 46 33.5 78t79.5 32q33 0 60 -14.5t42.5 -39.5
t15.5 -56q0 -48 -34 -79t-84 -31q-46 0 -79.5 32t-33.5 78z" />
    <glyph glyph-name="uniAB7B_uni0324" unicode="&#xab7b;&#x324;" horiz-adv-x="899" 
d="M379 -23q-146 0 -240 75q-47 42 -70 96t-23 131h168q5 -73 50.5 -110.5t114.5 -37.5q87 0 135 44t48 143v818h173v-803q0 -177 -97 -266.5t-259 -89.5zM79 -281q0 46 34.5 78t82.5 32q47 0 81.5 -32t34.5 -78t-34.5 -78t-81.5 -32q-32 0 -59 14.5t-42.5 39.5t-15.5 56z
M470 -281q0 46 33.5 78t79.5 32q33 0 60 -14.5t42.5 -39.5t15.5 -56q0 -48 -34 -79t-84 -31q-46 0 -79.5 32t-33.5 78z" />
    <glyph glyph-name="uniAB7C_uni0324" unicode="&#xab7c;&#x324;" horiz-adv-x="1005" 
d="M175 0v1136h732v-154h-557v-324h526v-154h-526v-348h557v-156h-732zM237 -281q0 46 34.5 78t82.5 32q47 0 81.5 -32t34.5 -78t-34.5 -78t-81.5 -32q-32 0 -59 14.5t-42.5 39.5t-15.5 56zM628 -281q0 46 33.5 78t79.5 32q33 0 60 -14.5t42.5 -39.5t15.5 -56q0 -48 -34 -79
t-84 -31q-46 0 -79.5 32t-33.5 78z" />
    <glyph glyph-name="uniAB7D_uni0324" unicode="&#xab7d;&#x324;" horiz-adv-x="1320" 
d="M839 0h-238v639h-74q-30 -73 -97.5 -120t-154.5 -47q-111 0 -188 71q-79 73 -79 173q0 102 79 175q77 71 188 71q108 0 187 -71q48 -46 67 -100h72v345h173v-345h448v-140zM774 196l256 443h-256v-443zM275 826q-48 0 -84.5 -32t-36.5 -78q0 -42 36.5 -75t84.5 -33
q52 0 86 33t34 75q0 46 -34 78t-86 32zM364 -281q0 46 34.5 78t82.5 32q47 0 81.5 -32t34.5 -78t-34.5 -78t-81.5 -32q-32 0 -59 14.5t-42.5 39.5t-15.5 56zM755 -281q0 46 33.5 78t79.5 32q33 0 60 -14.5t42.5 -39.5t15.5 -56q0 -48 -34 -79t-84 -31q-46 0 -79.5 32
t-33.5 78z" />
    <glyph glyph-name="uniAB7E_uni0324" unicode="&#xab7e;&#x324;" horiz-adv-x="907" 
d="M323 310v-310h-175v614h175v-144q79 2 138 53t94.5 124t45 157.5t-10.5 157t-71 120.5t-136 48q-40 0 -71 -18.5t-53 -50t-33.5 -72t-11.5 -84.5h-172q0 82 21.5 151.5t65.5 119.5t108.5 78t149.5 28q110 0 188.5 -41.5t125 -109t64.5 -154t8.5 -177t-44 -177t-92.5 -156
t-137.5 -112.5t-176.5 -45zM-81 -281q0 46 34.5 78t82.5 32q47 0 81.5 -32t34.5 -78t-34.5 -78t-81.5 -32q-32 0 -59 14.5t-42.5 39.5t-15.5 56zM310 -281q0 46 33.5 78t79.5 32q33 0 60 -14.5t42.5 -39.5t15.5 -56q0 -48 -34 -79t-84 -31q-46 0 -79.5 32t-33.5 78z" />
    <glyph glyph-name="uniAB7F_uni0324" unicode="&#xab7f;&#x324;" horiz-adv-x="1278" 
d="M795 -23q-100 0 -163.5 44t-63.5 114q0 29 7.5 57.5t23.5 67.5h154q0 -16 -1 -22.5t-1 -10.5q-2 -4 -2 -7.5t-2 -7.5q-2 -10 -3 -18.5t-1 -14.5q0 -48 48 -48q62 0 105 73t55 239h-414q-10 -98 -26 -182t-48 -147.5t-86 -100t-140 -36.5q-93 0 -161 34.5t-68 113.5
q0 29 7.5 61.5t24.5 73.5h154q0 -27 -3 -33q0 -4 -1 -7.5t-1 -7.5q-6 -18 -6 -33q0 -48 52 -48q79 0 110 148q15 73 20 165.5t14 190.5q8 96 28 190.5t63.5 169.5t115.5 120.5t184 45.5q198 0 283 -149.5t85 -432.5q0 -313 -89.5 -457.5t-253.5 -144.5zM747 1005
q-48 0 -81 -24t-55 -67.5t-34.5 -103t-18.5 -127.5l-9 -96h406q-2 223 -48.5 320.5t-159.5 97.5zM433 -281q0 46 34.5 78t82.5 32q47 0 81.5 -32t34.5 -78t-34.5 -78t-81.5 -32q-32 0 -59 14.5t-42.5 39.5t-15.5 56zM824 -281q0 46 33.5 78t79.5 32q33 0 60 -14.5
t42.5 -39.5t15.5 -56q0 -48 -34 -79t-84 -31q-46 0 -79.5 32t-33.5 78z" />
    <glyph glyph-name="uniAB80_uni0324" unicode="&#xab80;&#x324;" horiz-adv-x="907" 
d="M350 481v-481h-175v1136h175v-501h499v-154h-499zM-48 -281q0 46 34.5 78t82.5 32q47 0 81.5 -32t34.5 -78t-34.5 -78t-81.5 -32q-32 0 -59 14.5t-42.5 39.5t-15.5 56zM343 -281q0 46 33.5 78t79.5 32q33 0 60 -14.5t42.5 -39.5t15.5 -56q0 -48 -34 -79t-84 -31
q-46 0 -79.5 32t-33.5 78z" />
    <glyph glyph-name="uniAB81_uni0324" unicode="&#xab81;&#x324;" horiz-adv-x="914" 
d="M350 982v-982h-175v1136h720v-154h-545zM-54 -281q0 46 34.5 78t82.5 32q47 0 81.5 -32t34.5 -78t-34.5 -78t-81.5 -32q-32 0 -59 14.5t-42.5 39.5t-15.5 56zM337 -281q0 46 33.5 78t79.5 32q33 0 60 -14.5t42.5 -39.5t15.5 -56q0 -48 -34 -79t-84 -31q-46 0 -79.5 32
t-33.5 78z" />
    <glyph glyph-name="uniAB82_uni0324" unicode="&#xab82;&#x324;" horiz-adv-x="1407" 
d="M1195 327q-9 -73 -33 -136.5t-66.5 -111.5t-105 -76t-147.5 -28q-65 0 -125 20t-121 55q-122 -75 -247 -75q-163 0 -252.5 81t-89.5 217q0 133 62.5 213t185.5 80l31 -177q-66 0 -86 -30t-20 -84q0 -75 47 -109.5t122 -34.5q25 0 52 9.5t56 26.5q-90 101 -131.5 219
t-41.5 251q0 260 83.5 391t228.5 131q146 0 229.5 -131t83.5 -391q0 -133 -42 -252t-131 -218q29 -17 55 -26.5t51 -9.5q67 0 110.5 49t58.5 147h-96v137h414v-137h-135zM597 1003q-6 0 -29 -12.5t-48 -51t-43.5 -111t-18.5 -191.5q0 -115 36.5 -206.5t102.5 -164.5
q67 73 103.5 164.5t36.5 206.5q0 116 -19 188t-41.5 111.5t-46.5 53t-33 13.5zM293 -281q0 46 34.5 78t82.5 32q47 0 81.5 -32t34.5 -78t-34.5 -78t-81.5 -32q-32 0 -59 14.5t-42.5 39.5t-15.5 56zM684 -281q0 46 33.5 78t79.5 32q33 0 60 -14.5t42.5 -39.5t15.5 -56
q0 -48 -34 -79t-84 -31q-46 0 -79.5 32t-33.5 78z" />
    <glyph glyph-name="uniAB83_uni0324" unicode="&#xab83;&#x324;" horiz-adv-x="1603" 
d="M783 847l-257 -847h-144l-348 1137h195l230 -884l239 851h172l240 -851l229 884h195l-348 -1137h-145zM468 -281q0 46 34.5 78t82.5 32q47 0 81.5 -32t34.5 -78t-34.5 -78t-81.5 -32q-32 0 -59 14.5t-42.5 39.5t-15.5 56zM859 -281q0 46 33.5 78t79.5 32q33 0 60 -14.5
t42.5 -39.5t15.5 -56q0 -48 -34 -79t-84 -31q-46 0 -79.5 32t-33.5 78z" />
    <glyph glyph-name="uniAB84_uni0324" unicode="&#xab84;&#x324;" horiz-adv-x="1197" 
d="M895 818q0 35 -6.5 69.5t-20 60.5t-35 41.5t-53.5 15.5q-62 0 -100.5 -29t-38.5 -83t46 -113q10 -14 23.5 -26.5t28.5 -27.5q14 -16 29 -29.5t31 -30.5q31 -29 61.5 -63.5t54.5 -73t38.5 -84t14.5 -100.5q0 -81 -27 -149.5t-77 -116.5t-121 -75t-160 -27
q-100 0 -183.5 25t-143.5 75t-94.5 125t-34.5 173q0 85 29 148.5t79 109.5t116.5 77t141.5 52q-16 31 -21.5 64.5t-5.5 68.5q0 60 23 109t63.5 84.5t94.5 54t115 18.5q85 0 143.5 -24t94.5 -68.5t53 -108t17 -142.5h-175zM724 489q-29 35 -62 66.5t-65 62.5
q-60 -12 -113 -31t-93.5 -50t-64.5 -75t-24 -102q0 -112 70.5 -171.5t195.5 -59.5q106 0 165.5 55t59.5 151q0 42 -20 80.5t-49 73.5zM235 -281q0 46 34.5 78t82.5 32q47 0 81.5 -32t34.5 -78t-34.5 -78t-81.5 -32q-32 0 -59 14.5t-42.5 39.5t-15.5 56zM626 -281
q0 46 33.5 78t79.5 32q33 0 60 -14.5t42.5 -39.5t15.5 -56q0 -48 -34 -79t-84 -31q-46 0 -79.5 32t-33.5 78z" />
    <glyph glyph-name="uniAB85_uni0324" unicode="&#xab85;&#x324;" horiz-adv-x="928" 
d="M862 836q0 -150 -77 -239q-39 -48 -93 -71t-131 -23v169q72 4 105.5 49t25.5 115q-4 71 -48 108q-45 38 -115 38q-88 0 -134.5 -44.5t-46.5 -142.5v-795h-173v780q0 177 96.5 266.5t257.5 89.5q150 0 239 -77q48 -39 71 -93t23 -130zM-60 -281q0 46 34.5 78t82.5 32
q47 0 81.5 -32t34.5 -78t-34.5 -78t-81.5 -32q-32 0 -59 14.5t-42.5 39.5t-15.5 56zM331 -281q0 46 33.5 78t79.5 32q33 0 60 -14.5t42.5 -39.5t15.5 -56q0 -48 -34 -79t-84 -31q-46 0 -79.5 32t-33.5 78z" />
    <glyph glyph-name="uniAB86_uni0324" unicode="&#xab86;&#x324;" horiz-adv-x="1215" 
d="M601 -23q-99 0 -186.5 33.5t-151 98t-100 158t-36.5 216.5v166q0 240 129 375q131 137 348 137q112 0 197.5 -34t141.5 -91.5t84 -131.5t28 -151h-175q0 61 -17.5 103.5t-54.5 78.5q-77 70 -204 70q-138 0 -220 -90.5t-82 -269.5v-162q0 -179 85 -267.5t223 -84.5
q52 2 102 14.5t89.5 35.5t62.5 57.5t21 79.5q-5 80 -46.5 123.5t-153.5 53.5v-120h-148v395h148v-112q379 -25 385 -340q2 -87 -39.5 -152.5t-110.5 -107t-153 -62.5t-166 -19zM283 -281q0 46 34.5 78t82.5 32q47 0 81.5 -32t34.5 -78t-34.5 -78t-81.5 -32q-32 0 -59 14.5
t-42.5 39.5t-15.5 56zM674 -281q0 46 33.5 78t79.5 32q33 0 60 -14.5t42.5 -39.5t15.5 -56q0 -48 -34 -79t-84 -31q-46 0 -79.5 32t-33.5 78z" />
    <glyph glyph-name="uniAB87_uni0324" unicode="&#xab87;&#x324;" horiz-adv-x="1463" 
d="M731 279l391 857h166v-1136h-164v770l-319 -685h-147l-319 681v-766h-164v1136h164zM420 -281q0 46 34.5 78t82.5 32q47 0 81.5 -32t34.5 -78t-34.5 -78t-81.5 -32q-32 0 -59 14.5t-42.5 39.5t-15.5 56zM811 -281q0 46 33.5 78t79.5 32q33 0 60 -14.5t42.5 -39.5
t15.5 -56q0 -48 -34 -79t-84 -31q-46 0 -79.5 32t-33.5 78z" />
    <glyph glyph-name="uniAB88_uni0324" unicode="&#xab88;&#x324;" horiz-adv-x="901" 
d="M562 0v254h-8q-88 0 -136 33.5t-81 72.5q-8 10 -15.5 18.5t-13.5 19.5q-15 16 -29 29q-27 27 -65 27h-22v-133h-148v395h148v-129h70q61 0 103.5 -34.5t75.5 -71.5q11 -11 18 -19t16 -17q14 -18 31 -31q29 -27 52 -27h4v408q0 87 -43.5 137t-139.5 50q-67 0 -113.5 -37.5
t-51.5 -109.5h-168q0 77 27 134t72.5 94.5t106 55t127.5 17.5q177 0 266.5 -96.5t89.5 -259.5v-780h-173zM327 -281q0 46 34.5 78t82.5 32q47 0 81.5 -32t34.5 -78t-34.5 -78t-81.5 -32q-32 0 -59 14.5t-42.5 39.5t-15.5 56zM718 -281q0 46 33.5 78t79.5 32q33 0 60 -14.5
t42.5 -39.5t15.5 -56q0 -48 -34 -79t-84 -31q-46 0 -79.5 32t-33.5 78z" />
    <glyph glyph-name="uniAB89_uni0324" unicode="&#xab89;&#x324;" horiz-adv-x="1449" 
d="M1222 749q2 56 -30.5 82t-84.5 26q-14 0 -35 -22q-15 -15 -23 -30q-6 -8 -13.5 -16.5t-13.5 -18.5q-29 -35 -68.5 -68.5t-102.5 -33.5q-129 0 -197 100q-11 -23 -24.5 -45t-28.5 -44q42 -28 78.5 -67.5t63.5 -86t42.5 -95.5t15.5 -95q0 -75 -14.5 -139.5t-50 -113.5
t-96.5 -77t-155 -28q-65 0 -117 23t-88 60.5t-56 88.5t-20 107q0 98 29 165.5t83 138.5q-56 -11 -102.5 -42t-88.5 -91l-123 112q79 108 193.5 148.5t233.5 40.5h21q43 61 71 122.5t39 131.5h-140v156h458v-156h-135q4 -23 10.5 -51t19 -52t30 -40.5t46.5 -16.5q17 0 40 25
q6 6 11 13.5t12 17.5q6 9 11 17t12 19q27 37 65.5 72.5t104.5 35.5q58 0 110.5 -19t91 -54t60 -85t21.5 -115h-166zM497 541q-12 -17 -22.5 -30.5t-20.5 -27.5q-13 -17 -23.5 -32.5t-18.5 -32.5q-17 -31 -26 -68.5t-9 -85.5q0 -56 27 -95.5t87 -39.5q48 0 76 17.5t41.5 47
t17 69t3.5 80.5q0 25 -11.5 53.5t-29.5 55.5t-42 51t-49 38zM343 -281q0 46 34.5 78t82.5 32q47 0 81.5 -32t34.5 -78t-34.5 -78t-81.5 -32q-32 0 -59 14.5t-42.5 39.5t-15.5 56zM734 -281q0 46 33.5 78t79.5 32q33 0 60 -14.5t42.5 -39.5t15.5 -56q0 -48 -34 -79t-84 -31
q-46 0 -79.5 32t-33.5 78z" />
    <glyph glyph-name="uniAB8A_uni0324" unicode="&#xab8a;&#x324;" horiz-adv-x="1628" 
d="M1276 0v512h-165v-31q0 -108 -30 -200t-91.5 -159.5t-155 -106t-218.5 -38.5t-216.5 38.5t-153 106t-90.5 160.5t-29 199v164q0 106 30 200t90.5 164.5t154 111t218.5 40.5q123 0 213.5 -39.5t152 -106t92.5 -157t33 -192.5h165v470h177v-1136h-177zM935 645
q0 71 -18 136.5t-56.5 115.5t-99 79t-143.5 29t-142.5 -29t-98 -79t-56 -115.5t-17.5 -136.5v-164q0 -73 17.5 -136.5t56 -110.5t98 -75t142.5 -28t143.5 28t99 75t56.5 110.5t18 136.5v164zM300 -281q0 46 34.5 78t82.5 32q47 0 81.5 -32t34.5 -78t-34.5 -78t-81.5 -32
q-32 0 -59 14.5t-42.5 39.5t-15.5 56zM691 -281q0 46 33.5 78t79.5 32q33 0 60 -14.5t42.5 -39.5t15.5 -56q0 -48 -34 -79t-84 -31q-46 0 -79.5 32t-33.5 78z" />
    <glyph glyph-name="uniAB8B_uni0324" unicode="&#xab8b;&#x324;" horiz-adv-x="1274" 
d="M924 0v512h-572v-512h-177v1136h177v-470h572v470h177v-1136h-177zM318 -281q0 46 34.5 78t82.5 32q47 0 81.5 -32t34.5 -78t-34.5 -78t-81.5 -32q-32 0 -59 14.5t-42.5 39.5t-15.5 56zM709 -281q0 46 33.5 78t79.5 32q33 0 60 -14.5t42.5 -39.5t15.5 -56q0 -48 -34 -79
t-84 -31q-46 0 -79.5 32t-33.5 78z" />
    <glyph glyph-name="uniAB8C_uni0324" unicode="&#xab8c;&#x324;" horiz-adv-x="870" 
d="M354 -23q-150 0 -240.5 81t-107.5 250h171q17 -100 58.5 -138.5t114.5 -38.5q95 0 150.5 65.5t55.5 203.5q0 147 -54.5 220t-147.5 73q-54 0 -91.5 -21t-66.5 -75l-142 88q73 127 196 154v145h-136v154h446v-154h-129v-141q137 -29 215 -147.5t78 -295.5
q0 -198 -97.5 -310.5t-272.5 -112.5zM35 -281q0 46 34.5 78t82.5 32q47 0 81.5 -32t34.5 -78t-34.5 -78t-81.5 -32q-32 0 -59 14.5t-42.5 39.5t-15.5 56zM426 -281q0 46 33.5 78t79.5 32q33 0 60 -14.5t42.5 -39.5t15.5 -56q0 -48 -34 -79t-84 -31q-46 0 -79.5 32t-33.5 78z
" />
    <glyph glyph-name="uniAB8D_uni0324" unicode="&#xab8d;&#x324;" horiz-adv-x="1193" 
d="M604 106q-67 -129 -219 -129q-44 0 -86.5 11.5t-76 35.5t-54 59.5t-20.5 85.5v93h-140v154h412v-154h-97v-66q0 -25 17.5 -45t44.5 -20q35 0 56 42l115 222l-394 743h200l294 -551l285 551h204zM343 -281q0 46 34.5 78t82.5 32q47 0 81.5 -32t34.5 -78t-34.5 -78
t-81.5 -32q-32 0 -59 14.5t-42.5 39.5t-15.5 56zM734 -281q0 46 33.5 78t79.5 32q33 0 60 -14.5t42.5 -39.5t15.5 -56q0 -48 -34 -79t-84 -31q-46 0 -79.5 32t-33.5 78z" />
    <glyph glyph-name="uniAB8E_uni0324" unicode="&#xab8e;&#x324;" horiz-adv-x="1240" 
d="M968 108q-129 -131 -356 -131q-112 0 -201.5 34.5t-152 99t-97 158t-34.5 212.5v164q0 242 133 377q131 139 354 139q221 0 356 -139q133 -140 133 -377v-164q0 -237 -135 -373zM926 645q0 177 -86.5 268.5t-225.5 91.5q-137 0 -224.5 -90.5t-87.5 -269.5h624zM926 493
h-624v-12q0 -92 24 -157.5t65.5 -108t98.5 -63.5t124 -21t124 21t98.5 63.5t65.5 108t24 157.5v12zM304 -281q0 46 34.5 78t82.5 32q47 0 81.5 -32t34.5 -78t-34.5 -78t-81.5 -32q-32 0 -59 14.5t-42.5 39.5t-15.5 56zM695 -281q0 46 33.5 78t79.5 32q33 0 60 -14.5
t42.5 -39.5t15.5 -56q0 -48 -34 -79t-84 -31q-46 0 -79.5 32t-33.5 78z" />
    <glyph glyph-name="uniAB8F_uni0324" unicode="&#xab8f;&#x324;" horiz-adv-x="1078" 
d="M574 -23q-77 -4 -153 17t-137 63.5t-99.5 106t-38.5 144.5v352h-138v154h138v299h177v-299h137v-154h-137l6 -329q0 -46 19.5 -82.5t54 -63.5t77 -40.5t90.5 -13.5q48 2 89.5 20t73 49t49 71.5t17.5 88.5v92h-252v156h425v-248q0 -81 -32.5 -151t-87.5 -119.5t-126.5 -80
t-151.5 -32.5zM237 -281q0 46 34.5 78t82.5 32q47 0 81.5 -32t34.5 -78t-34.5 -78t-81.5 -32q-32 0 -59 14.5t-42.5 39.5t-15.5 56zM628 -281q0 46 33.5 78t79.5 32q33 0 60 -14.5t42.5 -39.5t15.5 -56q0 -48 -34 -79t-84 -31q-46 0 -79.5 32t-33.5 78z" />
    <glyph glyph-name="uniAB90_uni0324" unicode="&#xab90;&#x324;" horiz-adv-x="1201" 
d="M610 -23q-240 0 -361.5 136.5t-121.5 381.5v154q0 240 133 375q131 137 354 137q204 0 321 -108q58 -54 90 -122.5t41 -164.5h-173q-17 125 -94 182t-187 57q-135 0 -222.5 -87.5t-87.5 -268.5v-154q0 -177 78 -270.5t228 -93.5q123 0 206 67q81 62 81 162v92h-316v156
h489v-248q0 -56 -23 -122.5t-77 -125t-141.5 -97t-216.5 -38.5zM287 -281q0 46 34.5 78t82.5 32q47 0 81.5 -32t34.5 -78t-34.5 -78t-81.5 -32q-32 0 -59 14.5t-42.5 39.5t-15.5 56zM678 -281q0 46 33.5 78t79.5 32q33 0 60 -14.5t42.5 -39.5t15.5 -56q0 -48 -34 -79
t-84 -31q-46 0 -79.5 32t-33.5 78z" />
    <glyph glyph-name="uniAB91_uni0324" unicode="&#xab91;&#x324;" horiz-adv-x="1288" 
d="M1045 -2l-265 714q-12 35 -24.5 68.5t-27.5 68.5l-8 22t-8 24q-4 12 -10.5 23.5t-12.5 22.5q-15 21 -30.5 33.5t-38.5 12.5t-35 -13q-13 -15 -26.5 -53.5t-23.5 -85.5q-11 -48 -18 -93t-11 -68q-23 -114 -45 -227.5t-45 -227.5q-8 -46 -24.5 -91t-47 -81.5t-73 -59
t-104.5 -22.5q-38 0 -76.5 7t-84.5 26l27 139q36 -14 58.5 -19.5t45.5 -5.5q54 0 75 42t32 94q22 120 44 239t45 237q12 67 28 130.5t30 127.5q19 84 86.5 129.5t155.5 45.5q79 0 134 -48t93 -114q18 -31 34 -66.5t28 -71.5q15 -35 25 -66t21 -60l260 -733h-183zM321 -281
q0 46 34.5 78t82.5 32q47 0 81.5 -32t34.5 -78t-34.5 -78t-81.5 -32q-32 0 -59 14.5t-42.5 39.5t-15.5 56zM712 -281q0 46 33.5 78t79.5 32q33 0 60 -14.5t42.5 -39.5t15.5 -56q0 -48 -34 -79t-84 -31q-46 0 -79.5 32t-33.5 78z" />
    <glyph glyph-name="uniAB92_uni0324" unicode="&#xab92;&#x324;" horiz-adv-x="1072" 
d="M957 0h-174v321q0 45 -17 84.5t-47 69t-69.5 46t-83.5 16.5t-84.5 -16.5t-69.5 -46t-46.5 -69t-17.5 -84.5v-321h-173v1565h173v-951q47 40 99.5 57.5t118.5 21.5q77 2 149 -25t125 -78t85 -119.5t32 -149.5v-321zM256 -281q0 46 34.5 78t82.5 32q47 0 81.5 -32t34.5 -78
t-34.5 -78t-81.5 -32q-32 0 -59 14.5t-42.5 39.5t-15.5 56zM647 -281q0 46 33.5 78t79.5 32q33 0 60 -14.5t42.5 -39.5t15.5 -56q0 -48 -34 -79t-84 -31q-46 0 -79.5 32t-33.5 78z" />
    <glyph glyph-name="uniAB93_uni0324" unicode="&#xab93;&#x324;" horiz-adv-x="1030" 
d="M314 139q9 3 40 6t78 4t104 3t118 2q137 2 310 2v-156h-864v119l628 863h-605v154h826v-116zM223 -281q0 46 34.5 78t82.5 32q47 0 81.5 -32t34.5 -78t-34.5 -78t-81.5 -32q-32 0 -59 14.5t-42.5 39.5t-15.5 56zM614 -281q0 46 33.5 78t79.5 32q33 0 60 -14.5t42.5 -39.5
t15.5 -56q0 -48 -34 -79t-84 -31q-46 0 -79.5 32t-33.5 78z" />
    <glyph glyph-name="uniAB94_uni0324" unicode="&#xab94;&#x324;" horiz-adv-x="945" 
d="M785 0h-165v339h-196q-153 0 -244 76q-68 57 -86 142h-86v124h330v-124h-70q21 -35 62 -55t94 -20h196v315q0 103 -52 150t-144 47q-55 0 -97 -21t-62 -59h73v-124h-330v124h84q18 88 88 147q94 76 244 76q162 0 262 -89q99 -89 99 -265v-783zM379 -281q0 46 34.5 78
t82.5 32q47 0 81.5 -32t34.5 -78t-34.5 -78t-81.5 -32q-32 0 -59 14.5t-42.5 39.5t-15.5 56zM770 -281q0 46 33.5 78t79.5 32q33 0 60 -14.5t42.5 -39.5t15.5 -56q0 -48 -34 -79t-84 -31q-46 0 -79.5 32t-33.5 78z" />
    <glyph glyph-name="uniAB95_uni0324" unicode="&#xab95;&#x324;" horiz-adv-x="1636" 
d="M1361 656q-33 0 -65.5 8t-61.5 27q-29 -42 -59 -82.5t-62 -81.5v-46q0 -108 -30 -200t-91.5 -159.5t-155 -106t-218.5 -38.5t-217.5 38.5t-154 107t-90.5 160.5t-29 198v164q0 106 30 200t91.5 164.5t154 111t217.5 40.5q106 0 190.5 -30t146 -85t99 -130t51.5 -163
l48 67q-4 23 -8 47t-4 49l2 33h139v-53t6.5 -51t21 -38.5t41.5 -15.5q25 0 39.5 15.5t20.5 39.5t6 51v52h142q0 -46 -8.5 -98t-30 -95.5t-61 -71.5t-100.5 -28zM937 645q0 71 -18 136.5t-56.5 115.5t-99 79t-143.5 29q-85 0 -144.5 -29t-98 -79t-56 -115.5t-17.5 -136.5
v-164q0 -71 17.5 -134.5t56 -111.5t98 -76t144.5 -28q83 0 143.5 28t99 75t56.5 110.5t18 136.5v164zM306 -281q0 46 34.5 78t82.5 32q47 0 81.5 -32t34.5 -78t-34.5 -78t-81.5 -32q-32 0 -59 14.5t-42.5 39.5t-15.5 56zM697 -281q0 46 33.5 78t79.5 32q33 0 60 -14.5
t42.5 -39.5t15.5 -56q0 -48 -34 -79t-84 -31q-46 0 -79.5 32t-33.5 78z" />
    <glyph glyph-name="uniAB96_uni0324" unicode="&#xab96;&#x324;" horiz-adv-x="1007" 
d="M44 0v154h362v828h-362v154h899v-154h-362v-828h362v-154h-899zM179 -281q0 46 34.5 78t82.5 32q47 0 81.5 -32t34.5 -78t-34.5 -78t-81.5 -32q-32 0 -59 14.5t-42.5 39.5t-15.5 56zM570 -281q0 46 33.5 78t79.5 32q33 0 60 -14.5t42.5 -39.5t15.5 -56q0 -48 -34 -79
t-84 -31q-46 0 -79.5 32t-33.5 78z" />
    <glyph glyph-name="uniAB97_uni0324" unicode="&#xab97;&#x324;" horiz-adv-x="1390" 
d="M528 556h177v-322q0 -32 20.5 -54t50.5 -35.5t63 -19.5t58 -6q52 0 91 28.5t65.5 77.5t41 114t17.5 138.5t-5.5 150.5t-27 150.5t-47.5 138.5t-68 114t-87 77.5t-105 28.5t-93.5 -10.5t-57.5 -34.5t-29 -62.5t-8 -93.5h-178q0 87 26 151.5t73.5 107.5t114.5 64t150 21
q91 0 166.5 -36.5t135 -99t102.5 -146t69.5 -177.5t35 -193t-1 -193t-37.5 -177.5t-75.5 -146t-114 -99t-153.5 -36.5q-71 0 -139 17.5t-127 59.5q-52 -39 -112.5 -58t-125.5 -19q-191 0 -288 90t-97 284q0 58 16 103.5t44 84t65.5 71t81.5 63.5l68 -131q-27 -24 -47 -43.5
t-34 -41t-21 -48.5t-7 -67q0 -109 56 -165.5t165 -56.5q21 0 44 9.5t43 25.5t33 36.5t13 43.5v322zM316 -281q0 46 34.5 78t82.5 32q47 0 81.5 -32t34.5 -78t-34.5 -78t-81.5 -32q-32 0 -59 14.5t-42.5 39.5t-15.5 56zM707 -281q0 46 33.5 78t79.5 32q33 0 60 -14.5
t42.5 -39.5t15.5 -56q0 -48 -34 -79t-84 -31q-46 0 -79.5 32t-33.5 78z" />
    <glyph glyph-name="uniAB98_uni0324" unicode="&#xab98;&#x324;" horiz-adv-x="1213" 
d="M905 568q-29 0 -47.5 4.5t-36.5 18t-35.5 39.5t-44.5 69l-13 25l96 86q17 -30 27.5 -47.5t16.5 -27t11.5 -12.5t13.5 -3q6 0 14.5 3t14.5 14.5t10.5 34.5t4.5 65q0 66 -49 117t-168 51q-29 0 -58 -12.5t-61 -33.5q71 -104 99 -220.5t28 -241.5q0 -268 -57 -394t-199 -126
q-141 0 -198.5 126t-57.5 394q0 286 144 473q-10 6 -17.5 12.5t-15.5 10.5q-25 12 -38 12q-16 0 -35 -16.5t-34.5 -53t-27 -92.5t-11.5 -137h-173q0 224 77 338.5t204 114.5q54 0 103 -18.5t95 -54.5q54 36 111.5 54.5t121.5 18.5q202 0 297.5 -89.5t95.5 -230.5
q0 -144 -50.5 -207.5t-157.5 -63.5zM477 833q-40 -67 -63 -150.5t-23 -185.5q0 -122 10.5 -195t25 -110.5t27 -49t18.5 -11.5q7 0 19.5 11.5t26 49t24 110.5t10.5 195q0 100 -20 183.5t-55 152.5zM167 -281q0 46 34.5 78t82.5 32q47 0 81.5 -32t34.5 -78t-34.5 -78
t-81.5 -32q-32 0 -59 14.5t-42.5 39.5t-15.5 56zM558 -281q0 46 33.5 78t79.5 32q33 0 60 -14.5t42.5 -39.5t15.5 -56q0 -48 -34 -79t-84 -31q-46 0 -79.5 32t-33.5 78z" />
    <glyph glyph-name="uniAB99_uni0324" unicode="&#xab99;&#x324;" horiz-adv-x="1850" 
d="M835 233l251 905h196q0 -22 1 -45t5 -44t15.5 -33.5t34.5 -12.5q7 0 14 5.5t17 13.5q13 10 27.5 23.5t31.5 28.5q33 29 71.5 55t76.5 26q43 0 85 -8.5t73 -28t49.5 -54t18.5 -84.5q0 -54 -14.5 -93.5t-42.5 -68.5t-69.5 -52t-97.5 -44l-54 142q62 18 81.5 43t19.5 69
q0 23 -19.5 26t-38.5 3q-4 0 -27 -18q-19 -17 -41.5 -40t-47.5 -44t-52 -35.5t-54 -14.5q-44 0 -80.5 10.5t-65.5 39.5l-283 -903h-165l-266 853q-25 -58 -72 -98.5t-128 -40.5q-116 0 -191 66.5t-86 181.5l138 72q10 -79 42.5 -124.5t96.5 -45.5q36 0 55.5 32t30 76
t12.5 90.5t2 75.5h194zM525 -281q0 46 34.5 78t82.5 32q47 0 81.5 -32t34.5 -78t-34.5 -78t-81.5 -32q-32 0 -59 14.5t-42.5 39.5t-15.5 56zM916 -281q0 46 33.5 78t79.5 32q33 0 60 -14.5t42.5 -39.5t15.5 -56q0 -48 -34 -79t-84 -31q-46 0 -79.5 32t-33.5 78z" />
    <glyph glyph-name="uniAB9A_uni0324" unicode="&#xab9a;&#x324;" horiz-adv-x="1390" 
d="M791 634q43 0 78.5 -11.5t66 -32t55.5 -49.5t47 -64l-138 -82q-19 40 -48.5 68.5t-76.5 28.5q-34 0 -52.5 -22t-27.5 -52.5t-10.5 -64t-1.5 -57.5q0 -46 18 -79.5t48 -55t68.5 -32t79.5 -10.5q52 0 91 28.5t65.5 77.5t41 114t17.5 138.5t-5.5 150.5t-27 150.5
t-47.5 138.5t-68 114t-87 77.5t-105 28.5q-56 0 -92.5 -11.5t-58 -35.5t-29.5 -62t-8 -92h-178q0 87 25.5 151.5t73 107t114.5 64t151 21.5q91 0 166.5 -36.5t135 -99t102.5 -146t69.5 -177.5t35 -193t-1 -193t-37.5 -177.5t-75.5 -146t-114 -99t-153.5 -36.5
q-70 0 -139 17.5t-127 59.5q-52 -38 -113 -57.5t-125 -19.5q-191 0 -288 90.5t-97 283.5q0 57 16 103t44 84t65.5 71t81.5 64l68 -131q-27 -24 -47.5 -44t-34 -42t-20.5 -49t-7 -65q0 -109 56 -165.5t165 -56.5q19 0 45.5 9.5t50.5 25.5t41 36.5t17 43.5q0 31 -10.5 61.5
t-10.5 62.5q0 58 18.5 108t53 87.5t83 59t108.5 21.5zM316 -281q0 46 34.5 78t82.5 32q47 0 81.5 -32t34.5 -78t-34.5 -78t-81.5 -32q-32 0 -59 14.5t-42.5 39.5t-15.5 56zM707 -281q0 46 33.5 78t79.5 32q33 0 60 -14.5t42.5 -39.5t15.5 -56q0 -48 -34 -79t-84 -31
q-46 0 -79.5 32t-33.5 78z" />
    <glyph glyph-name="uniAB9B_uni0324" unicode="&#xab9b;&#x324;" horiz-adv-x="1068" 
d="M554 -25q-79 0 -155 21t-136.5 63.5t-98 106t-37.5 148.5q0 100 51 171t138 106q-72 42 -110.5 110.5t-38.5 149.5q0 75 32 133.5t85 98t119.5 59t137.5 19.5q69 0 135.5 -17.5t120.5 -55t88.5 -95.5t38.5 -140h-173q-10 79 -69.5 115.5t-132.5 36.5q-87 0 -148.5 -42.5
t-61.5 -121.5t60.5 -129t149.5 -50h102v-152h-110q-48 0 -91.5 -12.5t-77 -36.5t-52 -59.5t-18.5 -78.5q0 -98 72.5 -145t177.5 -47q25 0 63.5 2t74.5 11.5t62 28t26 50.5q0 33 -45 41q-13 4 -25.5 4h-26.5h-67v163h73q41 0 88 -10.5t86.5 -33.5t65.5 -59.5t26 -88.5
q0 -68 -42.5 -118t-104 -82.5t-130 -48t-122.5 -15.5zM233 -281q0 46 34.5 78t82.5 32q47 0 81.5 -32t34.5 -78t-34.5 -78t-81.5 -32q-32 0 -59 14.5t-42.5 39.5t-15.5 56zM624 -281q0 46 33.5 78t79.5 32q33 0 60 -14.5t42.5 -39.5t15.5 -56q0 -48 -34 -79t-84 -31
q-46 0 -79.5 32t-33.5 78z" />
    <glyph glyph-name="uniAB9C_uni0324" unicode="&#xab9c;&#x324;" horiz-adv-x="1245" 
d="M957 92q-127 -115 -333 -115q-102 0 -187 30t-146.5 86.5t-96 135.5t-34.5 175v732h175v-493h577v493h174v-736q0 -190 -129 -308zM912 491h-577v-91q0 -123 77 -196t212 -73q132 0 210 73t78 196v91zM323 -281q0 46 34.5 78t82.5 32q47 0 81.5 -32t34.5 -78t-34.5 -78
t-81.5 -32q-32 0 -59 14.5t-42.5 39.5t-15.5 56zM714 -281q0 46 33.5 78t79.5 32q33 0 60 -14.5t42.5 -39.5t15.5 -56q0 -48 -34 -79t-84 -31q-46 0 -79.5 32t-33.5 78z" />
    <glyph glyph-name="uniAB9D_uni0324" unicode="&#xab9d;&#x324;" horiz-adv-x="1542" 
d="M266 460q-27 0 -43.5 -20t-25 -48t-11.5 -56t-3 -47q0 -77 27 -117.5t56 -40.5q30 0 56 40.5t26 117.5q0 79 -28.5 125t-53.5 46zM930 -23q-162 0 -257.5 78t-118.5 234l-30 -14q-8 -138 -79.5 -218t-178.5 -80q-56 0 -104 22t-82 62.5t-53 99t-19 128.5q0 69 20 128.5
t54.5 102t82 66.5t101.5 24q82 0 145.5 -49t92.5 -143l41 19v210h179v-193q0 -63 6.5 -120t28 -103t62.5 -73t109 -27q121 0 192 74t96 184.5t8 239.5t-68 239t-133 184t-188 74q-42 0 -90 -9.5t-93.5 -29t-86 -51t-67.5 -74.5l-146 97q46 57 104 98.5t121.5 69.5t129 41.5
t126.5 13.5q122 0 222 -56t174 -147.5t120 -209.5t59.5 -239.5t-7.5 -239t-79.5 -209.5t-155 -148t-238.5 -56zM323 -281q0 46 34.5 78t82.5 32q47 0 81.5 -32t34.5 -78t-34.5 -78t-81.5 -32q-32 0 -59 14.5t-42.5 39.5t-15.5 56zM714 -281q0 46 33.5 78t79.5 32
q33 0 60 -14.5t42.5 -39.5t15.5 -56q0 -48 -34 -79t-84 -31q-46 0 -79.5 32t-33.5 78z" />
    <glyph glyph-name="uniAB9E_uni0324" unicode="&#xab9e;&#x324;" horiz-adv-x="1113" 
d="M1020 345h-312v-345h-171v345h-441v140l376 651h236v-639h312v-152zM537 497v446l-254 -446h254zM312 -281q0 46 34.5 78t82.5 32q47 0 81.5 -32t34.5 -78t-34.5 -78t-81.5 -32q-32 0 -59 14.5t-42.5 39.5t-15.5 56zM703 -281q0 46 33.5 78t79.5 32q33 0 60 -14.5
t42.5 -39.5t15.5 -56q0 -48 -34 -79t-84 -31q-46 0 -79.5 32t-33.5 78z" />
    <glyph glyph-name="uniAB9F_uni0324" unicode="&#xab9f;&#x324;" horiz-adv-x="1113" 
d="M897 98q-110 -98 -281 -98h-441v1136h177v-422h264q175 0 281 -98q108 -98 108 -258q0 -158 -108 -260zM516 560h-164v-406h258q106 0 161 52t55 152q0 62 -18.5 102t-58 61.5t-98 30t-135.5 8.5zM221 -281q0 46 34.5 78t82.5 32q47 0 81.5 -32t34.5 -78t-34.5 -78
t-81.5 -32q-32 0 -59 14.5t-42.5 39.5t-15.5 56zM612 -281q0 46 33.5 78t79.5 32q33 0 60 -14.5t42.5 -39.5t15.5 -56q0 -48 -34 -79t-84 -31q-46 0 -79.5 32t-33.5 78z" />
    <glyph glyph-name="uniABA0_uni0324" unicode="&#xaba0;&#x324;" horiz-adv-x="872" 
d="M604 441q0 73 -16 96t-39 23q-22 0 -77 -33v-527h-181v414q-41 -21 -77 -21q-112 0 -159 67t-47 200h150q0 -73 15.5 -95t38.5 -22q11 0 30.5 7.5t48.5 26.5v559h181v-447q40 19 73 19q113 0 159.5 -67t46.5 -200h-147zM69 -281q0 46 34.5 78t82.5 32q47 0 81.5 -32
t34.5 -78t-34.5 -78t-81.5 -32q-32 0 -59 14.5t-42.5 39.5t-15.5 56zM460 -281q0 46 33.5 78t79.5 32q33 0 60 -14.5t42.5 -39.5t15.5 -56q0 -48 -34 -79t-84 -31q-46 0 -79.5 32t-33.5 78z" />
    <glyph glyph-name="uniABA1_uni0324" unicode="&#xaba1;&#x324;" horiz-adv-x="1170" 
d="M612 922q12 13 24.5 25t27.5 25q25 21 55 35.5t72 14.5q62 0 114 -22t88.5 -58.5t57.5 -84t21 -101.5q0 -48 -22 -91t-61.5 -75t-92.5 -51t-118 -19v163q61 0 90 21.5t29 51.5q0 39 -23 69t-83 30q-13 0 -40 -20q-16 -13 -33 -28.5t-35 -32.5q-36 -31 -77.5 -63
t-83.5 -45q-31 -35 -62 -60q-17 -15 -37.5 -29.5t-43.5 -31.5l-38 -27q119 -48 193 -117.5t74 -154.5q0 -115 -69 -192t-200 -77q-62 0 -119.5 23t-100 63.5t-67.5 95.5t-25 122q0 94 26 152t72 104q23 23 48 42.5t52 40.5q23 15 44.5 30.5t44.5 32.5q-77 35 -120.5 106
t-43.5 146q0 47 17.5 89t49 72t73 46.5t89.5 16.5q54 0 96.5 -18.5t72 -52t46 -76t18.5 -90.5zM383 1005q-27 0 -42.5 -19.5t-15.5 -50.5q0 -48 24 -80.5t74 -38.5q6 23 10 55t4 57q0 42 -16.5 59.5t-37.5 17.5zM223 391q-23 -56 -23 -110q0 -71 33 -110.5t102 -39.5
q100 0 100 115q0 39 -53 78.5t-159 66.5zM23 -281q0 46 34.5 78t82.5 32q47 0 81.5 -32t34.5 -78t-34.5 -78t-81.5 -32q-32 0 -59 14.5t-42.5 39.5t-15.5 56zM414 -281q0 46 33.5 78t79.5 32q33 0 60 -14.5t42.5 -39.5t15.5 -56q0 -48 -34 -79t-84 -31q-46 0 -79.5 32
t-33.5 78z" />
    <glyph glyph-name="uniABA2_uni0324" unicode="&#xaba2;&#x324;" horiz-adv-x="1168" 
d="M603 996h-259v-996h-168v1137h444q79 0 150.5 -20t126 -62t87 -106.5t32.5 -152.5q0 -115 -58 -197t-163 -120l251 -479h-191l-295 587q58 0 110 10t91 33.5t62 61.5t23 94q0 55 -18.5 95t-51 65.5t-77 37.5t-96.5 12zM254 -281q0 46 34.5 78t82.5 32q47 0 81.5 -32
t34.5 -78t-34.5 -78t-81.5 -32q-32 0 -59 14.5t-42.5 39.5t-15.5 56zM645 -281q0 46 33.5 78t79.5 32q33 0 60 -14.5t42.5 -39.5t15.5 -56q0 -48 -34 -79t-84 -31q-46 0 -79.5 32t-33.5 78z" />
    <glyph glyph-name="uniABA3_uni0324" unicode="&#xaba3;&#x324;" horiz-adv-x="949" 
d="M768 52q-92 -75 -239 -75q-161 0 -257.5 89.5t-96.5 266.5v803h173v-818q0 -99 46.5 -143t134.5 -44q70 0 115 37.5t49 110.5h169q0 -77 -23 -131t-71 -96zM202 -281q0 46 34.5 78t82.5 32q47 0 81.5 -32t34.5 -78t-34.5 -78t-81.5 -32q-32 0 -59 14.5t-42.5 39.5
t-15.5 56zM593 -281q0 46 33.5 78t79.5 32q33 0 60 -14.5t42.5 -39.5t15.5 -56q0 -48 -34 -79t-84 -31q-46 0 -79.5 32t-33.5 78z" />
    <glyph glyph-name="uniABA4_uni0324" unicode="&#xaba4;&#x324;" horiz-adv-x="1603" 
d="M987 221l333 915h201l-455 -1136h-163l-127 321l-129 -321h-162l-452 1136h200l333 -915l119 326l-233 589h199l125 -341l123 341h202l-235 -589zM466 -281q0 46 34.5 78t82.5 32q47 0 81.5 -32t34.5 -78t-34.5 -78t-81.5 -32q-32 0 -59 14.5t-42.5 39.5t-15.5 56z
M857 -281q0 46 33.5 78t79.5 32q33 0 60 -14.5t42.5 -39.5t15.5 -56q0 -48 -34 -79t-84 -31q-46 0 -79.5 32t-33.5 78z" />
    <glyph glyph-name="uniABA5_uni0324" unicode="&#xaba5;&#x324;" horiz-adv-x="1209" 
d="M945 462q33 -58 33 -139q0 -169 -131 -258q-127 -88 -327 -88q-112 0 -200.5 30t-138.5 80q-48 50 -74 109.5t-28 134.5h177q10 -90 81 -145t202 -55q125 0 192.5 51t67.5 130q0 61 -40.5 99.5t-140.5 63.5l-212 52q-63 14 -115 40t-91.5 63.5t-61 87.5t-21.5 112
q0 82 36 144t96.5 105t136.5 63.5t155 20.5q58 0 116.5 -11t110.5 -35t94.5 -60.5t69.5 -86.5h173v-156h-451v156h47q-62 39 -164 39q-112 0 -176.5 -45.5t-64.5 -124.5q0 -54 36 -90.5t118 -57.5l208 -54q21 -4 40.5 -10.5t38.5 -12.5h368v-152h-160zM219 -281
q0 46 34.5 78t82.5 32q47 0 81.5 -32t34.5 -78t-34.5 -78t-81.5 -32q-32 0 -59 14.5t-42.5 39.5t-15.5 56zM610 -281q0 46 33.5 78t79.5 32q33 0 60 -14.5t42.5 -39.5t15.5 -56q0 -48 -34 -79t-84 -31q-46 0 -79.5 32t-33.5 78z" />
    <glyph glyph-name="uniABA6_uni0324" unicode="&#xaba6;&#x324;" horiz-adv-x="1184" 
d="M980 52q-93 -75 -243 -75q-165 0 -264.5 89.5t-99.5 266.5v649h-365v154h541v-818q0 -99 49 -143t139 -44q71 0 116.5 35.5t47.5 93.5q2 63 -39.5 105.5t-120.5 46.5v162q81 0 143.5 -25t105 -67.5t63.5 -99.5t21 -122q0 -127 -94 -208zM410 -281q0 46 34.5 78t82.5 32
q47 0 81.5 -32t34.5 -78t-34.5 -78t-81.5 -32q-32 0 -59 14.5t-42.5 39.5t-15.5 56zM801 -281q0 46 33.5 78t79.5 32q33 0 60 -14.5t42.5 -39.5t15.5 -56q0 -48 -34 -79t-84 -31q-46 0 -79.5 32t-33.5 78z" />
    <glyph glyph-name="uniABA7_uni0324" unicode="&#xaba7;&#x324;" horiz-adv-x="1009" 
d="M654 0v450q-34 -50 -91 -129.5t-129 -153t-151 -124.5t-156 -47q-8 2 -19 2h-22.5t-29.5 2v158q13 -2 28.5 -3t29.5 -1q17 -2 32 -2q43 -2 95 36.5t106.5 100t106.5 135t93.5 140.5t69.5 117t37 64v391h183v-1136h-183zM429 -281q0 46 34.5 78t82.5 32q47 0 81.5 -32
t34.5 -78t-34.5 -78t-81.5 -32q-32 0 -59 14.5t-42.5 39.5t-15.5 56zM820 -281q0 46 33.5 78t79.5 32q33 0 60 -14.5t42.5 -39.5t15.5 -56q0 -48 -34 -79t-84 -31q-46 0 -79.5 32t-33.5 78z" />
    <glyph glyph-name="uniABA8_uni0324" unicode="&#xaba8;&#x324;" horiz-adv-x="1001" 
d="M654 745v237h-548v154h722v-1136h-174v481q-11 -25 -38 -71t-66.5 -101t-89.5 -112.5t-105 -103t-113.5 -73.5t-114.5 -24q-8 2 -19 2h-22.5t-29.5 2v158q13 -2 28.5 -3t29.5 -1q17 -2 32 -2q41 -2 92 34.5t103 95.5t103 131t94 138.5t73 119.5t43 74zM427 -281
q0 46 34.5 78t82.5 32q47 0 81.5 -32t34.5 -78t-34.5 -78t-81.5 -32q-32 0 -59 14.5t-42.5 39.5t-15.5 56zM818 -281q0 46 33.5 78t79.5 32q33 0 60 -14.5t42.5 -39.5t15.5 -56q0 -48 -34 -79t-84 -31q-46 0 -79.5 32t-33.5 78z" />
    <glyph glyph-name="uniABA9_uni0324" unicode="&#xaba9;&#x324;" horiz-adv-x="1174" 
d="M562 221l329 915h200l-450 -1136h-160l-448 1136h198zM250 -281q0 46 34.5 78t82.5 32q47 0 81.5 -32t34.5 -78t-34.5 -78t-81.5 -32q-32 0 -59 14.5t-42.5 39.5t-15.5 56zM641 -281q0 46 33.5 78t79.5 32q33 0 60 -14.5t42.5 -39.5t15.5 -56q0 -48 -34 -79t-84 -31
q-46 0 -79.5 32t-33.5 78z" />
    <glyph glyph-name="uniABAA_uni0324" unicode="&#xabaa;&#x324;" horiz-adv-x="1113" 
d="M843 65q-65 -46 -145 -67t-180 -21q-112 0 -199.5 30t-137.5 80q-48 50 -74 109.5t-28 134.5h175q10 -90 81 -145t202 -55q123 0 190.5 51t67.5 130q0 61 -40.5 99.5t-140.5 63.5l-210 52q-61 14 -114 40t-91.5 63.5t-60 87.5t-21.5 112q0 82 36 144t95.5 105t135.5 63.5
t155 20.5q75 0 149 -18.5t133 -60t98.5 -108t44.5 -162.5h-175q-11 91 -73 143t-181 52q-112 0 -177 -45.5t-65 -124.5q0 -108 154 -148l207 -54q151 -38 235.5 -110.5t84.5 -203.5q0 -169 -131 -258zM221 -281q0 46 34.5 78t82.5 32q47 0 81.5 -32t34.5 -78t-34.5 -78
t-81.5 -32q-32 0 -59 14.5t-42.5 39.5t-15.5 56zM612 -281q0 46 33.5 78t79.5 32q33 0 60 -14.5t42.5 -39.5t15.5 -56q0 -48 -34 -79t-84 -31q-46 0 -79.5 32t-33.5 78z" />
    <glyph glyph-name="uniABAB_uni0324" unicode="&#xabab;&#x324;" horiz-adv-x="1492" 
d="M1124 527l-35 158q79 16 113 59t34 99q0 64 -36.5 112t-90.5 48q-31 0 -67.5 -20.5t-68.5 -62.5t-54 -104.5t-24 -145.5l-169 52q2 25 7 48q2 19 4 38.5t2 30.5q0 43 -14.5 73.5t-38.5 51t-54.5 30t-59.5 9.5q-56 0 -99.5 -27t-79.5 -75q102 -16 174 -64t118 -114.5
t67.5 -146t21.5 -158.5q0 -87 -23 -167t-66.5 -140.5t-106 -97t-139.5 -36.5q-79 0 -137 45t-96.5 117.5t-58.5 167.5t-20 193q0 118 23 235.5t76 211.5t137 153t209 59q96 0 173 -36.5t123 -102.5q52 66 112.5 102.5t128.5 36.5q73 0 129.5 -25t95 -66.5t58 -95.5
t19.5 -115q0 -116 -73 -209.5t-214 -120.5zM327 745q-25 -104 -25 -248q0 -81 11.5 -149.5t32 -116.5t46.5 -75t55 -27q25 0 52.5 23t49 63.5t36 94.5t14.5 117q0 122 -65.5 211.5t-206.5 106.5zM131 -281q0 46 34.5 78t82.5 32q47 0 81.5 -32t34.5 -78t-34.5 -78t-81.5 -32
q-32 0 -59 14.5t-42.5 39.5t-15.5 56zM522 -281q0 46 33.5 78t79.5 32q33 0 60 -14.5t42.5 -39.5t15.5 -56q0 -48 -34 -79t-84 -31q-46 0 -79.5 32t-33.5 78z" />
    <glyph glyph-name="uniABAC_uni0324" unicode="&#xabac;&#x324;" horiz-adv-x="1378" 
d="M995 -23q-127 0 -194.5 79t-67.5 231q0 54 25 109.5t72 115.5l-135 100l-137 -100q48 -60 73 -115.5t25 -109.5q0 -152 -68 -231t-195 -79q-60 0 -109 10.5t-84.5 35.5t-54 67.5t-18.5 109.5q0 71 38.5 139.5t88.5 124.5t97 93.5t63 50.5l152 106q-54 52 -84 103t-30 101
q0 112 67.5 176.5t173.5 64.5t175 -64.5t69 -176.5q0 -98 -117 -204q56 -42 121.5 -87.5t113.5 -85.5q94 -77 149 -160t55 -181q0 -63 -20.5 -104.5t-56 -68.5t-83.5 -38.5t-104 -11.5zM693 1005q-29 0 -48 -21.5t-19 -63.5q0 -40 69 -104q67 66 67 104q0 42 -20 63.5
t-49 21.5zM970 398q-60 -71 -60 -121q0 -77 31 -111.5t62 -34.5q83 0 83 69q0 85 -116 198zM418 398q-116 -113 -116 -198q0 -69 83 -69q31 0 63.5 34.5t32.5 111.5q0 48 -63 121zM383 -281q0 46 34.5 78t82.5 32q47 0 81.5 -32t34.5 -78t-34.5 -78t-81.5 -32
q-32 0 -59 14.5t-42.5 39.5t-15.5 56zM774 -281q0 46 33.5 78t79.5 32q33 0 60 -14.5t42.5 -39.5t15.5 -56q0 -48 -34 -79t-84 -31q-46 0 -79.5 32t-33.5 78z" />
    <glyph glyph-name="uniABAD_uni0324" unicode="&#xabad;&#x324;" horiz-adv-x="970" 
d="M175 0v772q0 177 97.5 266.5t260.5 89.5q148 0 239 -77q48 -39 71 -93.5t23 -131.5h-171q-4 71 -49 108.5t-113 37.5q-88 0 -135.5 -43.5t-47.5 -141.5v-631h545v-156h-720zM204 -281q0 46 34.5 78t82.5 32q47 0 81.5 -32t34.5 -78t-34.5 -78t-81.5 -32q-32 0 -59 14.5
t-42.5 39.5t-15.5 56zM595 -281q0 46 33.5 78t79.5 32q33 0 60 -14.5t42.5 -39.5t15.5 -56q0 -48 -34 -79t-84 -31q-46 0 -79.5 32t-33.5 78z" />
    <glyph glyph-name="uniABAE_uni0324" unicode="&#xabae;&#x324;" horiz-adv-x="914" 
d="M175 0v1136h175v-980h545v-156h-720zM204 -281q0 46 34.5 78t82.5 32q47 0 81.5 -32t34.5 -78t-34.5 -78t-81.5 -32q-32 0 -59 14.5t-42.5 39.5t-15.5 56zM595 -281q0 46 33.5 78t79.5 32q33 0 60 -14.5t42.5 -39.5t15.5 -56q0 -48 -34 -79t-84 -31q-46 0 -79.5 32
t-33.5 78z" />
    <glyph glyph-name="uniABAF_uni0324" unicode="&#xabaf;&#x324;" horiz-adv-x="1159" 
d="M601 -23q-220 0 -347 130t-127 376v166q0 240 129 375q131 137 348 137q112 0 196 -34q43 -18 79 -41v76h173v-379q1 -15 1 -30h-173q0 61 -18.5 103.5t-56.5 78.5q-74 70 -201 70q-138 0 -220 -90.5t-82 -269.5v-162q0 -181 81 -266.5t227 -85.5q133 0 201.5 64.5
t68.5 166.5h173q0 -66 -26 -135t-81 -125t-140.5 -90.5t-204.5 -34.5zM285 -281q0 46 34.5 78t82.5 32q47 0 81.5 -32t34.5 -78t-34.5 -78t-81.5 -32q-32 0 -59 14.5t-42.5 39.5t-15.5 56zM676 -281q0 46 33.5 78t79.5 32q33 0 60 -14.5t42.5 -39.5t15.5 -56q0 -48 -34 -79
t-84 -31q-46 0 -79.5 32t-33.5 78z" />
    <glyph glyph-name="uniABB0_uni0324" unicode="&#xabb0;&#x324;" horiz-adv-x="1195" 
d="M907 464v-171q0 -149 -80 -232.5t-211 -83.5t-212 78t-81 220v191q-150 9 -232.5 67t-82.5 177q0 123 67 203t181 80q50 0 94.5 -20t77 -53t51 -77t18.5 -90v-133h236v518h174v-518h171v-156h-171zM323 720q0 67 -19 95t-50 28t-51 -33.5t-20 -99.5q0 -36 29 -57.5
t111 -30.5v98zM733 464h-236v-164q0 -96 30.5 -132.5t90.5 -36.5q54 0 84.5 51t30.5 161v121zM302 -281q0 46 34.5 78t82.5 32q47 0 81.5 -32t34.5 -78t-34.5 -78t-81.5 -32q-32 0 -59 14.5t-42.5 39.5t-15.5 56zM693 -281q0 46 33.5 78t79.5 32q33 0 60 -14.5t42.5 -39.5
t15.5 -56q0 -48 -34 -79t-84 -31q-46 0 -79.5 32t-33.5 78z" />
    <glyph glyph-name="uniABB1_uni0324" unicode="&#xabb1;&#x324;" horiz-adv-x="1447" 
d="M1093 558l-32 179q67 0 81.5 34t14.5 89q0 75 -45.5 109t-120.5 34q-27 0 -54 -9.5t-57 -23.5q175 -200 175 -473q0 -260 -83 -390t-231 -130q-146 0 -229 130t-83 390q0 134 41.5 253.5t133.5 219.5q-63 33 -109 33q-66 0 -110 -49t-56 -146h96v-75v-61h-417v136h136
q8 70 32 134.5t66.5 112.5t105 76t147.5 28q67 0 127.5 -19.5t118.5 -55.5q123 75 250 75q160 0 249.5 -80t89.5 -217q0 -134 -57.5 -219t-179.5 -85zM741 868q-65 -73 -101 -164.5t-36 -206.5q0 -116 17.5 -187t41.5 -111.5t46 -54t32 -13.5q8 0 31 12.5t47 51t42.5 111.5
t18.5 191q0 115 -36 206.5t-103 164.5zM431 -281q0 46 34.5 78t82.5 32q47 0 81.5 -32t34.5 -78t-34.5 -78t-81.5 -32q-32 0 -59 14.5t-42.5 39.5t-15.5 56zM822 -281q0 46 33.5 78t79.5 32q33 0 60 -14.5t42.5 -39.5t15.5 -56q0 -48 -34 -79t-84 -31q-46 0 -79.5 32
t-33.5 78z" />
    <glyph glyph-name="uniABB2_uni0324" unicode="&#xabb2;&#x324;" horiz-adv-x="1097" 
d="M897 520q-110 -97 -281 -97h-264v-423h-177v1136h441q175 0 281 -97q108 -102 108 -261q0 -160 -108 -258zM610 982h-258v-405h164q77 0 135.5 8t98 30t58 61.5t18.5 101.5q0 100 -55 152t-161 52zM-50 -281q0 46 34.5 78t82.5 32q47 0 81.5 -32t34.5 -78t-34.5 -78
t-81.5 -32q-32 0 -59 14.5t-42.5 39.5t-15.5 56zM341 -281q0 46 33.5 78t79.5 32q33 0 60 -14.5t42.5 -39.5t15.5 -56q0 -48 -34 -79t-84 -31q-46 0 -79.5 32t-33.5 78z" />
    <glyph glyph-name="uniABB3_uni0324" unicode="&#xabb3;&#x324;" horiz-adv-x="1182" 
d="M735 676v165h125q-30 85 -88 124.5t-166 39.5q-138 0 -221 -90.5t-83 -269.5v-162q0 -181 82 -266.5t226 -85.5q133 0 201.5 64.5t68.5 166.5h175q0 -66 -26 -135t-81 -125t-140.5 -90.5t-203.5 -34.5q-223 0 -350 130t-127 376v166q0 240 129 375q129 133 350 137
q177 0 289 -76t154 -244h50v-165h-364zM283 -281q0 46 34.5 78t82.5 32q47 0 81.5 -32t34.5 -78t-34.5 -78t-81.5 -32q-32 0 -59 14.5t-42.5 39.5t-15.5 56zM674 -281q0 46 33.5 78t79.5 32q33 0 60 -14.5t42.5 -39.5t15.5 -56q0 -48 -34 -79t-84 -31q-46 0 -79.5 32
t-33.5 78z" />
    <glyph glyph-name="uniABB4_uni0324" unicode="&#xabb4;&#x324;" horiz-adv-x="1174" 
d="M641 0h-233v982h-364v154h541v-853l306 853h200zM231 -281q0 46 34.5 78t82.5 32q47 0 81.5 -32t34.5 -78t-34.5 -78t-81.5 -32q-32 0 -59 14.5t-42.5 39.5t-15.5 56zM622 -281q0 46 33.5 78t79.5 32q33 0 60 -14.5t42.5 -39.5t15.5 -56q0 -48 -34 -79t-84 -31
q-46 0 -79.5 32t-33.5 78z" />
    <glyph glyph-name="uniABB5_uni0324" unicode="&#xabb5;&#x324;" horiz-adv-x="1347" 
d="M1157 676q-19 52 -45 84.5t-65 32.5q-29 0 -59.5 -12.5t-59.5 -29.5l-39 -20v-731h-177v637l-360 -192v-445h-177v1136h177v-501l491 260q44 25 95 42.5t105 17.5q93 0 155.5 -62.5t89.5 -147.5zM227 -281q0 46 34.5 78t82.5 32q47 0 81.5 -32t34.5 -78t-34.5 -78
t-81.5 -32q-32 0 -59 14.5t-42.5 39.5t-15.5 56zM618 -281q0 46 33.5 78t79.5 32q33 0 60 -14.5t42.5 -39.5t15.5 -56q0 -48 -34 -79t-84 -31q-46 0 -79.5 32t-33.5 78z" />
    <glyph glyph-name="uniABB6_uni0324" unicode="&#xabb6;&#x324;" horiz-adv-x="1188" 
d="M352 1565v-943l501 514h219l-464 -487l483 -649h-225l-387 533l-127 -129v-404h-177v1565h177zM250 -281q0 46 34.5 78t82.5 32q47 0 81.5 -32t34.5 -78t-34.5 -78t-81.5 -32q-32 0 -59 14.5t-42.5 39.5t-15.5 56zM641 -281q0 46 33.5 78t79.5 32q33 0 60 -14.5
t42.5 -39.5t15.5 -56q0 -48 -34 -79t-84 -31q-46 0 -79.5 32t-33.5 78z" />
    <glyph glyph-name="uniABB7_uni0324" unicode="&#xabb7;&#x324;" horiz-adv-x="862" 
d="M341 -23q-73 0 -133 19t-106 56q-94 81 -94 208v158q0 127 94 208q46 40 106 58.5t133 18.5q104 0 181 -39v472h173v-803q0 -177 -96.5 -266.5t-257.5 -89.5zM522 360q0 100 -46.5 143.5t-134.5 43.5q-70 0 -116 -35t-46 -94v-158q0 -56 46 -92.5t116 -36.5
q88 0 134.5 44t46.5 143v42zM42 -281q0 46 34.5 78t82.5 32q47 0 81.5 -32t34.5 -78t-34.5 -78t-81.5 -32q-32 0 -59 14.5t-42.5 39.5t-15.5 56zM433 -281q0 46 33.5 78t79.5 32q33 0 60 -14.5t42.5 -39.5t15.5 -56q0 -48 -34 -79t-84 -31q-46 0 -79.5 32t-33.5 78z" />
    <glyph glyph-name="uniABB8_uni0324" unicode="&#xabb8;&#x324;" horiz-adv-x="1501" 
d="M1195 689l-134 183l-137 -183q0 67 -24 125t-66.5 100.5t-100 66.5t-123.5 24q-138 0 -222 -90.5t-84 -269.5v-162q0 -181 82 -266.5t228 -85.5q69 0 125 24t97.5 66.5t64.5 101t23 124.5l135 -183l136 183l222 -322l-112 -54l-112 160l-136 -185l-81 123
q-112 -196 -368 -192q-225 0 -353 130t-128 376v166q0 242 131 375q131 137 352 137q256 0 368 -193l81 123l136 -186l112 161l112 -54zM302 -281q0 46 34.5 78t82.5 32q47 0 81.5 -32t34.5 -78t-34.5 -78t-81.5 -32q-32 0 -59 14.5t-42.5 39.5t-15.5 56zM693 -281
q0 46 33.5 78t79.5 32q33 0 60 -14.5t42.5 -39.5t15.5 -56q0 -48 -34 -79t-84 -31q-46 0 -79.5 32t-33.5 78z" />
    <glyph glyph-name="uniABB9_uni0324" unicode="&#xabb9;&#x324;" horiz-adv-x="1317" 
d="M1276 -14q-29 -7 -53 -8.5t-46 -1.5q-72 0 -129 25.5t-90 85.5q-35 -31 -74.5 -52t-82.5 -34t-89 -19t-93 -6q-132 0 -225.5 39.5t-152.5 109t-86 164t-27 204.5v156q0 106 30 199.5t91.5 163t155 109.5t219.5 40q94 0 174 -25t140.5 -74t98 -120.5t45.5 -165.5h-164
q-16 118 -94.5 180t-202.5 62q-89 0 -151 -30t-101 -80.5t-57 -117.5t-18 -141v-156q0 -74 16 -142t54 -119.5t100 -82t154 -30.5q60 0 115 16t96.5 47t66 75t24.5 101v100h-143v143h451v-143h-144v-189q0 -34 4 -63.5t16.5 -51t36.5 -34t64 -12.5q14 0 30 1.5t41 6.5v-130z
M302 -281q0 46 34.5 78t82.5 32q47 0 81.5 -32t34.5 -78t-34.5 -78t-81.5 -32q-32 0 -59 14.5t-42.5 39.5t-15.5 56zM693 -281q0 46 33.5 78t79.5 32q33 0 60 -14.5t42.5 -39.5t15.5 -56q0 -48 -34 -79t-84 -31q-46 0 -79.5 32t-33.5 78z" />
    </font>
</defs>
</svg>
